<?xml version="1.0" encoding="utf-8"?>
<!-- Generator: Adobe Illustrator 19.0.0, SVG Export Plug-In . SVG Version: 6.00 Build 0)  -->
<svg version="1.1" id="Layer_1" xmlns="http://www.w3.org/2000/svg" xmlns:xlink="http://www.w3.org/1999/xlink" x="0px" y="0px"
	 viewBox="0 0 468.3 468.3" style="enable-background:new 0 0 468.3 468.3;" xml:space="preserve">
<style type="text/css">
	.st0{fill:none;}
	.st1{fill:#FFFFFF;}
</style>
<g id="XMLID_2_">
	<circle id="XMLID_313_" class="st0" cx="234.1" cy="234.1" r="200"/>
	<path id="XMLID_160_" class="st1" d="M172.8,26.1c1.1-0.3,2.2-0.2,3.2,0.3c1,0.6,1.7,1.4,2.1,2.5s0.2,2.2-0.3,3.3
		c-0.6,1-1.4,1.7-2.5,2.1c-1.1,0.3-2.2,0.2-3.2-0.3c-1-0.6-1.7-1.4-2.1-2.5s-0.2-2.2,0.4-3.3C170.9,27.1,171.7,26.4,172.8,26.1z"/>
	<path id="XMLID_162_" class="st1" d="M197.2,22.2l2,11.1c0.1,0.6,0.5,0.9,1.3,1c0.4,0,0.6,0.1,0.7,0.2c0.1,0.1,0.2,0.4,0.3,0.8
		c0.1,0.7,0.1,1.1,0.1,1.2c-0.1,0.1-0.3,0.2-0.7,0.3l-8.4,1.5c-0.5,0.1-0.8,0-1-0.1c-0.2-0.2-0.3-0.5-0.4-1.1
		c-0.1-0.4-0.1-0.6,0-0.8c0-0.1,0.2-0.3,0.5-0.5c0.4-0.3,0.7-0.5,0.8-0.7c0.1-0.2,0.1-0.4,0.1-0.7l-4-22.2c-0.1-0.3-0.2-0.6-0.3-0.7
		c-0.2-0.1-0.5-0.3-0.9-0.4c-0.3-0.1-0.5-0.4-0.6-0.8c0,0-0.1-0.3-0.1-0.8c0-0.5,0.2-0.8,0.7-0.9l11.5-2c0.3-0.1,0.6,0,0.7,0
		c0.2,0.1,0.3,0.3,0.5,0.8c0,0.1,0.1,0.2,0.1,0.3l1.6,3.9c0.1,0.2,0.2,0.5,0.2,0.6c0.1,0.4-0.2,0.6-0.8,0.7
		c-0.8,0.1-1.3,0.1-1.5-0.2c-0.2-0.3-0.7-0.9-1.3-2c-0.4-0.7-0.7-1.1-1-1.3c-0.3-0.2-0.7-0.3-1.2-0.2c-0.1,0-0.4,0.1-0.8,0.2
		l1.9,10.5l0.9-0.2c0.5-0.1,0.8-0.3,1-0.5c0.1-0.3,0.2-0.7,0.2-1.2c0-0.6,0-1.1,0.1-1.3c0.1-0.2,0.5-0.4,1.2-0.5
		c0.5-0.1,0.8-0.1,0.9,0c0.1,0.1,0.2,0.3,0.3,0.5l1.2,6.6c0.1,0.3,0,0.5,0,0.6c-0.1,0.1-0.4,0.2-0.9,0.3c-0.6,0.1-1.1,0.1-1.3-0.1
		c-0.2-0.2-0.4-0.7-0.6-1.5c-0.2-0.8-0.8-1.1-1.6-1L197.2,22.2z"/>
	<path id="XMLID_164_" class="st1" d="M204.2,5.9l8-0.8c0.3,0,0.5,0,0.5,0.1s0.2,0.5,0.2,1.1c0.1,0.6-0.1,1-0.4,1.3
		c-0.3,0.2-0.4,0.3-0.5,0.5C212,8.2,212,8.5,212,9l2.1,20.8c0.1,0.6,0.3,1,0.6,1.3c0.4,0.3,0.8,0.5,1.3,0.4c0.5,0,0.8-0.3,1.1-0.7
		c0.3-0.4,0.4-0.9,0.4-1.4l-2.1-20.8c0-0.4-0.1-0.6-0.2-0.7c-0.1-0.1-0.3-0.3-0.6-0.5c-0.5-0.3-0.7-0.8-0.8-1.4
		c-0.1-0.5,0-0.8,0.1-1s0.3-0.2,0.5-0.2l4-0.4c0.4,0,0.7,0.2,0.7,0.6l0.1,0.9c0,0.4,0,0.6,0,0.8c0,0.1-0.2,0.2-0.4,0.3
		c-0.6,0.3-0.8,0.7-0.8,1.3l2,20.3c0.2,1.9-0.2,3.5-1.2,4.7c-1,1.2-2.5,1.9-4.4,2.1c-2.2,0.2-3.9-0.2-5.2-1.3c-1.3-1.1-2-2.7-2.2-5
		l-1.9-19.6c-0.1-0.5-0.4-0.9-0.9-1.1c-0.3-0.1-0.5-0.2-0.5-0.3c-0.1-0.1-0.1-0.3-0.2-0.7c-0.1-0.7-0.1-1.2,0-1.4
		C203.6,6,203.8,5.9,204.2,5.9z"/>
	<path id="XMLID_166_" class="st1" d="M230.9,32.1l1.1,0c0.5,0,0.9-0.2,1.2-0.7c0.3-0.4,0.6-1.5,1-3c0.1-0.6,0.3-1,0.5-1.1
		c0.2-0.1,0.6-0.2,1.1-0.2c0.6,0,0.9,0,1.1,0.1c0.2,0.1,0.2,0.3,0.3,0.5c0,0.2,0,0.5-0.1,0.8l-0.6,4.5c-0.1,0.5-0.2,0.8-0.3,0.9
		c-0.1,0.2-0.4,0.2-0.7,0.2l-12.3,0.3c-0.5,0-0.8-0.3-0.8-1c0-0.5,0-0.8,0.1-1c0.1-0.1,0.2-0.3,0.4-0.3c0.7-0.2,1-0.9,1-2l-0.5-22.2
		c0-0.5-0.2-0.8-0.7-1c-0.4-0.2-0.6-0.3-0.7-0.5c-0.1-0.2-0.1-0.5-0.2-1c0-0.5,0-0.9,0.1-1s0.3-0.2,0.6-0.2l8.6-0.2
		c0.3,0,0.5,0.1,0.7,0.2s0.2,0.6,0.2,1.3c0,0.4,0,0.7-0.1,0.8c-0.1,0.1-0.3,0.3-0.6,0.4c-0.6,0.2-0.9,0.6-0.9,1.3L230.9,32.1z"/>
	<path id="XMLID_168_" class="st1" d="M246.1,32.4l1.1,0.1c0.5,0,1-0.2,1.2-0.6c0.3-0.4,0.7-1.4,1.2-3c0.2-0.6,0.4-1,0.6-1.1
		c0.2-0.1,0.6-0.2,1.1-0.1c0.6,0,0.9,0.1,1.1,0.2c0.2,0.1,0.2,0.3,0.2,0.5c0,0.2-0.1,0.5-0.1,0.8l-0.9,4.4c-0.1,0.5-0.2,0.8-0.3,0.9
		s-0.4,0.2-0.7,0.2l-12.3-0.6c-0.5,0-0.8-0.4-0.7-1c0-0.5,0.1-0.8,0.2-1c0.1-0.1,0.2-0.2,0.5-0.3c0.7-0.2,1.1-0.8,1.2-1.9l1.2-22.1
		c0-0.5-0.2-0.8-0.6-1c-0.4-0.2-0.6-0.4-0.7-0.6C239,6,239,5.7,239,5.2c0-0.5,0.1-0.9,0.2-1c0.1-0.1,0.3-0.2,0.6-0.2l8.6,0.4
		c0.3,0,0.5,0.1,0.6,0.3c0.1,0.2,0.1,0.6,0.1,1.3c0,0.4-0.1,0.7-0.2,0.8s-0.3,0.3-0.6,0.3c-0.6,0.2-1,0.6-1,1.2L246.1,32.4z"/>
	<path id="XMLID_170_" class="st1" d="M275.1,8.5c0.1,0,0.3-0.3,0.8-0.7c0.3-0.3,0.6-0.4,1-0.3c0.1,0,0.4,0.1,1,0.3
		c0.1,0.1,0.1,0.4,0.1,0.8l-0.1,6.4c0,0.3,0,0.5,0,0.6c0,0.2-0.1,0.4-0.3,0.4c-0.1,0.1-0.5,0-1-0.1c-0.6-0.1-1-0.3-1.2-0.4
		c-0.2-0.2-0.4-0.9-0.7-2.2c-0.7-2.7-1.4-4-2.3-4.2c-0.6-0.1-1,0.3-1.1,1.1c-0.2,1.1,0.4,3.3,1.7,6.8c1.5,4,2.4,6.8,2.8,8.5
		c0.4,1.7,0.4,3.6,0,5.6c-0.4,2.4-1.3,4.1-2.6,5.2c-1.3,1.1-2.7,1.5-4.1,1.3c-0.9-0.2-1.7-0.5-2.4-1.2c-0.3-0.3-0.5-0.4-0.7-0.4
		c-0.2,0-0.3,0.1-0.4,0.3c-0.3,0.4-0.8,0.6-1.6,0.5c-0.3-0.1-0.5-0.1-0.6-0.2c-0.1-0.1-0.1-0.4-0.1-0.8l0.1-6.3c0-0.8,0-1.2,0-1.3
		c0.1-0.4,0.4-0.5,1.1-0.4c0.9,0.2,1.4,0.4,1.5,0.6c0.1,0.3,0.3,0.8,0.4,1.7c0.6,3.2,1.4,4.8,2.5,5c0.4,0.1,0.8,0,1.1-0.3
		s0.5-0.6,0.6-1c0.1-0.8,0-1.7-0.4-2.9c-0.4-1.2-0.9-2.5-1.4-3.9c-1.4-3.4-2.4-6.2-2.8-8.2c-0.5-2-0.6-4-0.2-5.9
		c0.4-2.2,1.1-3.8,2.3-5c1.2-1.1,2.5-1.6,3.8-1.3C272.8,6.8,273.9,7.4,275.1,8.5z"/>
	<path id="XMLID_172_" class="st1" d="M286.8,12.2L286,12c-0.3-0.1-0.5,0.1-0.8,0.4c-0.3,0.3-0.7,1.2-1.3,2.8
		c-0.3,0.7-0.5,1.1-0.7,1.2c-0.2,0.1-0.6,0.1-1.2,0c-0.5-0.1-0.8-0.3-1-0.4s-0.1-0.4,0-0.8c0.1-0.2,0.1-0.4,0.2-0.6l1.3-4.2
		c0.1-0.5,0.3-0.8,0.5-0.9c0.2-0.1,0.6-0.1,1.1,0l13.3,3.4c0.4,0.1,0.6,0.2,0.7,0.3c0.1,0.1,0,0.5-0.1,1.1l-0.6,3.8
		c0,0.3-0.1,0.6-0.2,0.9c-0.1,0.4-0.2,0.6-0.3,0.8c-0.1,0.2-0.5,0.2-0.9,0.1c-0.6-0.2-1-0.3-1.1-0.5c-0.1-0.2-0.2-0.6-0.1-1.2
		c0.1-1.1,0.1-2,0-2.7c-0.1-0.7-0.3-1.1-0.6-1.2l-0.5-0.1l-5.9,23.2c-0.2,0.7,0,1.2,0.5,1.6c0.2,0.2,0.3,0.3,0.4,0.5
		c0,0.2,0,0.5-0.1,1c-0.2,0.6-0.3,1-0.4,1c-0.1,0.1-0.4,0.1-0.8,0l-8-2c-0.3-0.1-0.5-0.2-0.6-0.3c-0.1-0.1,0-0.5,0.1-1.1
		c0.2-0.7,0.5-1,0.9-1.1c0.4-0.1,0.7-0.1,0.8-0.2s0.2-0.3,0.3-0.7L286.8,12.2z"/>
	<path id="XMLID_174_" class="st1" d="M301.1,38.8l-4.4-1.5l-0.8,1.6c0,0,0,0.1-0.1,0.1c-0.2,0.3-0.4,0.6-0.5,0.9
		c-0.1,0.4,0,0.9,0.5,1.4c0.2,0.3,0.4,0.5,0.4,0.7s0,0.5-0.2,0.8c-0.2,0.5-0.3,0.8-0.4,0.8c-0.1,0.1-0.2,0.1-0.4,0l-4.6-1.6
		c-0.3-0.1-0.3-0.4-0.1-0.9c0.2-0.6,0.6-1.1,1.2-1.4c0.5-0.2,0.9-0.5,1.1-0.9L303,19.1c0.2-0.3,0.3-0.6,0.4-0.8
		c0.1-0.4,0-0.8-0.4-1.2c-0.2-0.2-0.2-0.6,0-1.1c0.2-0.6,0.4-1,0.5-1.2c0.1-0.1,0.3-0.1,0.6,0l6.7,2.3c0.4,0.1,0.6,0.4,0.7,0.9
		c0,0.4-0.1,1.3-0.4,2.7c-0.1,0.5-0.2,1.1-0.3,1.6l-3.7,20.4c-0.2,1-0.1,1.8,0.3,2.5c0.1,0.2,0.2,0.3,0.2,0.4c0,0.1,0,0.3-0.2,0.7
		c-0.2,0.6-0.4,1-0.5,1.1c-0.1,0.1-0.3,0.1-0.6,0l-7.8-2.7c-0.2-0.1-0.3-0.3-0.1-0.8c0.2-0.6,0.3-0.9,0.4-1c0.1-0.1,0.3-0.2,0.7-0.3
		c0.5-0.1,0.8-0.4,1-0.8C300.6,41.4,300.8,40.4,301.1,38.8z M304.3,22.2l-6.7,13.1l3.9,1.3L304.3,22.2z"/>
	<path id="XMLID_177_" class="st1" d="M330.9,24.7l0.9,0.4c0.2,0.1,0.3,0.2,0.4,0.4c0,0.2-0.1,0.6-0.3,1.3l-2,5.7
		c0,0.1-0.1,0.2-0.1,0.3c-0.2,0.4-0.4,0.6-0.6,0.7s-0.5,0.1-0.9-0.1c-0.5-0.2-0.8-0.5-0.9-0.8c-0.1-0.3,0-1,0.2-2.1
		c0.6-2.7,0.5-4.2-0.4-4.6c-0.7-0.3-1.5,0.4-2.2,2.2l-8.4,19.2c-0.6,1.3-0.5,2.1,0.3,2.4c1,0.4,2-0.4,3-2.5c0.3-0.6,0.6-1,0.9-1.1
		c0.3-0.2,0.8-0.1,1.4,0.2c0.5,0.2,0.8,0.4,0.9,0.7s0.1,0.6-0.2,1.2c-0.7,1.6-1.8,2.8-3.2,3.4c-1.5,0.7-2.9,0.7-4.4,0
		c-1.4-0.6-2.5-1.6-3.1-3s-0.9-3.3-0.8-5.9c0.2-2.5,1-5.5,2.5-9c1.4-3.2,2.9-5.7,4.4-7.4c1.5-1.7,3-2.8,4.5-3.4s2.9-0.6,4.3,0
		c0.8,0.4,1.4,0.9,1.8,1.6c0.2,0.3,0.3,0.4,0.4,0.5c0.1,0.1,0.4,0,0.8-0.2C330.4,24.7,330.7,24.6,330.9,24.7z"/>
	<path id="XMLID_179_" class="st1" d="M343,41l-4.3,18c-0.1,0.6-0.1,1.1,0.2,1.5c0.2,0.3,0.2,0.6-0.1,1.1c0,0.1-0.2,0.4-0.6,1
		c-0.2,0.2-0.5,0.3-0.9,0l-6.5-3.5c-0.2-0.1-0.4-0.3-0.4-0.4c0-0.1,0.1-0.4,0.3-0.8c0-0.1,0.2-0.3,0.5-0.8c0.1-0.2,0.3-0.2,0.6-0.2
		c0.4,0.1,0.7,0,0.9-0.3c0-0.1,0.1-0.2,0.1-0.3l2.2-9.5l-1.2,0.9l-3.6,6.7c-0.3,0.6-0.3,1.1,0,1.7c0.1,0.2,0.1,0.6-0.1,1
		c-0.3,0.5-0.5,0.8-0.7,0.9c-0.2,0.1-0.4,0.1-0.8-0.1l-6.9-3.7c-0.3-0.1-0.4-0.3-0.4-0.4c0-0.2,0.1-0.5,0.3-1s0.5-0.8,0.6-0.9
		c0.1-0.1,0.4-0.1,0.6-0.1c0.5,0.1,0.9-0.1,1.1-0.6l10.7-19.7c0.3-0.5,0.3-1,0-1.4c-0.2-0.3-0.3-0.5-0.3-0.7c0-0.1,0.1-0.4,0.3-0.7
		c0.4-0.7,0.7-1.2,0.8-1.2c0.1-0.1,0.3-0.1,0.6,0.1l7.5,4.1c0.3,0.2,0.4,0.4,0.3,0.7c-0.5,0.9-0.8,1.4-0.9,1.5
		c-0.1,0.1-0.3,0.2-0.7,0.2c-0.7,0-1.1,0.2-1.4,0.6l-4.6,8.4l8-6.2c0.4-0.3,0.7-0.6,0.8-0.8c0.1-0.1,0-0.4-0.1-0.7
		c-0.2-0.4-0.3-0.6-0.2-0.8s0.2-0.6,0.5-1.1c0.2-0.4,0.5-0.6,0.8-0.4l4.4,2.4c0.3,0.1,0.4,0.3,0.4,0.4s-0.1,0.4-0.4,0.9
		c-0.3,0.5-0.5,0.8-0.6,0.9c-0.1,0.1-0.4,0.1-0.9,0c-0.3,0-0.6-0.1-0.7,0s-0.3,0.1-0.5,0.3L343,41z"/>
	<path id="XMLID_181_" class="st1" d="M368.3,58.1l2.3-4.4c0.2-0.4,0.3-0.9,0.2-1.5c0-0.4,0-0.7,0.2-0.9l0.8-1
		c0.2-0.3,0.5-0.3,0.8-0.1l6,4.7c0.2,0.2,0.3,0.3,0.3,0.4c0,0.1-0.2,0.4-0.4,0.7c-0.4,0.5-0.7,0.8-0.8,0.9c-0.1,0.1-0.3,0.1-0.6,0
		c-0.4-0.1-0.7,0-0.8,0.1c-0.2,0.2-0.4,0.5-0.6,1L369.9,69l9.3-8.5c0.1-0.1,0.2-0.2,0.3-0.3c0.3-0.5,0.4-1,0-1.6
		c-0.2-0.3,0-0.8,0.4-1.3c0.1-0.1,0.2-0.3,0.2-0.3l0.1-0.1c0.2-0.2,0.4-0.2,0.8,0.1l3.4,2.6c0.2,0.2,0.4,0.3,0.4,0.5
		s-0.1,0.3-0.3,0.6c-0.1,0.1-0.1,0.2-0.2,0.3l-0.5,0.5c-0.2,0.2-0.5,0.3-0.9,0.2c-0.4,0-0.8,0.1-1.2,0.5l-18.6,16.7
		c-0.7,0.7-1.2,1-1.4,1.1c-0.2,0.1-0.4,0-0.7-0.2l-2.5-1.9c-0.3-0.2-0.2-0.6,0.1-1.2c0.1-0.1,0.1-0.2,0.2-0.3l6.2-11.9l-10,9.2
		c-0.4,0.4-0.7,0.6-0.8,0.6c-0.2,0-0.3,0-0.5-0.2l-2.6-2c-0.3-0.2-0.1-0.9,0.6-2c0.1-0.2,0.2-0.4,0.3-0.5l11.2-21.8
		c0.2-0.5,0.3-0.9,0.1-1.4c-0.2-0.4-0.1-0.7,0.1-1l0.9-1.1c0.2-0.2,0.4-0.2,0.7,0l5.8,4.5c0.2,0.2,0.3,0.3,0.3,0.5s-0.1,0.4-0.4,0.8
		c-0.3,0.4-0.5,0.7-0.7,0.8c-0.1,0.1-0.3,0.1-0.6,0.2c-0.3,0-0.6,0.2-0.7,0.3c-0.2,0.2-0.4,0.5-0.6,0.9l-5.8,11.4L368.3,58.1z"/>
	<path id="XMLID_183_" class="st1" d="M392,69.9l-7.3,7.7l0.9,0.9c0.3,0.2,0.5,0.4,0.7,0.4c0.2,0,0.5-0.1,0.9-0.4
		c0.7-0.5,1.2-0.8,1.4-0.9c0.2-0.1,0.4,0,0.5,0.1c0.7,0.7,1.1,1.1,1.1,1.2c0,0.1-0.1,0.4-0.5,0.8l-4.3,4.5c-0.3,0.3-0.5,0.4-0.7,0.4
		c-0.2,0-0.5-0.2-1-0.7c-0.3-0.3-0.5-0.5-0.5-0.8c0-0.2,0.2-0.6,0.6-1.2c0.4-0.6,0.5-1,0.5-1.2c0-0.2-0.1-0.4-0.3-0.6l-1.1-1
		l-8.9,9.3l0.7,0.7c0.4,0.4,0.9,0.6,1.3,0.5c0.4-0.1,1.3-0.5,2.8-1.4c0.6-0.3,1.1-0.5,1.4-0.5c0.3,0,0.7,0.2,1.1,0.6
		c0.6,0.5,0.7,1,0.3,1.3c-0.1,0.1-0.3,0.2-0.5,0.4l-3.4,2.6c-0.6,0.5-1,0.7-1.2,0.8c-0.2,0.1-0.4-0.1-0.7-0.4l-9-8.6
		c-0.2-0.2-0.3-0.4-0.3-0.6c0-0.2,0.3-0.5,0.8-1c0.3-0.3,0.7-0.4,1.1-0.2c0.7,0.3,1.2,0.2,1.6-0.1l16-16.9c0.2-0.2,0.1-0.5-0.1-1.1
		c-0.2-0.4-0.2-0.6-0.2-0.8c0.1-0.2,0.3-0.4,0.7-0.9c0.3-0.4,0.6-0.5,0.7-0.6s0.3,0.1,0.6,0.3l8.6,8.2c0.2,0.2,0.3,0.4,0.4,0.6
		c0,0.2-0.1,0.4-0.3,0.7l-2.6,4.1c-0.1,0.2-0.2,0.4-0.3,0.4c-0.2,0.2-0.6,0.2-1-0.3c-0.5-0.5-0.8-0.8-0.8-1.1
		c-0.1-0.3,0.1-0.7,0.3-1.3c0.5-1.1,0.8-1.9,0.9-2.4c0.1-0.5,0-0.9-0.2-1.1L392,69.9z"/>
	<path id="XMLID_185_" class="st1" d="M399.4,93.2c0.9,2.2,1.2,4.1,0.9,5.5c-0.3,1.4-1.2,2.8-2.8,4.2c-2.4,2.1-4.6,3-6.8,2.9
		c-2.2-0.2-4.4-1.5-6.6-4l-6-6.8c-0.2-0.3-0.2-0.5,0.1-0.8l0.8-0.7c0.2-0.2,0.5-0.2,0.9-0.1c0.7,0.3,1.3,0.3,1.8-0.2l16.9-14.9
		c0.2-0.2,0.4-0.4,0.4-0.5c0-0.1,0-0.5-0.2-1c-0.1-0.3-0.1-0.5,0-0.6c0.1-0.1,0.3-0.4,0.7-0.7c0.4-0.3,0.6-0.5,0.8-0.5
		c0.2,0,0.4,0.1,0.6,0.4l6.8,7.7c1.6,1.8,2.4,3.7,2.3,5.5c-0.1,1.8-0.8,3.4-2.3,4.7c-1.2,1.1-2.6,1.6-4.1,1.5
		C402.1,94.6,400.7,94.1,399.4,93.2z M395.4,90.3l-10.5,9.2c0.8,0.9,1.4,1.3,1.9,1.4s1.1-0.1,1.8-0.7c0.7-0.6,1.9-1.6,3.6-3
		c0.3-0.3,1.1-1,2.3-2.1s1.8-1.8,2-2.1c0.2-0.3,0.2-0.6,0.2-0.9c0-0.3-0.2-0.7-0.6-1.1L395.4,90.3z M404.3,82.4l-7.3,6.5l0.7,0.7
		c0.4,0.5,0.9,0.7,1.4,0.7s1.1-0.2,1.8-0.7c0.7-0.5,1.5-1.2,2.4-2c1.3-1.2,2.1-2.1,2.3-2.7c0.2-0.6,0-1.2-0.5-1.8L404.3,82.4z"/>
	<path id="XMLID_189_" class="st1" d="M400.7,115.8l18.9-12.3c0.2-0.2,0.2-0.5,0.1-0.9c-0.1-0.3-0.1-0.6,0-0.8s0.4-0.5,0.9-0.8
		c0.4-0.3,0.7-0.4,0.9-0.3c0.2,0.1,0.5,0.4,0.9,0.9l4.9,7.5c1.4,2.1,1.6,4.5,0.5,7.2c-1.1,2.7-3.9,5.5-8.4,8.5
		c-4.2,2.7-7.7,4.1-10.7,4.1c-3,0-5.2-1.1-6.6-3.4l-5.4-8.3c-0.1-0.2-0.2-0.4-0.1-0.6s0.3-0.4,0.6-0.6c0.4-0.3,0.7-0.5,0.9-0.5
		s0.4,0,0.7,0.2C399.5,116.2,400.1,116.2,400.7,115.8z M424.4,108.7l-21.6,14.1l0.5,0.8c0.4,0.6,0.9,0.9,1.6,0.8s1.6-0.5,2.9-1.3
		l16-10.4c0.7-0.5,1.2-1,1.4-1.6c0.2-0.6,0.1-1.2-0.3-1.8L424.4,108.7z"/>
	<path id="XMLID_192_" class="st1" d="M435.9,128.3l-9.4,5l0.6,1.1c0.2,0.3,0.3,0.5,0.6,0.6c0.2,0.1,0.6,0,1-0.1
		c0.8-0.3,1.4-0.4,1.6-0.4c0.2,0,0.3,0.1,0.4,0.3c0.5,0.9,0.7,1.4,0.7,1.5c0,0.2-0.3,0.4-0.7,0.6l-5.5,2.9c-0.3,0.2-0.6,0.2-0.8,0.2
		c-0.2-0.1-0.4-0.4-0.7-0.9c-0.2-0.4-0.3-0.7-0.2-0.9c0.1-0.2,0.4-0.5,1-1c0.5-0.4,0.8-0.7,0.9-0.9c0.1-0.2,0-0.4-0.1-0.6l-0.7-1.3
		l-11.3,6l0.5,0.9c0.3,0.5,0.6,0.8,1,0.9c0.4,0,1.5-0.1,3.1-0.4c0.7-0.1,1.2-0.2,1.5-0.1c0.3,0.1,0.6,0.4,0.8,0.9
		c0.4,0.7,0.3,1.1-0.1,1.4c-0.1,0.1-0.3,0.2-0.6,0.2l-4.1,1.4c-0.7,0.3-1.2,0.4-1.4,0.4c-0.2,0-0.4-0.2-0.6-0.6l-5.8-11
		c-0.1-0.3-0.2-0.5-0.1-0.6s0.4-0.4,1-0.7c0.4-0.2,0.8-0.2,1.2,0.1c0.6,0.5,1.1,0.6,1.5,0.4l20.5-10.9c0.2-0.1,0.3-0.5,0.2-1.1
		c0-0.4,0-0.7,0.1-0.8c0.1-0.1,0.4-0.3,0.9-0.6c0.4-0.2,0.7-0.3,0.8-0.3c0.1,0,0.3,0.2,0.4,0.5l5.6,10.5c0.1,0.3,0.2,0.5,0.2,0.6
		c0,0.2-0.2,0.4-0.5,0.6l-3.8,3.1c-0.2,0.2-0.3,0.3-0.4,0.3c-0.3,0.2-0.6,0-0.9-0.6c-0.3-0.6-0.5-1-0.4-1.3c0-0.3,0.3-0.6,0.7-1.1
		c0.8-0.9,1.3-1.5,1.6-2c0.3-0.4,0.3-0.8,0.1-1.1L435.9,128.3z"/>
	<path id="XMLID_194_" class="st1" d="M429.5,152.4l14.4-3.1c0.1,0,0.2-0.1,0.4-0.1c0.5-0.2,0.7-0.6,0.7-1.3c0-0.4,0.1-0.7,0.3-0.8
		c0.1,0,0.2-0.1,0.2-0.1l0.3-0.1c0.5-0.2,0.8-0.3,1-0.3c0.2,0,0.3,0.1,0.4,0.3l1.8,4.2c0.1,0.2,0.1,0.3,0,0.4
		c-0.1,0.1-0.4,0.2-0.8,0.4c-0.5,0.2-0.9,0.4-1,0.4s-0.3,0-0.4-0.1c-0.4-0.2-0.7-0.4-0.9-0.4c-0.2,0-0.7,0-1.4,0.2l-24.2,5.1
		l-1.5,0.3c-0.1,0-0.3-0.1-0.3-0.3l-1.5-3.4c-0.1-0.1,0-0.3,0.1-0.4s0.5-0.4,1.2-0.9l20.9-14.3c0.5-0.3,0.8-0.8,0.9-1.4
		c0-0.3,0.1-0.5,0.1-0.6c0.1-0.1,0.2-0.2,0.4-0.3c0.1,0,0.2-0.1,0.2-0.1c0.1,0,0.3-0.1,0.4-0.1c0.1,0,0.2-0.1,0.2-0.1l0.2-0.1
		c0.4-0.2,0.6-0.1,0.7,0.2l3.4,7.8c0.1,0.3-0.1,0.5-0.5,0.7c0,0-0.3,0.1-1,0.4c-0.2,0-0.3,0-0.5-0.2c-0.5-0.4-0.9-0.5-1.5-0.3
		c-0.1,0.1-0.3,0.1-0.4,0.2L429.5,152.4z"/>
	<path id="XMLID_196_" class="st1" d="M450.6,162.9l-10.1,3.4l0.4,1.2c0.1,0.3,0.3,0.5,0.5,0.7c0.2,0.1,0.5,0.1,1,0
		c0.9-0.1,1.4-0.2,1.6-0.2c0.2,0,0.3,0.1,0.4,0.3c0.3,0.9,0.5,1.5,0.4,1.6c0,0.1-0.3,0.3-0.8,0.5l-5.9,2c-0.4,0.1-0.6,0.1-0.8,0.1
		c-0.2-0.1-0.3-0.4-0.5-1c-0.1-0.4-0.2-0.7,0-0.9c0.1-0.2,0.5-0.5,1.1-0.8c0.6-0.3,0.9-0.6,1-0.8c0.1-0.2,0.1-0.4,0-0.6l-0.5-1.4
		l-12.2,4.1l0.3,0.9c0.2,0.6,0.5,0.9,0.9,1s1.4,0.1,3.2,0.1c0.7,0,1.2,0,1.5,0.2c0.3,0.1,0.5,0.5,0.7,1c0.2,0.7,0.1,1.2-0.3,1.3
		c-0.1,0-0.4,0.1-0.6,0.1l-4.2,0.7c-0.8,0.1-1.2,0.2-1.4,0.2s-0.3-0.2-0.5-0.6l-3.9-11.8c-0.1-0.3-0.1-0.5,0-0.6
		c0.1-0.1,0.5-0.3,1.1-0.5c0.4-0.1,0.8,0,1.1,0.3c0.5,0.6,1,0.8,1.4,0.6l22.1-7.4c0.2-0.1,0.4-0.4,0.4-1c0-0.4,0.1-0.7,0.2-0.8
		c0.1-0.1,0.5-0.3,1-0.4c0.5-0.2,0.7-0.2,0.9-0.2c0.1,0,0.2,0.2,0.3,0.6l3.8,11.3c0.1,0.3,0.1,0.5,0.1,0.7c-0.1,0.2-0.2,0.3-0.6,0.5
		l-4.3,2.4c-0.2,0.1-0.4,0.2-0.5,0.2c-0.3,0.1-0.6-0.1-0.8-0.7c-0.2-0.6-0.3-1.1-0.2-1.4c0.1-0.3,0.4-0.6,0.9-1
		c0.9-0.7,1.6-1.3,1.9-1.7c0.3-0.4,0.4-0.8,0.3-1.1L450.6,162.9z"/>
	<path id="XMLID_198_" class="st1" d="M430.5,186l0.3,1c0.1,0.5,0.4,0.9,0.9,1c0.5,0.1,1.5,0.2,3.2,0.3c0.6,0,1,0.1,1.2,0.3
		c0.2,0.2,0.3,0.5,0.5,1c0.1,0.5,0.2,0.9,0.1,1.1c-0.1,0.2-0.2,0.3-0.4,0.4c-0.2,0-0.4,0.1-0.8,0.1l-4.5,0.5c-0.5,0-0.8,0-1-0.1
		c-0.2-0.1-0.3-0.3-0.4-0.6l-3-11.9c-0.1-0.5,0.1-0.8,0.8-1c0.5-0.1,0.8-0.2,1-0.1c0.2,0,0.3,0.1,0.4,0.3c0.4,0.6,1.1,0.8,2.2,0.6
		l21.5-5.4c0.4-0.1,0.7-0.4,0.8-0.9c0.1-0.4,0.2-0.7,0.4-0.8s0.5-0.3,0.9-0.4c0.5-0.1,0.9-0.2,1-0.1s0.3,0.2,0.3,0.5l2.1,8.3
		c0.1,0.3,0.1,0.5-0.1,0.7c-0.1,0.2-0.5,0.3-1.2,0.5c-0.4,0.1-0.7,0.1-0.8,0.1c-0.2,0-0.3-0.2-0.5-0.5c-0.4-0.6-0.8-0.8-1.4-0.6
		L430.5,186z"/>
	<path id="XMLID_200_" class="st1" d="M461.9,197.6c0.3,1.8-0.1,3.5-1.1,5c-1,1.5-2.5,2.9-4.7,4.1c-2.1,1.2-4.9,2.1-8.4,2.6
		c-4.2,0.7-7.9,0.4-11-0.7c-3.2-1.2-5-3.2-5.4-6.2c-0.4-2.8,0.6-5.3,3.2-7.3c2.6-2.1,6.1-3.5,10.6-4.2c4.6-0.7,8.4-0.5,11.5,0.7
		C459.6,192.7,461.4,194.7,461.9,197.6z M457.7,199.7c1.5-0.2,2.2-0.9,2.1-1.9c-0.1-0.4-0.3-0.7-0.7-1c-0.4-0.2-0.9-0.3-1.5-0.2
		l-22.2,3.5c-0.7,0.1-1.3,0.4-1.6,0.7c-0.3,0.4-0.5,0.7-0.4,1.1c0.1,0.5,0.3,0.8,0.8,1c0.5,0.2,1,0.3,1.5,0.2L457.7,199.7z"/>
	<path id="XMLID_203_" class="st1" d="M444,220.4l-6.2,0.4c-0.7,0-1.2,0.4-1.4,1c-0.1,0.3-0.2,0.5-0.4,0.7c-0.2,0.1-0.5,0.2-1.1,0.2
		c-0.5,0-0.8,0-0.9-0.2c-0.1-0.1-0.2-0.4-0.2-0.8l-0.5-8.4c0-0.4,0.4-0.7,1.1-0.7c0.6,0,1,0,1.2,0s0.3,0.3,0.4,0.6
		c0.1,0.3,0.2,0.5,0.4,0.6c0.1,0.1,0.3,0.1,0.6,0.1l22.5-1.3c0.5,0,0.9-0.4,1.2-1.1c0.2-0.4,0.4-0.6,0.8-0.6l0.9-0.1
		c0.4,0,0.6,0,0.7,0.1c0.1,0.1,0.2,0.3,0.2,0.6l0.6,9.5c0.2,2.7-0.6,5-2.3,6.7c-1.7,1.7-4,2.7-7.1,2.9c-1.8,0.1-3.3-0.1-4.7-0.5
		c-1.4-0.4-2.4-1-3.1-1.7c-0.7-0.7-1.3-1.6-1.7-2.6c-0.5-1-0.7-2-0.8-3.2L444,220.4z M461.7,219.4l-15.6,0.9l0.1,1.3
		c0,0.4,0.3,0.8,0.8,1.2c0.5,0.3,1.3,0.5,2.5,0.4l9.3-0.5c2.1-0.1,3.1-0.9,3-2.3L461.7,219.4z"/>
	<path id="XMLID_206_" class="st1" d="M461.8,241.9l-10.6-0.3l0,1.3c0,0.3,0.1,0.6,0.2,0.8s0.5,0.3,1,0.4c0.9,0.2,1.4,0.3,1.6,0.4
		c0.2,0.1,0.3,0.2,0.2,0.4c0,1-0.1,1.5-0.2,1.7c-0.1,0.1-0.4,0.2-0.9,0.2l-6.2-0.2c-0.4,0-0.6-0.1-0.7-0.2c-0.1-0.1-0.2-0.5-0.1-1.2
		c0-0.4,0.1-0.7,0.3-0.8c0.2-0.1,0.6-0.3,1.3-0.4c0.7-0.1,1.1-0.2,1.2-0.4c0.2-0.1,0.2-0.3,0.2-0.6l0-1.5l-12.8-0.4l0,1
		c0,0.6,0.1,1,0.5,1.3c0.3,0.2,1.3,0.6,2.9,1.2c0.7,0.2,1.1,0.5,1.3,0.7c0.2,0.2,0.3,0.6,0.3,1.2c0,0.8-0.3,1.1-0.8,1.1
		c-0.1,0-0.4,0-0.7-0.1l-4.2-0.8c-0.8-0.1-1.2-0.3-1.4-0.3c-0.2-0.1-0.2-0.3-0.2-0.8l0.4-12.4c0-0.3,0.1-0.5,0.2-0.6
		c0.1-0.1,0.6-0.1,1.2-0.1c0.4,0,0.7,0.2,0.9,0.7c0.3,0.7,0.6,1,1.1,1.1l23.3,0.7c0.2,0,0.5-0.3,0.7-0.8c0.2-0.4,0.3-0.6,0.5-0.6
		s0.5-0.1,1.1-0.1c0.5,0,0.8,0.1,0.9,0.1c0.1,0.1,0.1,0.3,0.1,0.7l-0.3,11.9c0,0.3-0.1,0.5-0.2,0.6c-0.1,0.1-0.3,0.2-0.7,0.3
		l-4.8,0.8c-0.3,0-0.4,0.1-0.5,0.1c-0.3,0-0.5-0.3-0.5-0.9c0-0.7,0.1-1.1,0.3-1.3c0.2-0.2,0.6-0.4,1.2-0.6c1.1-0.4,1.9-0.7,2.4-0.9
		c0.4-0.3,0.7-0.6,0.7-0.9L461.8,241.9z"/>
	<path id="XMLID_208_" class="st1" d="M446.1,258l-9.2-1.1c-0.4,0-0.7-0.1-0.9,0s-0.3,0.2-0.5,0.4c-0.2,0.3-0.6,0.4-1.1,0.4
		c-0.7-0.1-1.2-0.2-1.3-0.3s-0.2-0.4-0.2-0.7l0.9-7.8c0.1-0.4,0.4-0.6,1-0.6c0.6,0.1,1,0.1,1.2,0.2c0.2,0.1,0.3,0.2,0.3,0.4
		c0.2,0.7,0.7,1.1,1.5,1.2l21.7,2.5c0.8,0.1,1.3-0.1,1.6-0.7c0.1-0.3,0.3-0.5,0.4-0.5c0.1-0.1,0.4-0.1,0.9,0c1,0.1,1.4,0.4,1.3,0.9
		l-1.2,10.2c-0.2,2-1.2,3.8-2.9,5.2c-1.7,1.4-3.9,2-6.5,1.7c-3.7-0.4-5.8-2.6-6.5-6.5c-1.2,3.3-3.5,4.8-7.1,4.4l-4.4-0.5
		c-0.4,0-0.7,0.1-0.9,0.3c-0.3,0.3-0.6,0.4-1.1,0.4c-0.7-0.1-1.1-0.2-1.3-0.3s-0.2-0.3-0.1-0.7l0.6-5c0.1-0.6,0.5-1,1.2-1.3
		c0.7-0.3,1.6-0.4,2.6-0.3l7.5,0.9c1.5,0.2,2.3-0.5,2.4-1.9L446.1,258z M460.7,259.7l-12.5-1.5l-0.1,1.2c-0.1,1.2,1,2,3.5,2.3l6,0.7
		c1,0.1,1.8,0,2.3-0.3c0.5-0.3,0.8-0.9,0.9-1.8L460.7,259.7z"/>
	<path id="XMLID_211_" class="st1" d="M444.9,285.4c-0.3,1.1-0.9,2-1.9,2.6s-2.1,0.8-3.2,0.5s-2-0.9-2.6-1.9c-0.6-1-0.8-2.1-0.5-3.2
		c0.3-1.1,0.9-2,1.9-2.6c1-0.6,2.1-0.8,3.2-0.5c1.1,0.3,2,0.9,2.6,1.9C445,283.2,445.2,284.3,444.9,285.4z"/>
	<path id="XMLID_213_" class="st1" d="M436.1,308.5l-10.6-3.9c-0.5-0.2-1,0-1.5,0.6c-0.2,0.3-0.4,0.5-0.6,0.5s-0.4,0-0.9-0.2
		c-0.7-0.2-1-0.4-1.1-0.6s-0.1-0.4,0.1-0.8l2.9-8c0.2-0.4,0.4-0.7,0.6-0.8c0.2-0.1,0.6,0,1.2,0.2c0.4,0.1,0.6,0.3,0.7,0.4
		s0.1,0.3,0.2,0.7c0,0.5,0.1,0.8,0.2,1c0.1,0.2,0.3,0.3,0.5,0.4l21.2,7.7c0.3,0.1,0.6,0.1,0.8,0.1c0.2-0.1,0.5-0.3,0.8-0.6
		c0.2-0.2,0.6-0.3,1-0.1c0,0,0.3,0.1,0.8,0.3c0.5,0.2,0.6,0.6,0.4,1.1l-4,10.9c-0.1,0.3-0.3,0.5-0.4,0.6c-0.2,0.1-0.4,0.1-0.9,0
		c-0.1,0-0.2,0-0.3-0.1l-4.2-0.6c-0.3,0-0.5-0.1-0.7-0.2c-0.4-0.1-0.5-0.5-0.3-1c0.3-0.7,0.6-1.2,0.9-1.3c0.3-0.1,1.1-0.1,2.4-0.1
		c0.8,0,1.3-0.1,1.6-0.2c0.3-0.2,0.6-0.5,0.8-1c0.1-0.1,0.1-0.4,0.2-0.8l-10-3.6l-0.3,0.9c-0.2,0.5-0.2,0.8,0,1.1
		c0.2,0.3,0.5,0.5,1,0.8c0.6,0.3,0.9,0.6,1,0.7c0.1,0.2,0.1,0.6-0.2,1.2c-0.2,0.5-0.3,0.7-0.4,0.8c-0.1,0.1-0.3,0-0.6,0l-6.3-2.3
		c-0.3-0.1-0.4-0.2-0.5-0.3s0-0.4,0.2-0.9c0.2-0.6,0.5-1,0.7-1c0.3-0.1,0.8,0,1.6,0.2c0.8,0.2,1.4-0.1,1.6-0.9L436.1,308.5z"/>
	<path id="XMLID_215_" class="st1" d="M446.7,322.7l-3.3,7.4c-0.1,0.2-0.2,0.4-0.4,0.4c-0.1,0-0.5-0.1-1-0.3s-0.8-0.6-0.9-1
		c0-0.3-0.1-0.5-0.2-0.7c-0.1-0.2-0.4-0.3-0.8-0.5l-19-8.6c-0.5-0.2-1-0.3-1.5-0.1c-0.5,0.1-0.8,0.4-1,0.9c-0.2,0.4-0.2,0.9,0.1,1.3
		c0.2,0.5,0.6,0.8,1,1l19,8.6c0.3,0.1,0.6,0.2,0.7,0.2c0.2,0,0.4-0.1,0.7-0.2c0.5-0.3,1-0.2,1.6,0c0.5,0.2,0.7,0.4,0.8,0.6
		c0,0.2,0,0.3-0.1,0.5l-1.7,3.7c-0.2,0.4-0.5,0.5-0.9,0.3l-0.8-0.4c-0.4-0.2-0.6-0.3-0.7-0.4c-0.1-0.1-0.1-0.3-0.1-0.5
		c0.1-0.6-0.2-1-0.7-1.3l-18.5-8.4c-1.8-0.8-2.9-1.9-3.5-3.4c-0.6-1.5-0.4-3.1,0.4-4.9c0.9-2,2.2-3.3,3.7-3.9
		c1.6-0.6,3.4-0.4,5.4,0.5l17.9,8.1c0.5,0.2,0.9,0.1,1.4-0.3c0.2-0.2,0.4-0.3,0.5-0.3c0.1,0,0.3,0.1,0.7,0.2
		c0.7,0.3,1.1,0.5,1.2,0.7S446.9,322.3,446.7,322.7z"/>
	<path id="XMLID_217_" class="st1" d="M410.6,332.7l-0.5,0.9c-0.3,0.5-0.3,0.9,0,1.4c0.3,0.4,1,1.2,2.2,2.4c0.5,0.4,0.7,0.8,0.7,1
		c0,0.2-0.1,0.6-0.4,1c-0.3,0.5-0.5,0.8-0.6,0.9c-0.2,0.1-0.3,0.1-0.6,0c-0.2-0.1-0.4-0.2-0.7-0.5l-3.6-2.7
		c-0.4-0.3-0.6-0.5-0.7-0.7c-0.1-0.2,0-0.4,0.2-0.7l5.9-10.7c0.3-0.5,0.7-0.5,1.2-0.2c0.4,0.2,0.7,0.4,0.8,0.6
		c0.1,0.1,0.1,0.3,0.1,0.5c-0.1,0.7,0.3,1.4,1.2,1.9l19.4,10.7c0.4,0.2,0.8,0.2,1.2-0.1c0.3-0.3,0.6-0.4,0.8-0.4
		c0.2,0,0.5,0.1,0.9,0.4c0.5,0.3,0.8,0.5,0.8,0.6c0.1,0.1,0,0.3-0.1,0.6l-4.2,7.5c-0.2,0.3-0.3,0.4-0.5,0.5c-0.2,0-0.6-0.1-1.2-0.5
		c-0.4-0.2-0.6-0.4-0.7-0.5s-0.1-0.4,0-0.7c0.1-0.6-0.1-1.1-0.6-1.4L410.6,332.7z"/>
	<path id="XMLID_219_" class="st1" d="M402.7,345.7l-0.6,0.9c-0.3,0.5-0.3,0.9-0.1,1.4c0.2,0.5,0.9,1.3,2,2.5
		c0.4,0.5,0.6,0.8,0.6,1.1c0,0.2-0.1,0.6-0.4,1c-0.3,0.5-0.5,0.7-0.7,0.8c-0.2,0.1-0.4,0.1-0.6-0.1c-0.1-0.1-0.4-0.3-0.7-0.5l-3.4-3
		c-0.3-0.3-0.5-0.6-0.6-0.7c-0.1-0.2,0-0.4,0.2-0.7l6.7-10.3c0.3-0.4,0.7-0.5,1.2-0.1c0.4,0.3,0.7,0.5,0.7,0.6
		c0.1,0.1,0.1,0.3,0,0.5c-0.2,0.7,0.2,1.4,1.1,2l18.5,12.1c0.4,0.3,0.8,0.2,1.2,0c0.3-0.2,0.6-0.3,0.8-0.3c0.2,0,0.5,0.2,0.9,0.4
		c0.5,0.3,0.7,0.5,0.8,0.6c0.1,0.1,0,0.3-0.2,0.6l-4.7,7.2c-0.2,0.3-0.4,0.4-0.6,0.4c-0.2,0-0.6-0.2-1.2-0.5
		c-0.3-0.2-0.6-0.4-0.6-0.6c-0.1-0.1-0.1-0.4,0-0.7c0.2-0.6,0-1.1-0.5-1.5L402.7,345.7z"/>
	<path id="XMLID_221_" class="st1" d="M408.8,382.7c0,0.1,0.1,0.4,0.2,1c0.1,0.4,0,0.7-0.2,1c-0.1,0.1-0.3,0.3-0.8,0.7
		c-0.2,0-0.4-0.1-0.8-0.3l-5.5-3.3c-0.3-0.2-0.5-0.3-0.5-0.3c-0.2-0.2-0.3-0.3-0.2-0.4s0.2-0.4,0.6-0.9c0.4-0.5,0.7-0.8,1-0.8
		c0.2,0,1,0.1,2.2,0.5c2.6,0.8,4.2,0.8,4.8,0.1c0.4-0.5,0.3-1-0.4-1.6c-0.8-0.7-3.1-1.3-6.7-1.9c-4.2-0.7-7.1-1.3-8.8-1.9
		c-1.7-0.5-3.3-1.5-4.8-2.8c-1.8-1.5-2.9-3.2-3.1-4.8s0.1-3.1,1-4.2c0.6-0.7,1.3-1.2,2.2-1.5c0.4-0.1,0.6-0.3,0.7-0.4
		c0.1-0.1,0.1-0.3,0-0.5c-0.2-0.5-0.1-1,0.4-1.6c0.2-0.2,0.4-0.4,0.5-0.4c0.1,0,0.4,0.1,0.7,0.3l5.4,3.3c0.7,0.4,1.1,0.6,1.1,0.7
		c0.3,0.2,0.2,0.6-0.2,1.1c-0.6,0.7-1,1-1.3,1c-0.3,0-0.8-0.2-1.7-0.5c-3-1.1-4.9-1.2-5.6-0.4c-0.3,0.3-0.4,0.7-0.3,1.1
		c0.1,0.4,0.3,0.7,0.6,1c0.6,0.5,1.5,0.9,2.7,1.1s2.6,0.5,4.1,0.7c3.7,0.5,6.5,1.1,8.5,1.7c2,0.6,3.7,1.5,5.2,2.8
		c1.7,1.4,2.7,2.9,3.1,4.5c0.4,1.6,0.1,2.9-0.8,4C411.4,381.6,410.4,382.2,408.8,382.7z"/>
	<path id="XMLID_223_" class="st1" d="M399.7,391l0.6-0.6c0.2-0.2,0.2-0.5,0.1-0.9c-0.1-0.4-0.7-1.2-1.7-2.5c-0.4-0.6-0.7-1-0.7-1.2
		s0.2-0.6,0.6-1c0.4-0.4,0.7-0.6,0.9-0.6c0.2,0,0.4,0.1,0.7,0.4c0.2,0.2,0.3,0.3,0.5,0.5l3,3.2c0.3,0.4,0.5,0.7,0.5,0.9
		c0,0.2-0.2,0.5-0.6,1l-9.6,9.8c-0.3,0.3-0.5,0.4-0.6,0.4c-0.1,0-0.4-0.2-0.9-0.6l-3-2.5c-0.2-0.2-0.5-0.4-0.7-0.6
		c-0.3-0.3-0.4-0.5-0.5-0.7c-0.1-0.2,0.1-0.5,0.4-0.8c0.4-0.5,0.8-0.7,1-0.7s0.6,0.1,1.1,0.5c0.9,0.6,1.7,1.1,2.4,1.4
		c0.7,0.3,1.1,0.3,1.4,0.1l0.4-0.4l-17.1-16.7c-0.5-0.5-1-0.6-1.6-0.3c-0.3,0.1-0.5,0.1-0.6,0.1s-0.4-0.3-0.8-0.6
		c-0.5-0.4-0.7-0.7-0.7-0.9s0.1-0.4,0.4-0.7l5.7-5.9c0.2-0.2,0.4-0.3,0.6-0.3c0.2,0,0.4,0.2,0.9,0.6c0.5,0.5,0.7,0.9,0.5,1.3
		c-0.2,0.4-0.2,0.6-0.2,0.8s0.2,0.4,0.4,0.6L399.7,391z"/>
	<path id="XMLID_225_" class="st1" d="M369.6,390l3.5-3.1l-1-1.4c0,0-0.1-0.1-0.1-0.2c-0.2-0.3-0.3-0.6-0.5-0.8
		c-0.3-0.3-0.8-0.4-1.4-0.3c-0.3,0.1-0.6,0.1-0.8,0c-0.2-0.1-0.4-0.3-0.6-0.6c-0.3-0.4-0.5-0.6-0.5-0.8c0-0.1,0-0.2,0.2-0.4l3.7-3.2
		c0.2-0.2,0.5-0.1,0.9,0.4c0.4,0.5,0.6,1.1,0.6,1.7c-0.1,0.6,0,1,0.3,1.4l11.8,18.8c0.2,0.3,0.3,0.5,0.5,0.7
		c0.3,0.3,0.7,0.4,1.3,0.2c0.3-0.1,0.6,0.1,0.9,0.5c0.5,0.5,0.7,0.9,0.8,1s0,0.4-0.3,0.6l-5.4,4.7c-0.3,0.3-0.7,0.3-1.1,0.1
		c-0.4-0.2-1.1-0.8-2.2-1.7c-0.4-0.4-0.8-0.7-1.2-1l-15.8-13.4c-0.8-0.7-1.5-1-2.3-1c-0.2,0-0.4,0-0.5,0c-0.1,0-0.3-0.2-0.5-0.5
		c-0.4-0.5-0.6-0.8-0.7-1s0.1-0.3,0.3-0.5l6.2-5.4c0.2-0.2,0.4-0.1,0.7,0.3c0.4,0.5,0.6,0.8,0.7,0.9s0,0.4-0.1,0.7
		c-0.1,0.5-0.1,0.9,0.2,1.2C367.6,388.3,368.3,388.9,369.6,390z M382.2,401.1l-8-12.4l-3.1,2.7L382.2,401.1z"/>
	<path id="XMLID_228_" class="st1" d="M366.8,422.9l-0.8,0.6c-0.2,0.1-0.4,0.2-0.6,0.1c-0.2-0.1-0.5-0.4-1-0.9l-3.9-4.6
		c-0.1-0.1-0.2-0.2-0.2-0.3c-0.3-0.4-0.4-0.6-0.4-0.9c0-0.2,0.2-0.5,0.6-0.7c0.4-0.3,0.8-0.4,1.2-0.3s0.9,0.5,1.7,1.3
		c2,1.9,3.4,2.5,4.2,2c0.6-0.5,0.4-1.5-0.8-3.1l-12.5-16.9c-0.8-1.1-1.6-1.4-2.2-0.9c-0.8,0.6-0.6,1.9,0.7,3.8
		c0.4,0.6,0.5,1,0.5,1.4c0,0.3-0.3,0.7-0.9,1.1c-0.4,0.3-0.8,0.4-1,0.4s-0.6-0.3-0.9-0.7c-1.1-1.4-1.5-2.9-1.3-4.5
		c0.2-1.6,0.9-2.8,2.2-3.8c1.2-0.9,2.6-1.3,4.1-1.2c1.5,0.1,3.3,0.9,5.5,2.3c2.1,1.4,4.3,3.7,6.5,6.7c2.1,2.9,3.5,5.3,4.2,7.5
		c0.7,2.1,0.9,4,0.7,5.6c-0.2,1.6-0.9,2.8-2.1,3.7c-0.7,0.5-1.5,0.8-2.3,0.8c-0.3,0-0.5,0-0.6,0.1c-0.1,0.1-0.2,0.4-0.2,0.8
		C367.1,422.5,367,422.7,366.8,422.9z"/>
	<path id="XMLID_230_" class="st1" d="M346.7,425.2l-13.4-12.7c-0.5-0.4-0.9-0.6-1.4-0.6c-0.3,0-0.6-0.2-0.9-0.6
		c0-0.1-0.2-0.4-0.5-1c-0.1-0.3,0-0.5,0.4-0.8l6.3-3.9c0.2-0.1,0.4-0.2,0.5-0.2c0.1,0,0.3,0.3,0.5,0.6c0,0.1,0.2,0.3,0.5,0.8
		c0.1,0.2,0,0.4-0.1,0.6c-0.3,0.3-0.3,0.6-0.1,0.9c0,0.1,0.1,0.2,0.2,0.3l7.1,6.7l-0.2-1.5l-4-6.5c-0.3-0.5-0.8-0.8-1.5-0.8
		c-0.3,0-0.5-0.2-0.8-0.6c-0.3-0.5-0.5-0.8-0.5-1.1c0-0.2,0.1-0.4,0.5-0.6l6.7-4.1c0.2-0.1,0.4-0.2,0.6-0.2s0.4,0.3,0.7,0.8
		c0.3,0.5,0.4,0.8,0.4,1c0,0.2-0.1,0.4-0.2,0.6c-0.3,0.4-0.3,0.8-0.1,1.2l11.7,19.1c0.3,0.5,0.7,0.7,1.2,0.7c0.4,0,0.6,0,0.7,0.1
		s0.3,0.3,0.5,0.6c0.4,0.7,0.7,1.2,0.7,1.3c0,0.1-0.1,0.3-0.4,0.4l-7.3,4.4c-0.3,0.2-0.6,0.2-0.8-0.1c-0.5-0.9-0.8-1.4-0.9-1.5
		c0-0.2,0-0.4,0.2-0.7c0.3-0.6,0.4-1.1,0.1-1.5l-5-8.1l1.4,10c0.1,0.5,0.2,0.9,0.3,1.1c0.1,0.1,0.3,0.2,0.7,0.3
		c0.4,0,0.7,0.1,0.8,0.2c0.1,0.1,0.4,0.4,0.7,1c0.3,0.4,0.2,0.7-0.1,0.9l-4.2,2.6c-0.2,0.1-0.4,0.2-0.5,0.1s-0.3-0.3-0.6-0.8
		c-0.3-0.5-0.4-0.8-0.4-0.9c0-0.1,0.1-0.4,0.4-0.8c0.2-0.3,0.3-0.5,0.4-0.6c0-0.1,0-0.3,0-0.6L346.7,425.2z"/>
	<path id="XMLID_232_" class="st1" d="M319.2,438.5l2.6,4.2c0.2,0.4,0.6,0.7,1.2,0.9c0.4,0.1,0.6,0.3,0.7,0.6l0.5,1.2
		c0.1,0.3,0,0.6-0.3,0.7l-7.1,2.9c-0.2,0.1-0.4,0.1-0.5,0c-0.1-0.1-0.2-0.3-0.4-0.7c-0.3-0.6-0.4-1-0.4-1.1c0-0.1,0.1-0.3,0.3-0.6
		c0.3-0.3,0.4-0.6,0.3-0.8c-0.1-0.2-0.3-0.6-0.6-1l-6.5-10.3l2.7,12.3c0,0.1,0.1,0.2,0.1,0.4c0.2,0.5,0.7,0.8,1.4,0.8
		c0.4,0,0.7,0.3,0.9,1c0.1,0.2,0.1,0.3,0.2,0.4l0.1,0.2c0.1,0.3,0,0.5-0.4,0.7l-4,1.6c-0.3,0.1-0.5,0.1-0.6,0.1
		c-0.1-0.1-0.2-0.3-0.4-0.6c0-0.1-0.1-0.2-0.1-0.3l-0.2-0.7c-0.1-0.3,0-0.6,0.3-0.9c0.2-0.3,0.3-0.8,0.2-1.3l-5.2-24.5
		c-0.2-1-0.3-1.6-0.3-1.8c0-0.2,0.2-0.4,0.5-0.5l2.9-1.2c0.3-0.1,0.6,0.1,1,0.7c0.1,0.1,0.1,0.2,0.2,0.3l7.2,11.3l-2.9-13.3
		c-0.1-0.5-0.2-0.9-0.1-1c0-0.1,0.2-0.3,0.4-0.3l3-1.2c0.3-0.1,0.8,0.4,1.5,1.5c0.1,0.2,0.2,0.4,0.3,0.5l13.3,20.6
		c0.3,0.4,0.7,0.7,1.1,0.7c0.4,0,0.7,0.2,0.8,0.6l0.5,1.3c0.1,0.3,0,0.5-0.3,0.6l-6.8,2.8c-0.2,0.1-0.4,0.1-0.6,0s-0.3-0.3-0.5-0.8
		c-0.2-0.5-0.3-0.8-0.3-1c0-0.1,0-0.3,0.1-0.6c0.1-0.3,0.2-0.6,0.1-0.8c-0.1-0.3-0.3-0.6-0.5-0.9l-7-10.8L319.2,438.5z"/>
	<path id="XMLID_234_" class="st1" d="M297.1,453.1l-3-10.2l-1.2,0.4c-0.3,0.1-0.6,0.2-0.7,0.4s-0.1,0.5-0.1,1
		c0.1,0.9,0.1,1.4,0.1,1.6c0,0.2-0.2,0.3-0.3,0.4c-0.9,0.3-1.5,0.4-1.6,0.4c-0.1,0-0.3-0.3-0.5-0.8l-1.7-6c-0.1-0.4-0.1-0.6,0-0.8
		s0.4-0.3,1.1-0.5c0.4-0.1,0.7-0.1,0.9,0c0.2,0.1,0.4,0.5,0.8,1.1c0.3,0.6,0.6,0.9,0.7,1.1c0.2,0.1,0.4,0.1,0.6,0l1.4-0.4l-3.6-12.3
		l-0.9,0.3c-0.6,0.2-0.9,0.5-1.1,0.8c-0.1,0.4-0.2,1.4-0.2,3.1c0,0.7-0.1,1.2-0.2,1.5c-0.2,0.3-0.5,0.5-1,0.6
		c-0.7,0.2-1.2,0.1-1.3-0.4c0-0.1-0.1-0.4-0.1-0.6l-0.5-4.3c-0.1-0.8-0.1-1.2-0.1-1.4c0-0.2,0.3-0.3,0.7-0.4l11.9-3.5
		c0.3-0.1,0.5-0.1,0.6,0c0.1,0.1,0.3,0.5,0.5,1.2c0.1,0.4,0,0.8-0.4,1.1c-0.6,0.5-0.8,0.9-0.7,1.4l6.5,22.3c0.1,0.2,0.4,0.4,1,0.4
		c0.4,0.1,0.7,0.1,0.8,0.3s0.2,0.5,0.4,1c0.1,0.5,0.2,0.8,0.1,0.9c0,0.1-0.2,0.2-0.6,0.3l-11.4,3.3c-0.3,0.1-0.5,0.1-0.7,0
		c-0.2-0.1-0.3-0.3-0.5-0.6l-2.3-4.4c-0.1-0.2-0.2-0.4-0.2-0.5c-0.1-0.3,0.1-0.6,0.7-0.7c0.6-0.2,1.1-0.2,1.4-0.2s0.6,0.4,1,0.9
		c0.7,1,1.2,1.6,1.6,2c0.4,0.3,0.8,0.5,1.1,0.4L297.1,453.1z"/>
	<path id="XMLID_236_" class="st1" d="M273.2,447.8c-2.4-0.3-4.1-1-5.2-2c-1.1-1-1.8-2.5-2.2-4.5c-0.6-3.1-0.3-5.5,1-7.4
		c1.2-1.8,3.5-3.1,6.7-3.7l8.9-1.8c0.4-0.1,0.6,0.1,0.7,0.5l0.2,1.1c0.1,0.3-0.1,0.6-0.4,0.8c-0.6,0.5-0.9,1-0.8,1.7l4.4,22.1
		c0.1,0.3,0.2,0.5,0.3,0.6s0.4,0.2,1,0.3c0.3,0.1,0.4,0.2,0.5,0.3c0.1,0.1,0.2,0.5,0.3,1c0.1,0.5,0.1,0.8,0,1s-0.3,0.3-0.6,0.4
		l-10,2c-2.4,0.5-4.4,0.2-5.9-0.7c-1.5-1-2.5-2.4-2.9-4.3c-0.3-1.6-0.1-3,0.7-4.3S271.8,448.5,273.2,447.8z M277.8,445.8l-2.7-13.7
		c-1.1,0.2-1.8,0.5-2.2,0.9c-0.3,0.4-0.4,1-0.3,1.9s0.4,2.4,0.8,4.6c0.1,0.4,0.3,1.4,0.6,3c0.3,1.5,0.6,2.5,0.8,2.8
		c0.2,0.3,0.4,0.5,0.7,0.6c0.3,0.1,0.7,0.1,1.3,0L277.8,445.8z M280.1,457.5l-1.9-9.6l-1,0.2c-0.6,0.1-1.1,0.4-1.3,0.8
		c-0.3,0.4-0.4,1.1-0.3,1.9s0.3,1.9,0.5,3.1c0.3,1.8,0.7,2.9,1.2,3.3c0.4,0.5,1,0.6,1.8,0.5L280.1,457.5z"/>
	<path id="XMLID_240_" class="st1" d="M253,437.6l1.1,22.6c0,0.2,0.3,0.4,0.7,0.5c0.3,0.1,0.6,0.2,0.7,0.4c0.1,0.2,0.2,0.6,0.2,1.2
		c0,0.5,0,0.8-0.2,0.9c-0.2,0.2-0.6,0.3-1.2,0.3l-8.9,0.5c-2.5,0.1-4.7-0.9-6.5-3.2c-1.8-2.3-2.8-6.1-3.1-11.6
		c-0.3-5,0.4-8.7,1.9-11.3c1.5-2.5,3.6-3.9,6.2-4l9.8-0.5c0.3,0,0.5,0,0.6,0.2s0.2,0.4,0.2,0.9c0,0.5,0,0.9,0,1
		c0,0.1-0.2,0.3-0.5,0.5C253.3,436.3,253,436.9,253,437.6z M247.3,461.7l-1.3-25.8l-1,0.1c-0.7,0-1.2,0.3-1.5,0.9
		c-0.3,0.6-0.4,1.6-0.3,3.1l1,19c0,0.8,0.3,1.5,0.7,2c0.4,0.5,1,0.7,1.7,0.7L247.3,461.7z"/>
	<path id="XMLID_243_" class="st1" d="M224.6,461.8l0.4-10.6l-1.3,0c-0.3,0-0.6,0.1-0.8,0.2c-0.2,0.1-0.3,0.5-0.4,1
		c-0.2,0.9-0.3,1.4-0.4,1.6c-0.1,0.2-0.2,0.3-0.4,0.2c-1,0-1.5-0.1-1.7-0.2c-0.1-0.1-0.2-0.4-0.2-0.9l0.2-6.2c0-0.4,0.1-0.6,0.2-0.7
		s0.5-0.2,1.2-0.1c0.4,0,0.7,0.1,0.8,0.3c0.1,0.2,0.3,0.6,0.4,1.3c0.1,0.7,0.2,1.1,0.4,1.2s0.3,0.2,0.6,0.2l1.5,0.1l0.5-12.8l-1,0
		c-0.6,0-1,0.1-1.3,0.5c-0.2,0.3-0.6,1.3-1.2,2.9c-0.2,0.7-0.5,1.1-0.7,1.3s-0.6,0.3-1.2,0.3c-0.8,0-1.1-0.3-1.1-0.8
		c0-0.1,0-0.4,0.1-0.6l0.8-4.2c0.2-0.8,0.3-1.2,0.4-1.4s0.3-0.2,0.8-0.2l12.4,0.5c0.3,0,0.5,0.1,0.6,0.2c0.1,0.1,0.1,0.6,0.1,1.2
		c0,0.4-0.3,0.7-0.7,0.9c-0.7,0.3-1,0.6-1.1,1.1l-0.8,23.2c0,0.2,0.3,0.5,0.8,0.7c0.4,0.2,0.6,0.3,0.6,0.5s0.1,0.5,0.1,1.1
		c0,0.5-0.1,0.8-0.1,0.9c-0.1,0.1-0.3,0.1-0.7,0.1l-11.9-0.4c-0.3,0-0.5-0.1-0.6-0.2c-0.1-0.1-0.2-0.3-0.3-0.7l-0.8-4.8
		c0-0.3-0.1-0.4-0.1-0.5c0-0.3,0.3-0.5,0.9-0.5c0.7,0,1.1,0.1,1.3,0.3c0.2,0.2,0.4,0.6,0.6,1.2c0.3,1.1,0.6,1.9,0.9,2.4
		s0.6,0.7,0.9,0.7L224.6,461.8z"/>
	<path id="XMLID_245_" class="st1" d="M206.9,444.1l-4.6,14c0,0.1-0.1,0.2-0.1,0.4c-0.1,0.5,0.2,0.9,0.8,1.3
		c0.4,0.2,0.5,0.5,0.5,0.6c0,0.1,0,0.2,0,0.3l0,0.3c-0.1,0.6-0.1,0.9-0.2,1c-0.1,0.1-0.2,0.2-0.5,0.2l-4.6-0.5
		c-0.2,0-0.3-0.1-0.4-0.2s0-0.4,0-0.9c0.1-0.6,0.1-0.9,0.2-1.1c0-0.1,0.1-0.2,0.3-0.3c0.4-0.2,0.7-0.4,0.8-0.6
		c0.1-0.2,0.3-0.6,0.5-1.3l7.7-23.5l0.5-1.4c0-0.1,0.2-0.2,0.4-0.2l3.7,0.4c0.2,0,0.3,0.1,0.3,0.3c0.1,0.2,0.1,0.7,0.2,1.5l1.9,25.2
		c0,0.6,0.3,1.1,0.7,1.5c0.2,0.2,0.4,0.3,0.4,0.4c0,0.1,0.1,0.3,0,0.5c0,0.1,0,0.2,0,0.3c0,0.1,0,0.3-0.1,0.4c0,0.1,0,0.2,0,0.2
		l0,0.3c0,0.4-0.2,0.6-0.5,0.6l-8.4-1c-0.3,0-0.4-0.3-0.3-0.8c0,0,0.1-0.4,0.2-1.1c0-0.2,0.2-0.3,0.4-0.4c0.6-0.2,0.9-0.6,1-1.1
		c0-0.1,0-0.3,0-0.5L206.9,444.1z"/>
	<path id="XMLID_247_" class="st1" d="M187.2,457.1l2.1-10.4l-1.2-0.3c-0.3-0.1-0.6,0-0.8,0.1c-0.2,0.1-0.4,0.4-0.6,0.9
		c-0.3,0.8-0.5,1.3-0.7,1.5c-0.1,0.2-0.3,0.2-0.5,0.2c-1-0.2-1.5-0.3-1.6-0.5s-0.1-0.4,0-1l1.2-6.1c0.1-0.4,0.2-0.6,0.3-0.7
		c0.1-0.1,0.5-0.1,1.2,0.1c0.4,0.1,0.7,0.2,0.8,0.4c0.1,0.2,0.2,0.6,0.1,1.4c0,0.7,0.1,1.1,0.2,1.3c0.1,0.2,0.3,0.3,0.5,0.3l1.4,0.3
		l2.6-12.6l-1-0.2c-0.6-0.1-1,0-1.3,0.3c-0.3,0.3-0.9,1.2-1.7,2.7c-0.3,0.6-0.6,1-0.9,1.2c-0.3,0.2-0.7,0.2-1.2,0.1
		c-0.8-0.2-1.1-0.5-1-1c0-0.1,0.1-0.4,0.2-0.6l1.5-4c0.3-0.7,0.5-1.2,0.6-1.3c0.1-0.1,0.4-0.2,0.8-0.1l12.2,2.5
		c0.3,0.1,0.5,0.2,0.5,0.3c0.1,0.2,0,0.6-0.1,1.2c-0.1,0.4-0.4,0.7-0.8,0.8c-0.7,0.1-1.1,0.5-1.2,0.9l-4.7,22.8
		c0,0.2,0.2,0.5,0.7,0.9c0.3,0.2,0.5,0.4,0.6,0.6c0,0.2,0,0.5-0.1,1.1c-0.1,0.5-0.2,0.8-0.3,0.8s-0.3,0.1-0.7,0l-11.7-2.4
		c-0.3-0.1-0.5-0.2-0.6-0.3c-0.1-0.1-0.2-0.4-0.2-0.8l0-4.9c0-0.3,0-0.4,0-0.5c0.1-0.3,0.4-0.4,1-0.3c0.7,0.1,1.1,0.3,1.3,0.5
		c0.2,0.2,0.3,0.6,0.4,1.3c0.2,1.2,0.3,2,0.5,2.5c0.2,0.5,0.4,0.8,0.8,0.8L187.2,457.1z"/>
	<path id="XMLID_249_" class="st1" d="M177.4,428.2l-1-0.3c-0.5-0.2-1-0.1-1.3,0.3s-1,1.2-1.8,2.6c-0.3,0.5-0.6,0.9-0.8,0.9
		c-0.2,0.1-0.6,0-1.1-0.1c-0.5-0.2-0.9-0.3-1-0.4c-0.1-0.1-0.2-0.3-0.1-0.6c0-0.2,0.2-0.4,0.3-0.8l1.9-4.1c0.2-0.4,0.4-0.7,0.5-0.8
		c0.2-0.1,0.4-0.1,0.8,0l11.8,3.4c0.5,0.1,0.7,0.5,0.5,1.1c-0.1,0.5-0.3,0.8-0.4,0.9c-0.1,0.1-0.3,0.2-0.5,0.2
		c-0.7,0-1.3,0.6-1.6,1.6l-6.1,21.3c-0.1,0.4,0,0.8,0.4,1.1c0.3,0.3,0.5,0.5,0.5,0.7c0,0.2,0,0.5-0.1,1c-0.2,0.5-0.3,0.8-0.4,0.9
		c-0.1,0.1-0.3,0.1-0.6,0l-8.3-2.4c-0.3-0.1-0.5-0.2-0.6-0.4c-0.1-0.2,0-0.6,0.2-1.3c0.1-0.4,0.2-0.7,0.3-0.8
		c0.1-0.1,0.4-0.2,0.7-0.2c0.7,0,1.1-0.3,1.2-0.9L177.4,428.2z"/>
	<path id="XMLID_251_" class="st1" d="M151.6,449.5c-1.7-0.7-3-1.8-3.8-3.4s-1.2-3.6-1.2-6.1s0.7-5.3,1.9-8.6c1.5-4,3.6-7,6.2-9.2
		c2.6-2.1,5.3-2.7,8.1-1.6c2.7,1,4.2,3.2,4.8,6.4s0,7-1.7,11.2c-1.7,4.3-3.8,7.5-6.4,9.6S154.3,450.6,151.6,449.5z M151.8,444.9
		c-0.6,1.5-0.4,2.4,0.6,2.7c0.4,0.2,0.8,0.1,1.2-0.2s0.7-0.6,0.9-1.2l8.1-21c0.3-0.7,0.3-1.3,0.2-1.8c-0.1-0.5-0.4-0.8-0.8-0.9
		c-0.4-0.2-0.9-0.1-1.3,0.2c-0.4,0.3-0.7,0.7-0.9,1.2L151.8,444.9z"/>
	<path id="XMLID_254_" class="st1" d="M140.8,422.6l2.8-5.5c0.3-0.6,0.3-1.2-0.2-1.7c-0.2-0.2-0.3-0.5-0.4-0.7c0-0.2,0.1-0.6,0.3-1
		c0.2-0.4,0.4-0.7,0.6-0.7c0.2,0,0.4,0,0.8,0.2l7.5,3.8c0.4,0.2,0.4,0.7,0.1,1.4c-0.3,0.6-0.5,0.9-0.6,1c-0.1,0.1-0.4,0.1-0.7,0.1
		c-0.3-0.1-0.6-0.1-0.7,0c-0.1,0.1-0.3,0.2-0.4,0.5l-10.1,20.1c-0.2,0.5-0.1,1,0.3,1.6c0.2,0.3,0.3,0.7,0.1,1l-0.4,0.8
		c-0.2,0.3-0.3,0.5-0.5,0.6c-0.1,0.1-0.3,0-0.6-0.1l-8.5-4.3c-2.5-1.2-4-3-4.7-5.3c-0.7-2.3-0.3-4.8,1.1-7.6
		c0.8-1.6,1.7-2.8,2.8-3.8s2.1-1.6,3.1-1.8c1-0.2,2-0.3,3.1-0.2c1.1,0.1,2.1,0.4,3.1,0.9L140.8,422.6z M132.8,438.5l7-14l-1.2-0.6
		c-0.4-0.2-0.9-0.2-1.4,0.1c-0.5,0.3-1.1,0.9-1.6,2l-4.2,8.3c-0.9,1.9-0.8,3.1,0.5,3.7L132.8,438.5z"/>
	<path id="XMLID_257_" class="st1" d="M113.2,427.3l5.6-9.1l-1.1-0.7c-0.3-0.2-0.6-0.3-0.8-0.2c-0.2,0-0.5,0.3-0.8,0.6
		c-0.6,0.7-1,1.1-1.1,1.2s-0.3,0.1-0.5,0c-0.8-0.5-1.3-0.8-1.4-1s0-0.4,0.3-0.9l3.3-5.3c0.2-0.3,0.4-0.5,0.6-0.5s0.5,0.1,1.1,0.5
		c0.4,0.2,0.6,0.4,0.6,0.6c0,0.2-0.1,0.7-0.3,1.3c-0.2,0.6-0.3,1-0.3,1.2c0,0.2,0.2,0.4,0.4,0.5l1.2,0.8l6.8-10.9l-0.8-0.5
		c-0.5-0.3-1-0.4-1.3-0.2c-0.4,0.2-1.2,0.8-2.5,1.9c-0.5,0.5-1,0.7-1.3,0.8c-0.3,0.1-0.7-0.1-1.2-0.4c-0.7-0.4-0.9-0.8-0.6-1.2
		c0.1-0.1,0.2-0.3,0.4-0.5l2.8-3.2c0.5-0.6,0.8-0.9,1-1c0.2-0.1,0.4,0,0.8,0.2l10.6,6.6c0.3,0.2,0.4,0.3,0.4,0.5
		c0,0.2-0.2,0.5-0.5,1.1c-0.2,0.4-0.6,0.5-1.1,0.5c-0.7-0.1-1.2,0-1.5,0.5l-12.3,19.8c-0.1,0.2,0,0.6,0.3,1c0.2,0.3,0.3,0.6,0.3,0.7
		c0,0.2-0.2,0.5-0.5,1c-0.3,0.4-0.4,0.6-0.6,0.7c-0.1,0-0.3,0-0.6-0.2l-10.1-6.3c-0.3-0.2-0.4-0.3-0.5-0.5c-0.1-0.2,0-0.4,0.1-0.8
		l1.7-4.6c0.1-0.2,0.2-0.4,0.2-0.5c0.2-0.3,0.5-0.3,1,0c0.6,0.4,0.9,0.7,1,0.9s0.1,0.7-0.1,1.3c-0.3,1.2-0.4,2-0.4,2.5
		c0,0.5,0.2,0.9,0.5,1L113.2,427.3z"/>
	<path id="XMLID_259_" class="st1" d="M107.2,405.5l5.6-7.4c0.3-0.3,0.4-0.6,0.5-0.8c0-0.2,0-0.4-0.1-0.7c-0.1-0.4-0.1-0.8,0.2-1.1
		c0.4-0.6,0.8-0.9,1-1c0.2-0.1,0.4,0,0.7,0.2l6.3,4.7c0.4,0.3,0.3,0.7,0,1.2c-0.4,0.5-0.6,0.8-0.8,0.9c-0.1,0.1-0.3,0.1-0.5,0.1
		c-0.7-0.2-1.3,0-1.8,0.7l-13.1,17.5c-0.5,0.6-0.5,1.2-0.2,1.7c0.2,0.3,0.3,0.4,0.3,0.6c0,0.1-0.1,0.4-0.4,0.8
		c-0.6,0.8-1.1,1-1.5,0.7l-8.3-6.2c-1.6-1.2-2.6-2.9-3-5.1c-0.4-2.2,0.2-4.3,1.8-6.4c2.2-3,5.2-3.8,8.9-2.4
		c-2.3-2.7-2.4-5.5-0.2-8.3l2.7-3.6c0.2-0.3,0.3-0.6,0.2-0.9c-0.1-0.4-0.1-0.8,0.2-1.1c0.4-0.6,0.7-0.9,0.9-1c0.2-0.1,0.4,0,0.7,0.3
		l4,3c0.5,0.4,0.7,0.9,0.6,1.7c-0.1,0.8-0.4,1.6-1,2.4l-4.5,6c-0.9,1.2-0.7,2.2,0.5,3.1L107.2,405.5z M98.4,417.3l7.5-10.1l-1-0.7
		c-1-0.7-2.2-0.1-3.7,1.9l-3.6,4.8c-0.6,0.8-0.9,1.5-0.9,2.1c0.1,0.6,0.4,1.1,1.1,1.6L98.4,417.3z"/>
	<path id="XMLID_262_" class="st1" d="M84.1,390.7c-0.8-0.8-1.3-1.8-1.3-3c0-1.2,0.4-2.2,1.2-3.1c0.8-0.9,1.8-1.3,3-1.3
		c1.2,0,2.2,0.4,3,1.2c0.8,0.8,1.3,1.8,1.3,3c0,1.2-0.4,2.2-1.2,3.1c-0.8,0.9-1.8,1.3-3,1.3S85,391.5,84.1,390.7z"/>
	<path id="XMLID_264_" class="st1" d="M68.6,371.5l8.7-7.3c0.4-0.4,0.5-0.9,0.2-1.6c-0.2-0.3-0.2-0.6-0.2-0.7s0.2-0.4,0.6-0.7
		c0.5-0.4,0.9-0.7,1-0.7c0.2,0,0.4,0.2,0.6,0.5l5.5,6.5c0.3,0.4,0.4,0.7,0.4,0.9c-0.1,0.2-0.3,0.5-0.8,0.9c-0.3,0.3-0.5,0.4-0.6,0.4
		c-0.1,0-0.4-0.1-0.7-0.2c-0.4-0.2-0.8-0.3-0.9-0.3c-0.2,0-0.4,0.1-0.6,0.3L64.5,384c-0.2,0.2-0.4,0.4-0.4,0.6s0,0.5,0.1,1
		c0.1,0.3,0,0.6-0.4,0.9c0,0-0.3,0.2-0.6,0.5c-0.4,0.3-0.8,0.2-1.2-0.2l-7.5-8.9c-0.2-0.3-0.3-0.5-0.3-0.7c0-0.2,0.1-0.4,0.4-0.8
		c0-0.1,0.1-0.1,0.2-0.2l2.6-3.3c0.2-0.2,0.3-0.4,0.5-0.5c0.3-0.3,0.6-0.2,1,0.3c0.5,0.6,0.7,1.1,0.6,1.4c-0.1,0.3-0.5,1.1-1.1,2.1
		c-0.4,0.7-0.6,1.2-0.6,1.5c0,0.4,0.1,0.7,0.5,1.1c0.1,0.1,0.3,0.3,0.6,0.6l8.2-6.8l-0.6-0.7c-0.3-0.4-0.6-0.6-0.9-0.6
		s-0.7,0.1-1.2,0.4c-0.6,0.3-0.9,0.5-1.1,0.5c-0.2,0-0.5-0.2-1-0.8c-0.3-0.4-0.5-0.6-0.5-0.8s0.1-0.3,0.3-0.5l5.2-4.3
		c0.2-0.2,0.4-0.3,0.5-0.2c0.1,0,0.4,0.2,0.7,0.6c0.4,0.5,0.6,0.9,0.5,1.1c-0.1,0.3-0.4,0.7-0.9,1.3c-0.6,0.6-0.6,1.2-0.1,1.8
		L68.6,371.5z"/>
	<path id="XMLID_266_" class="st1" d="M51,373.6l-4.7-6.6c-0.2-0.2-0.2-0.4-0.2-0.5c0.1-0.1,0.3-0.4,0.8-0.7
		c0.5-0.4,0.9-0.4,1.3-0.3c0.3,0.1,0.5,0.2,0.7,0.2c0.2,0,0.5-0.2,0.8-0.4l17-12.2c0.5-0.3,0.7-0.7,0.8-1.2c0.1-0.5,0-0.9-0.3-1.3
		c-0.3-0.4-0.7-0.6-1.2-0.6s-1,0.1-1.4,0.4l-17,12.2c-0.3,0.2-0.5,0.4-0.6,0.5c-0.1,0.1-0.1,0.4-0.1,0.7c0,0.5-0.3,1-0.9,1.4
		c-0.4,0.3-0.7,0.4-0.9,0.4s-0.3-0.1-0.4-0.3l-2.3-3.3c-0.3-0.4-0.2-0.7,0.2-0.9l0.7-0.5c0.3-0.2,0.5-0.4,0.7-0.4
		c0.1,0,0.3,0,0.5,0.2c0.5,0.4,1,0.4,1.5,0l16.6-11.8c1.6-1.1,3.1-1.6,4.7-1.3c1.6,0.2,2.9,1.2,4.1,2.8c1.3,1.8,1.8,3.5,1.5,5.2
		c-0.3,1.6-1.4,3.1-3.2,4.4l-16,11.4c-0.4,0.3-0.6,0.8-0.5,1.3c0.1,0.3,0.1,0.5,0,0.6c-0.1,0.1-0.2,0.3-0.5,0.5
		c-0.6,0.4-1,0.6-1.2,0.7C51.4,374.1,51.2,374,51,373.6z"/>
	<path id="XMLID_268_" class="st1" d="M60.3,337.4l-0.5-0.9c-0.3-0.5-0.7-0.7-1.2-0.7c-0.5,0-1.5,0.2-3.1,0.7
		c-0.6,0.2-1,0.2-1.2,0.1c-0.2-0.1-0.5-0.4-0.7-0.8c-0.3-0.5-0.4-0.8-0.4-1c0-0.2,0.1-0.3,0.3-0.5c0.1-0.1,0.4-0.2,0.8-0.4l4.2-1.7
		c0.4-0.2,0.7-0.2,0.9-0.2c0.2,0,0.4,0.2,0.6,0.5l6.3,10.5c0.3,0.4,0.1,0.8-0.4,1.2c-0.4,0.3-0.7,0.4-0.9,0.4
		c-0.2,0-0.3-0.1-0.5-0.2c-0.6-0.5-1.3-0.5-2.2,0.1l-19,11.5c-0.4,0.2-0.6,0.6-0.5,1.1c0.1,0.4,0,0.7-0.1,0.9
		c-0.1,0.2-0.4,0.4-0.8,0.6c-0.5,0.3-0.8,0.4-0.9,0.4c-0.2,0-0.3-0.1-0.5-0.4l-4.4-7.4c-0.2-0.3-0.2-0.5-0.1-0.7
		c0.1-0.2,0.4-0.4,1-0.8c0.4-0.2,0.6-0.3,0.8-0.3s0.4,0.1,0.7,0.3c0.5,0.4,1,0.5,1.5,0.2L60.3,337.4z"/>
	<path id="XMLID_270_" class="st1" d="M53.1,324.1l-0.5-0.9c-0.2-0.5-0.6-0.8-1.1-0.8c-0.5,0-1.6,0.1-3.2,0.4c-0.6,0.1-1,0.1-1.2,0
		s-0.4-0.4-0.7-0.9c-0.3-0.5-0.4-0.8-0.4-1s0.1-0.3,0.3-0.4c0.2-0.1,0.4-0.2,0.8-0.3l4.3-1.4c0.4-0.1,0.8-0.2,0.9-0.2
		s0.4,0.2,0.5,0.5l5.5,11c0.2,0.5,0.1,0.8-0.5,1.1c-0.4,0.2-0.7,0.3-0.9,0.3c-0.2,0-0.3-0.1-0.5-0.2c-0.5-0.5-1.3-0.6-2.2-0.1
		l-19.8,10c-0.4,0.2-0.6,0.6-0.6,1c0,0.4,0,0.7-0.2,0.9c-0.1,0.2-0.4,0.4-0.8,0.6c-0.5,0.2-0.8,0.4-1,0.4c-0.1,0-0.3-0.2-0.4-0.4
		l-3.9-7.7c-0.1-0.3-0.2-0.5-0.1-0.7c0.1-0.2,0.4-0.4,1-0.7c0.4-0.2,0.6-0.3,0.8-0.3c0.2,0,0.4,0.1,0.6,0.4c0.5,0.5,1,0.6,1.5,0.3
		L53.1,324.1z"/>
	<path id="XMLID_272_" class="st1" d="M18,310.8c-0.1,0-0.4-0.2-1-0.3c-0.4-0.1-0.6-0.3-0.8-0.7c0-0.1-0.1-0.4-0.2-1
		c0.1-0.2,0.3-0.3,0.6-0.5l5.6-3.1c0.3-0.2,0.5-0.3,0.5-0.3c0.2-0.1,0.4-0.1,0.5,0c0.1,0.1,0.3,0.4,0.5,0.9c0.2,0.6,0.3,1,0.2,1.2
		c-0.1,0.2-0.6,0.8-1.5,1.7c-2,1.9-2.8,3.3-2.5,4.1c0.2,0.6,0.7,0.7,1.5,0.4c1-0.4,2.7-2,5-4.8c2.7-3.3,4.7-5.5,6-6.7
		s2.9-2.1,4.8-2.8c2.3-0.8,4.2-0.9,5.8-0.3c1.6,0.6,2.6,1.6,3.1,2.9c0.3,0.8,0.4,1.7,0.2,2.7c-0.1,0.4-0.1,0.6,0,0.8
		c0.1,0.2,0.2,0.2,0.5,0.2c0.5,0,0.9,0.4,1.2,1.1c0.1,0.3,0.1,0.5,0.1,0.6s-0.3,0.3-0.6,0.5l-5.5,3c-0.7,0.4-1.1,0.6-1.1,0.6
		c-0.3,0.1-0.6-0.1-0.8-0.7c-0.3-0.8-0.4-1.4-0.2-1.6c0.2-0.2,0.6-0.6,1.3-1.2c2.5-2.1,3.5-3.6,3.1-4.7c-0.1-0.4-0.4-0.6-0.8-0.8
		s-0.8-0.1-1.2,0c-0.7,0.3-1.5,0.9-2.3,1.8c-0.8,0.9-1.7,2-2.7,3.2c-2.3,2.9-4.2,5.1-5.7,6.5c-1.5,1.4-3.2,2.5-5,3.1
		c-2.1,0.8-3.9,0.9-5.5,0.5s-2.6-1.3-3.1-2.7C17.6,313.6,17.6,312.4,18,310.8z"/>
	<path id="XMLID_274_" class="st1" d="M15.4,298.7l0.2,0.8c0.1,0.3,0.3,0.4,0.7,0.5c0.4,0.1,1.4,0,3-0.3c0.7-0.1,1.2-0.1,1.4,0
		c0.2,0.1,0.4,0.5,0.6,1c0.1,0.5,0.2,0.9,0.1,1s-0.3,0.3-0.7,0.4c-0.2,0.1-0.4,0.1-0.7,0.2l-4.2,0.9c-0.5,0.1-0.8,0.1-1,0
		c-0.2-0.1-0.4-0.4-0.5-1l-3.7-13.2c-0.1-0.4-0.1-0.6-0.1-0.7c0.1-0.1,0.4-0.3,1-0.5l3.6-1.3c0.3-0.1,0.6-0.2,0.9-0.3
		c0.4-0.1,0.6-0.1,0.9-0.1s0.4,0.3,0.5,0.8c0.2,0.6,0.2,1,0.1,1.2c-0.1,0.2-0.4,0.5-1,0.7c-1,0.5-1.8,0.9-2.4,1.3
		c-0.6,0.4-0.9,0.8-0.8,1.1l0.1,0.5l23.1-6.4c0.7-0.2,1-0.6,1.1-1.2c0-0.3,0.1-0.5,0.3-0.6c0.1-0.1,0.4-0.2,0.9-0.4
		c0.6-0.2,1-0.2,1.1-0.1c0.1,0.1,0.3,0.3,0.4,0.7l2.2,7.9c0.1,0.3,0.1,0.5,0,0.7c-0.1,0.1-0.4,0.3-1,0.4c-0.7,0.2-1.1,0.1-1.4-0.2
		c-0.2-0.3-0.4-0.5-0.6-0.6c-0.2-0.1-0.4,0-0.8,0.1L15.4,298.7z"/>
	<path id="XMLID_276_" class="st1" d="M31.4,273.2l0.9,4.6l1.7-0.1c0,0,0.1,0,0.2,0c0.4,0,0.7,0,1,0c0.4-0.1,0.8-0.4,1-1.1
		c0.1-0.3,0.2-0.6,0.4-0.7c0.2-0.1,0.4-0.2,0.8-0.3c0.5-0.1,0.8-0.1,0.9-0.1c0.1,0,0.2,0.2,0.2,0.4l0.9,4.8c0.1,0.3-0.2,0.5-0.8,0.6
		c-0.7,0.1-1.3,0-1.8-0.3c-0.5-0.3-0.9-0.5-1.3-0.5l-22.2,0.8c-0.3,0-0.6,0-0.9,0.1c-0.4,0.1-0.7,0.4-0.9,1
		c-0.1,0.3-0.4,0.5-0.9,0.6C10,283,9.6,283,9.4,283c-0.2,0-0.3-0.2-0.4-0.5l-1.4-7c-0.1-0.4,0.1-0.8,0.4-1c0.4-0.2,1.2-0.6,2.5-1
		c0.5-0.2,1-0.3,1.5-0.5l19.5-6.9c0.9-0.3,1.6-0.8,2-1.5c0.1-0.2,0.2-0.3,0.3-0.4c0.1-0.1,0.3-0.1,0.7-0.2c0.6-0.1,1-0.2,1.2-0.1
		c0.2,0.1,0.3,0.2,0.3,0.5l1.6,8.1c0,0.2-0.2,0.4-0.6,0.5c-0.6,0.1-1,0.2-1.1,0.1s-0.4-0.2-0.6-0.4c-0.4-0.4-0.7-0.5-1.2-0.4
		C33.9,272.3,32.9,272.6,31.4,273.2z M15.4,278.6l14.7-0.7l-0.8-4.1L15.4,278.6z"/>
	<path id="XMLID_279_" class="st1" d="M4.3,254.3l-0.1-1c0-0.2,0-0.4,0.2-0.5c0.2-0.1,0.6-0.3,1.3-0.4l5.9-1.1c0.1,0,0.2,0,0.4-0.1
		c0.4,0,0.7,0,0.9,0.1c0.2,0.1,0.3,0.4,0.4,0.9c0.1,0.5,0,0.9-0.3,1.2c-0.3,0.2-0.9,0.5-2,0.8c-2.6,0.8-3.9,1.7-3.8,2.6
		c0.1,0.8,1.1,1.1,3,0.8l20.9-2.3c1.4-0.2,2-0.6,1.9-1.5c-0.1-1-1.3-1.5-3.7-1.4c-0.7,0-1.1,0-1.4-0.2c-0.3-0.2-0.5-0.6-0.5-1.3
		c-0.1-0.5,0-0.9,0.2-1.1c0.2-0.2,0.5-0.4,1.1-0.4c1.8-0.2,3.3,0.2,4.6,1.1c1.3,0.9,2,2.2,2.2,3.8c0.2,1.5-0.2,2.9-1,4.2
		c-0.8,1.3-2.4,2.5-4.7,3.6c-2.3,1.1-5.3,1.9-9,2.3c-3.5,0.4-6.4,0.3-8.6-0.1c-2.2-0.5-3.9-1.2-5.2-2.2c-1.3-1-2-2.2-2.1-3.7
		c-0.1-0.9,0.1-1.7,0.5-2.4c0.1-0.3,0.2-0.5,0.2-0.6c0-0.1-0.2-0.3-0.6-0.6C4.5,254.7,4.4,254.5,4.3,254.3z"/>
	<path id="XMLID_281_" class="st1" d="M12.5,235.7l17.7-5.2c0.6-0.2,1-0.5,1.2-1c0.1-0.3,0.5-0.5,1-0.5c0.1,0,0.4,0,1.1,0
		c0.3,0,0.5,0.3,0.5,0.8l0.2,7.4c0,0.3,0,0.5-0.1,0.5c-0.1,0.1-0.4,0.1-0.8,0.1c-0.1,0-0.4,0-1,0c-0.2,0-0.4-0.2-0.5-0.4
		c-0.1-0.4-0.4-0.6-0.7-0.6c-0.1,0-0.2,0-0.3,0l-9.4,2.8l1.4,0.6l7.6-0.2c0.6,0,1.1-0.3,1.4-0.9c0.1-0.2,0.4-0.4,0.9-0.4
		c0.6,0,1,0,1.2,0.1c0.2,0.1,0.3,0.3,0.3,0.7l0.2,7.8c0,0.3,0,0.5-0.2,0.6s-0.5,0.2-1,0.2s-0.9,0-1-0.1c-0.1-0.1-0.3-0.2-0.4-0.5
		c-0.2-0.5-0.5-0.7-1-0.7l-22.4,0.5c-0.6,0-1,0.2-1.2,0.7c-0.2,0.3-0.3,0.5-0.4,0.6C6.6,248.9,6.4,249,6,249c-0.8,0-1.3,0-1.5-0.1
		c-0.1-0.1-0.2-0.2-0.2-0.5l-0.2-8.5c0-0.4,0.1-0.6,0.5-0.6c1,0,1.6,0,1.7,0c0.2,0,0.3,0.2,0.5,0.5c0.3,0.6,0.7,0.9,1.2,0.9l9.6-0.2
		l-9.3-3.8c-0.5-0.2-0.9-0.3-1.1-0.3c-0.2,0-0.3,0.2-0.6,0.5c-0.2,0.3-0.4,0.5-0.6,0.6c-0.2,0.1-0.6,0.1-1.2,0.1
		c-0.5,0-0.7-0.2-0.7-0.5l-0.1-5c0-0.3,0-0.5,0.2-0.5c0.1-0.1,0.4-0.1,1-0.1c0.6,0,0.9,0,1,0.1s0.3,0.3,0.5,0.7
		c0.1,0.3,0.2,0.5,0.3,0.6c0.1,0.1,0.2,0.2,0.5,0.3L12.5,235.7z"/>
	<path id="XMLID_283_" class="st1" d="M14.7,205.2l-4.9,0.2c-0.5,0-0.9,0.2-1.4,0.5c-0.3,0.2-0.6,0.3-0.8,0.3l-1.3-0.2
		c-0.4,0-0.5-0.3-0.5-0.6l1-7.6c0-0.2,0.1-0.4,0.2-0.4s0.4,0,0.8,0c0.7,0.1,1,0.2,1.2,0.3c0.1,0.1,0.2,0.3,0.3,0.5
		c0.1,0.4,0.3,0.6,0.5,0.6c0.3,0,0.6,0,1.2,0l12.2-0.5l-12-3.9c-0.1,0-0.3-0.1-0.4-0.1c-0.6-0.1-1,0.2-1.4,0.8
		c-0.2,0.3-0.6,0.4-1.3,0.3c-0.2,0-0.3,0-0.4,0l-0.2,0c-0.3,0-0.4-0.3-0.4-0.7l0.6-4.2c0-0.3,0.1-0.5,0.2-0.5s0.3-0.1,0.7,0
		c0.1,0,0.2,0,0.3,0.1l0.7,0.2c0.3,0.1,0.5,0.3,0.7,0.7c0.2,0.4,0.5,0.6,1,0.8l23.8,7.8c0.9,0.3,1.5,0.5,1.7,0.7
		c0.2,0.1,0.2,0.4,0.2,0.6l-0.4,3.1c0,0.3-0.4,0.5-1.1,0.5c-0.1,0-0.2,0-0.3,0l-13.4,0.6l12.9,4.1c0.5,0.2,0.8,0.3,0.9,0.4
		c0.1,0.1,0.1,0.3,0.1,0.5l-0.4,3.2c-0.1,0.4-0.7,0.5-2,0.5c-0.2,0-0.4,0-0.5,0l-24.5,1.2c-0.5,0-0.9,0.2-1.2,0.6
		c-0.2,0.3-0.5,0.5-0.9,0.4l-1.4-0.2c-0.3,0-0.4-0.2-0.4-0.6l1-7.3c0-0.2,0.1-0.4,0.3-0.5c0.1-0.1,0.4-0.1,0.9,0
		c0.5,0.1,0.9,0.1,1,0.2c0.1,0.1,0.3,0.2,0.4,0.4c0.2,0.3,0.4,0.4,0.7,0.5c0.3,0,0.6,0,1.1,0l12.8-0.6L14.7,205.2z"/>
	<path id="XMLID_285_" class="st1" d="M13.1,178.9l10.3,2.5l0.3-1.2c0.1-0.3,0.1-0.6,0-0.8c-0.1-0.2-0.4-0.4-0.9-0.6
		c-0.8-0.4-1.3-0.6-1.5-0.7s-0.2-0.3-0.1-0.5c0.2-1,0.4-1.5,0.5-1.6c0.1-0.1,0.4-0.1,1,0l6,1.5c0.4,0.1,0.6,0.2,0.7,0.4
		c0.1,0.1,0.1,0.5-0.1,1.2c-0.1,0.4-0.2,0.7-0.4,0.8c-0.2,0.1-0.6,0.1-1.4,0.1c-0.7,0-1.1,0-1.3,0.1c-0.2,0.1-0.3,0.3-0.4,0.5
		l-0.3,1.4l12.5,3l0.2-1c0.1-0.6,0.1-1-0.2-1.3c-0.3-0.3-1.1-0.9-2.6-1.8c-0.6-0.4-1-0.7-1.1-1c-0.2-0.3-0.2-0.7,0-1.2
		c0.2-0.7,0.5-1.1,1-0.9c0.1,0,0.4,0.1,0.6,0.2l3.9,1.7c0.7,0.3,1.1,0.5,1.3,0.6c0.1,0.1,0.1,0.4,0,0.8l-2.9,12.1
		c-0.1,0.3-0.2,0.5-0.4,0.5c-0.2,0.1-0.6,0-1.2-0.2c-0.4-0.1-0.7-0.4-0.8-0.9c-0.1-0.7-0.4-1.2-0.9-1.3l-22.6-5.5
		c-0.2,0-0.5,0.2-0.9,0.6c-0.2,0.3-0.4,0.5-0.6,0.5c-0.2,0-0.5,0-1.1-0.2c-0.5-0.1-0.7-0.2-0.8-0.3c-0.1-0.1-0.1-0.3,0-0.7l2.8-11.6
		c0.1-0.3,0.2-0.5,0.3-0.6c0.1-0.1,0.4-0.2,0.8-0.1l4.9,0.2c0.3,0,0.4,0,0.5,0c0.3,0.1,0.4,0.4,0.3,1c-0.2,0.7-0.3,1.1-0.5,1.3
		s-0.6,0.3-1.3,0.4c-1.2,0.1-2,0.2-2.5,0.4s-0.8,0.4-0.9,0.8L13.1,178.9z"/>
	<path id="XMLID_287_" class="st1" d="M29.7,160.8c1.5-1.9,2.9-3.1,4.3-3.5c1.4-0.4,3.1-0.3,5,0.4c3,1,4.9,2.5,5.9,4.5
		s0.9,4.6-0.2,7.7l-2.9,8.6c-0.1,0.4-0.4,0.5-0.7,0.3l-1.1-0.4c-0.3-0.1-0.5-0.3-0.5-0.7c-0.1-0.8-0.4-1.3-1.1-1.5L17.1,169
		c-0.3-0.1-0.5-0.1-0.6-0.1c-0.1,0.1-0.4,0.3-0.8,0.7c-0.2,0.2-0.4,0.3-0.5,0.3c-0.1,0-0.5-0.1-1-0.3c-0.4-0.2-0.7-0.3-0.8-0.5
		s-0.1-0.4,0-0.7l3.3-9.7c0.8-2.3,2-3.9,3.6-4.8c1.6-0.8,3.3-1,5.2-0.3c1.5,0.5,2.6,1.5,3.3,2.8S29.8,159.2,29.7,160.8z M17.8,161.9
		l9.3,3.2l0.3-0.9c0.2-0.6,0.2-1.1,0-1.6c-0.2-0.5-0.7-0.8-1.5-1.2c-0.8-0.3-1.8-0.7-3-1.1c-1.7-0.6-2.8-0.8-3.5-0.6
		c-0.6,0.2-1,0.6-1.3,1.3L17.8,161.9z M29.1,165.7l13.2,4.5c0.4-1.1,0.5-1.9,0.3-2.3c-0.2-0.5-0.7-0.9-1.5-1.2
		c-0.8-0.4-2.3-0.9-4.4-1.6c-0.4-0.1-1.4-0.5-2.9-0.9c-1.5-0.5-2.4-0.7-2.8-0.7c-0.3,0-0.6,0.1-0.9,0.3c-0.3,0.2-0.5,0.6-0.7,1.1
		L29.1,165.7z"/>
	<path id="XMLID_291_" class="st1" d="M48.6,148.4l-20.1-10.3c-0.2-0.1-0.5,0-0.8,0.3c-0.2,0.2-0.5,0.4-0.7,0.4
		c-0.2,0-0.6-0.1-1.2-0.4c-0.4-0.2-0.6-0.4-0.7-0.6c-0.1-0.2,0.1-0.6,0.4-1.2l4.1-7.9c1.2-2.3,3.2-3.6,6-4c2.9-0.4,6.7,0.6,11.6,3.1
		c4.4,2.3,7.4,4.7,8.8,7.3c1.5,2.6,1.6,5,0.4,7.4l-4.5,8.8c-0.1,0.2-0.3,0.4-0.4,0.4c-0.2,0-0.4-0.1-0.8-0.3
		c-0.5-0.2-0.8-0.4-0.9-0.5c-0.1-0.1-0.2-0.3-0.2-0.7C49.6,149.3,49.3,148.7,48.6,148.4z M30.7,131.4l23,11.8l0.5-0.9
		c0.3-0.6,0.3-1.2-0.1-1.8c-0.4-0.6-1.2-1.2-2.5-1.8l-17-8.7c-0.7-0.4-1.4-0.5-2.1-0.4c-0.6,0.1-1.1,0.5-1.5,1.2L30.7,131.4z"/>
	<path id="XMLID_294_" class="st1" d="M42,111.7l9,5.7l0.7-1.1c0.2-0.3,0.3-0.5,0.2-0.8c0-0.2-0.2-0.5-0.6-0.8c-0.7-0.6-1-1-1.1-1.2
		c-0.1-0.2-0.1-0.3,0-0.5c0.5-0.8,0.9-1.3,1-1.3c0.1-0.1,0.4,0,0.9,0.3l5.3,3.3c0.3,0.2,0.5,0.4,0.5,0.6c0,0.2-0.1,0.5-0.5,1.1
		c-0.2,0.4-0.4,0.6-0.7,0.6c-0.2,0-0.7-0.1-1.3-0.3c-0.6-0.2-1-0.3-1.2-0.3s-0.4,0.2-0.5,0.4l-0.8,1.2l10.9,6.9l0.5-0.8
		c0.3-0.5,0.4-1,0.2-1.3c-0.2-0.4-0.8-1.2-1.9-2.5c-0.5-0.5-0.7-1-0.8-1.3c-0.1-0.3,0.1-0.7,0.4-1.2c0.4-0.7,0.8-0.8,1.2-0.6
		c0.1,0.1,0.3,0.2,0.5,0.4l3.2,2.8c0.6,0.5,0.9,0.8,1,1c0.1,0.2,0,0.4-0.2,0.8l-6.6,10.5c-0.2,0.3-0.3,0.4-0.5,0.4
		c-0.2,0-0.5-0.2-1.1-0.6c-0.4-0.2-0.5-0.6-0.4-1.1c0.1-0.7,0-1.2-0.4-1.5l-19.7-12.4c-0.2-0.1-0.6,0-1,0.3
		c-0.3,0.2-0.6,0.3-0.7,0.3c-0.2,0-0.5-0.2-1-0.5c-0.4-0.3-0.6-0.4-0.7-0.6s0-0.3,0.2-0.6l6.4-10.1c0.2-0.3,0.3-0.4,0.5-0.5
		s0.4,0,0.8,0.1l4.6,1.8c0.2,0.1,0.4,0.2,0.5,0.2c0.3,0.2,0.3,0.5-0.1,1c-0.4,0.6-0.7,0.9-0.9,1c-0.3,0.1-0.7,0.1-1.3-0.1
		c-1.2-0.3-2-0.4-2.5-0.4c-0.5,0-0.9,0.2-1.1,0.4L42,111.7z"/>
	<path id="XMLID_296_" class="st1" d="M66.2,105.3l-9.8-11c-0.1-0.1-0.2-0.2-0.3-0.3c-0.4-0.3-0.9-0.3-1.5,0
		c-0.4,0.2-0.7,0.2-0.8,0.1c-0.1-0.1-0.1-0.1-0.2-0.2l-0.2-0.2c-0.4-0.3-0.7-0.6-0.8-0.7c-0.1-0.1,0-0.3,0.1-0.5l2.8-3.7
		c0.1-0.2,0.3-0.2,0.4-0.2c0.1,0,0.4,0.2,0.8,0.5c0.5,0.3,0.7,0.6,0.8,0.7c0.1,0.1,0.1,0.2,0.1,0.4c0,0.4,0,0.8,0.1,1
		c0.1,0.2,0.4,0.6,0.9,1.1l16.4,18.5l1,1.1c0.1,0.1,0.1,0.2-0.1,0.4l-2.3,3c-0.1,0.1-0.2,0.2-0.4,0.2c-0.2,0-0.6-0.2-1.4-0.6L49,104
		c-0.6-0.3-1.1-0.3-1.6-0.1c-0.3,0.1-0.5,0.2-0.5,0.2s-0.3-0.1-0.5-0.2c-0.1-0.1-0.1-0.1-0.2-0.2c-0.1-0.1-0.2-0.2-0.3-0.2
		c-0.1-0.1-0.1-0.1-0.2-0.1l-0.2-0.2c-0.3-0.2-0.4-0.5-0.2-0.7l5.1-6.8c0.2-0.2,0.5-0.2,0.9,0.1c0,0,0.3,0.2,0.8,0.7
		c0.1,0.1,0.1,0.3,0.1,0.6c-0.1,0.6,0,1.1,0.5,1.4c0.1,0.1,0.2,0.2,0.4,0.2L66.2,105.3z"/>
	<path id="XMLID_298_" class="st1" d="M64.8,81.8l8,7.1l0.8-0.9c0.2-0.3,0.3-0.5,0.3-0.7c0-0.2-0.2-0.5-0.5-0.9
		c-0.6-0.7-0.9-1.1-0.9-1.3s0-0.4,0.1-0.5c0.7-0.7,1.1-1.1,1.2-1.2c0.1,0,0.4,0.1,0.8,0.5l4.6,4.1c0.3,0.3,0.4,0.5,0.4,0.6
		c0,0.2-0.2,0.5-0.6,1c-0.3,0.3-0.5,0.5-0.7,0.5c-0.2,0-0.6-0.2-1.3-0.6c-0.6-0.3-1-0.5-1.2-0.5c-0.2,0-0.4,0.1-0.6,0.3l-1,1.1
		l9.6,8.6l0.7-0.7c0.4-0.5,0.6-0.9,0.5-1.3c-0.1-0.4-0.6-1.3-1.5-2.8c-0.4-0.6-0.6-1.1-0.6-1.4s0.2-0.7,0.5-1.1
		c0.5-0.6,1-0.7,1.3-0.4c0.1,0.1,0.3,0.3,0.4,0.5l2.7,3.3c0.5,0.6,0.8,1,0.8,1.2c0.1,0.2,0,0.4-0.3,0.7l-8.3,9.3
		c-0.2,0.2-0.4,0.3-0.6,0.3s-0.5-0.3-1-0.7c-0.3-0.3-0.4-0.7-0.3-1.1c0.2-0.7,0.2-1.2-0.2-1.5L60.9,87.6c-0.2-0.1-0.5-0.1-1.1,0.2
		c-0.4,0.2-0.6,0.2-0.8,0.2c-0.2,0-0.4-0.3-0.9-0.6c-0.4-0.3-0.6-0.5-0.6-0.7s0.1-0.3,0.3-0.6l7.9-8.9c0.2-0.2,0.4-0.4,0.5-0.4
		c0.2,0,0.4,0,0.7,0.2l4.2,2.5c0.2,0.1,0.4,0.2,0.4,0.3c0.3,0.2,0.2,0.6-0.2,1c-0.4,0.5-0.8,0.8-1.1,0.9c-0.3,0.1-0.7,0-1.3-0.3
		c-1.1-0.5-1.9-0.7-2.4-0.8c-0.5-0.1-0.9,0-1.1,0.3L64.8,81.8z"/>
	<path id="XMLID_300_" class="st1" d="M94.8,87.8l0.8-0.7c0.4-0.4,0.5-0.8,0.4-1.3s-0.6-1.5-1.4-2.9c-0.3-0.5-0.4-0.9-0.4-1.2
		s0.3-0.5,0.6-0.9c0.4-0.4,0.7-0.6,0.9-0.7c0.2,0,0.4,0,0.5,0.2c0.1,0.1,0.3,0.3,0.5,0.7l2.6,3.7c0.3,0.4,0.4,0.7,0.4,0.9
		s-0.1,0.4-0.4,0.7l-8.8,8.5c-0.4,0.4-0.8,0.3-1.2-0.2c-0.3-0.4-0.5-0.6-0.6-0.8c-0.1-0.1,0-0.3,0.1-0.5c0.4-0.7,0.2-1.4-0.6-2.1
		l-15.4-16c-0.3-0.3-0.7-0.4-1.2-0.2c-0.4,0.2-0.7,0.2-0.9,0.1c-0.2-0.1-0.5-0.3-0.8-0.6c-0.4-0.4-0.6-0.7-0.6-0.8
		c0-0.1,0.1-0.3,0.3-0.6l6.2-6c0.2-0.2,0.4-0.3,0.6-0.3c0.2,0,0.5,0.3,1,0.8c0.3,0.3,0.4,0.5,0.5,0.7c0,0.2,0,0.4-0.2,0.7
		c-0.3,0.6-0.2,1.1,0.2,1.5L94.8,87.8z"/>
	<path id="XMLID_302_" class="st1" d="M89.2,54.8c1.4-1.1,3-1.7,4.8-1.6c1.8,0.1,3.8,0.8,5.8,2c2.1,1.2,4.2,3.2,6.5,6
		c2.7,3.3,4.3,6.6,4.9,9.9c0.6,3.3-0.3,5.9-2.7,7.8c-2.2,1.8-4.9,2.1-7.9,0.9c-3.1-1.2-6-3.5-8.9-7.1c-2.9-3.6-4.6-7.1-5.1-10.3
		S87,56.6,89.2,54.8z M93.1,57.3c-1-1.2-1.9-1.5-2.6-0.9C90.2,56.7,90,57,90,57.5s0.2,0.9,0.5,1.4l14.2,17.5c0.5,0.6,1,0.9,1.4,1.1
		c0.5,0.1,0.9,0,1.2-0.2c0.4-0.3,0.5-0.7,0.5-1.2s-0.3-1-0.6-1.4L93.1,57.3z"/>
	<path id="XMLID_305_" class="st1" d="M118,58.9l3.4,5.2c0.4,0.6,0.9,0.8,1.6,0.7c0.3-0.1,0.6-0.1,0.8,0c0.2,0.1,0.5,0.4,0.7,0.8
		c0.3,0.4,0.4,0.7,0.3,0.9c0,0.2-0.2,0.4-0.6,0.6l-7.1,4.6c-0.4,0.2-0.8,0-1.2-0.6c-0.3-0.5-0.5-0.9-0.6-1c0-0.2,0.1-0.4,0.3-0.7
		c0.2-0.3,0.3-0.5,0.3-0.6c0-0.1-0.1-0.3-0.2-0.6l-12.4-18.8c-0.3-0.4-0.8-0.6-1.5-0.5c-0.4,0-0.7-0.1-0.9-0.4l-0.5-0.7
		c-0.2-0.3-0.3-0.5-0.3-0.7s0.2-0.3,0.4-0.5l8-5.2c2.3-1.5,4.6-2,6.9-1.4c2.3,0.6,4.4,2.2,6.1,4.8c1,1.5,1.6,2.9,1.9,4.3
		c0.3,1.4,0.4,2.6,0.1,3.6c-0.3,1-0.7,1.9-1.3,2.8c-0.6,0.9-1.4,1.6-2.3,2.3L118,58.9z M108.2,44l8.6,13.1l1.1-0.7
		c0.4-0.2,0.6-0.7,0.6-1.3c0-0.6-0.3-1.4-0.9-2.3l-5.1-7.8c-1.1-1.7-2.3-2.2-3.5-1.5L108.2,44z"/>
	<path id="XMLID_308_" class="st1" d="M127.7,32.7l5,9.4l1.1-0.6c0.3-0.2,0.5-0.4,0.6-0.6c0.1-0.2,0-0.6-0.1-1
		c-0.3-0.8-0.4-1.4-0.4-1.6c0-0.2,0.1-0.3,0.3-0.4c0.9-0.5,1.4-0.7,1.5-0.7s0.4,0.3,0.6,0.7l2.9,5.5c0.2,0.3,0.2,0.6,0.2,0.8
		s-0.4,0.4-0.9,0.7c-0.4,0.2-0.7,0.3-0.9,0.2c-0.2-0.1-0.5-0.4-1-1c-0.4-0.5-0.7-0.8-0.9-0.9s-0.4,0-0.6,0.1l-1.3,0.7l6.1,11.3
		l0.9-0.5c0.5-0.3,0.8-0.6,0.9-1c0-0.4-0.1-1.5-0.4-3.1c-0.1-0.7-0.2-1.2-0.1-1.5c0.1-0.3,0.4-0.6,0.9-0.8c0.7-0.4,1.1-0.3,1.4,0.1
		c0.1,0.1,0.2,0.3,0.2,0.6l1.4,4.1c0.3,0.7,0.4,1.2,0.4,1.4s-0.2,0.4-0.6,0.6l-11,5.9c-0.3,0.1-0.5,0.2-0.6,0.1
		c-0.1-0.1-0.4-0.4-0.7-1c-0.2-0.4-0.2-0.8,0.1-1.2c0.5-0.6,0.6-1.1,0.3-1.5l-11-20.5c-0.1-0.2-0.5-0.3-1.1-0.2
		c-0.4,0-0.7,0-0.8-0.1c-0.1-0.1-0.3-0.4-0.6-0.9c-0.2-0.4-0.3-0.7-0.3-0.8c0-0.1,0.2-0.3,0.5-0.4l10.5-5.6c0.3-0.1,0.5-0.2,0.6-0.2
		c0.2,0,0.4,0.2,0.6,0.5l3.1,3.8c0.2,0.2,0.3,0.3,0.3,0.4c0.2,0.3,0,0.6-0.6,0.9c-0.6,0.3-1,0.5-1.3,0.4c-0.3,0-0.6-0.3-1.1-0.7
		c-0.9-0.8-1.5-1.3-2-1.6c-0.5-0.3-0.8-0.3-1.1-0.1L127.7,32.7z"/>
	<path id="XMLID_310_" class="st1" d="M149.5,38.4l3.6,8.5c0.2,0.4,0.3,0.7,0.4,0.8c0.1,0.1,0.3,0.2,0.6,0.2
		c0.4,0.1,0.7,0.3,0.9,0.8c0.3,0.7,0.4,1.1,0.3,1.3c-0.1,0.2-0.2,0.4-0.6,0.5l-7.2,3.1c-0.4,0.2-0.7,0-1-0.6
		c-0.2-0.6-0.4-0.9-0.4-1.1c0-0.2,0-0.3,0.2-0.5c0.5-0.5,0.6-1.1,0.3-1.9l-8.6-20.1c-0.3-0.7-0.8-1.1-1.4-1c-0.3,0-0.5,0-0.6-0.1
		s-0.3-0.3-0.4-0.8c-0.4-0.9-0.3-1.4,0.2-1.6l9.5-4c1.9-0.8,3.9-0.8,6,0c2.1,0.8,3.6,2.4,4.7,4.8c1.4,3.4,0.7,6.4-2.4,8.9
		c3.5-0.7,5.9,0.7,7.3,4l1.7,4.1c0.1,0.3,0.4,0.5,0.7,0.6c0.4,0.1,0.7,0.3,0.9,0.7c0.3,0.7,0.4,1.1,0.4,1.2c0,0.2-0.2,0.3-0.6,0.5
		l-4.6,2c-0.5,0.2-1.1,0.1-1.8-0.4c-0.6-0.5-1.1-1.2-1.5-2.1l-2.9-6.9c-0.6-1.3-1.5-1.7-2.9-1.2L149.5,38.4z M143.7,24.8l4.9,11.6
		l1.1-0.5c1.1-0.5,1.2-1.9,0.2-4.1l-2.4-5.5c-0.4-1-0.9-1.6-1.4-1.8c-0.5-0.2-1.2-0.2-1.9,0.1L143.7,24.8z"/>
</g>
<g id="XMLID_1_">
</g>
<g id="XMLID_159_">
</g>
<g id="XMLID_314_">
</g>
<g id="XMLID_315_">
</g>
<g id="XMLID_316_">
</g>
<g id="XMLID_317_">
</g>
</svg>
