<?xml version="1.0" encoding="utf-8"?>
<!-- Generator: Adobe Illustrator 19.0.0, SVG Export Plug-In . SVG Version: 6.00 Build 0)  -->
<svg version="1.1" baseProfile="tiny" id="Layer_1" xmlns="http://www.w3.org/2000/svg" xmlns:xlink="http://www.w3.org/1999/xlink"
	 x="0px" y="0px" viewBox="0 0 467 453" xml:space="preserve">
<g id="XMLID_2_">
	<circle id="XMLID_223_" fill="none" cx="234.5" cy="224.5" r="200.5"/>
	<path id="XMLID_82_" fill="#FFFFFF" d="M168.1,413.6l-4.2,11.7c-0.2,0.6,0,1.2,0.7,1.6c0.3,0.2,0.5,0.4,0.6,0.6c0,0.2,0,0.5-0.2,1
		c-0.3,0.7-0.5,1.1-0.6,1.2c-0.2,0.1-0.4,0.1-0.9-0.1l-8.8-3.2c-0.5-0.2-0.8-0.4-0.8-0.6c-0.1-0.3,0-0.7,0.2-1.3
		c0.1-0.4,0.3-0.7,0.4-0.7c0.1-0.1,0.4-0.1,0.8-0.2c0.5,0,0.9-0.1,1.1-0.2s0.3-0.3,0.4-0.6l8.4-23.3c0.1-0.3,0.1-0.6,0.1-0.8
		c-0.1-0.2-0.3-0.5-0.7-0.9c-0.3-0.3-0.3-0.6-0.1-1.1c0-0.1,0.1-0.3,0.3-0.8c0.3-0.5,0.7-0.7,1.2-0.5l12,4.3
		c0.4,0.1,0.6,0.3,0.7,0.4c0.1,0.2,0.1,0.5,0,1c0,0.1,0,0.2-0.1,0.3l-0.7,4.6c0,0.3-0.1,0.5-0.2,0.7c-0.1,0.4-0.5,0.5-1.1,0.3
		c-0.8-0.3-1.3-0.6-1.4-1c-0.1-0.4-0.1-1.3-0.1-2.6c0-0.8-0.1-1.4-0.3-1.8c-0.2-0.4-0.5-0.6-1.1-0.8c-0.2-0.1-0.4-0.1-0.9-0.2l-4,11
		l1,0.4c0.5,0.2,0.9,0.2,1.2,0c0.3-0.2,0.6-0.5,0.9-1.1c0.4-0.6,0.6-1,0.8-1.1c0.2-0.1,0.6-0.1,1.4,0.2c0.5,0.2,0.8,0.3,0.9,0.5
		c0.1,0.1,0.1,0.4-0.1,0.7l-2.5,7c-0.1,0.3-0.2,0.5-0.4,0.5c-0.1,0.1-0.5,0-1-0.2c-0.7-0.2-1.1-0.5-1.1-0.8s0-0.9,0.2-1.7
		c0.2-0.9-0.1-1.5-0.9-1.8L168.1,413.6z"/>
	<path id="XMLID_84_" fill="#FFFFFF" d="M178.8,408.7c-0.2-0.1-0.3-0.2-0.4-0.3c-0.3-0.2-0.5-0.4-0.5-0.6s0-0.5,0.1-0.9
		c0.1-0.2,0.1-0.4,0.1-0.6c0.1-0.4,0.2-0.6,0.4-0.7c0.1-0.1,0.4-0.1,0.8,0l6.2,1.6c0.3,0.1,0.5,0.2,0.5,0.3s0,0.3-0.1,0.7l-5,19.6
		c-0.4,1.7-0.2,2.7,0.8,2.9c0.7,0.2,1.3,0,1.9-0.5l4.7-18.4c0.1-0.5,0-0.9-0.4-1.3c-0.2-0.2-0.3-0.4-0.3-0.5c0-0.2,0.1-0.7,0.3-1.6
		c0.1-0.4,0.4-0.5,0.8-0.4l6.5,1.7c0.3,0.1,0.4,0.2,0.5,0.2c0,0.1,0,0.3-0.1,0.7l-5.8,22.8c-0.1,0.4,0,0.8,0.3,1.1
		c0.4,0.3,0.5,0.8,0.4,1.4c-0.2,0.8-0.3,1.2-0.4,1.3c-0.1,0.1-0.3,0.1-0.7,0l-6-1.5c-0.4-0.1-0.6-0.2-0.7-0.4c-0.1-0.2-0.1-0.5,0-1
		l0.1-0.5c0.1-0.5,0.2-0.8,0.2-0.9c-2.6,1.3-4.6,1.8-6.1,1.4c-1.3-0.3-2.2-1-2.8-2c-0.6-1-0.6-2.7,0-5.1L178.8,408.7z"/>
	<path id="XMLID_86_" fill="#FFFFFF" d="M198.2,406.6l0.2-1c0.1-0.4,0.4-0.6,1-0.5l6.2,1.1c0.3,0.1,0.6,0.1,0.7,0.2
		c0.1,0.1,0.1,0.3,0,0.7l-4.9,28.2c-0.1,0.6,0,1,0.4,1.3c0.3,0.2,0.4,0.4,0.3,0.8l-0.2,1.2c-0.1,0.4-0.4,0.6-1,0.5l-7.4-1.3
		c-0.4-0.1-0.6-0.3-0.5-0.7l0.2-1.2c0.1-0.5,0.4-0.8,0.8-0.9c0.3-0.1,0.5-0.2,0.6-0.3c0.1-0.1,0.2-0.3,0.2-0.6l4.3-25
		c0.1-0.5,0-0.8-0.4-1C198.3,407.6,198.1,407.2,198.2,406.6z"/>
	<path id="XMLID_88_" fill="#FFFFFF" d="M208.2,408.3l0.1-1c0.1-0.4,0.4-0.6,0.9-0.6l6.3,0.7c0.3,0,0.6,0.1,0.7,0.2
		c0.1,0.1,0.1,0.3,0.1,0.7l-3.3,28.5c-0.1,0.6,0.1,1,0.5,1.2c0.3,0.1,0.4,0.4,0.3,0.7l-0.1,1.2c0,0.4-0.4,0.6-1,0.5l-7.5-0.9
		c-0.4,0-0.6-0.3-0.6-0.7l0.1-1.2c0.1-0.5,0.3-0.8,0.8-1c0.3-0.1,0.5-0.2,0.6-0.3c0.1-0.1,0.1-0.3,0.2-0.7l2.9-25.2
		c0.1-0.5-0.1-0.8-0.4-1C208.3,409.3,208.1,408.9,208.2,408.3z"/>
	<path id="XMLID_90_" fill="#FFFFFF" d="M236.6,409.3c0.1-0.1,0.3-0.4,0.7-0.9c0.2-0.4,0.6-0.5,1-0.5c0.1,0,0.5,0,1.2,0.1
		c0.1,0.1,0.2,0.4,0.3,0.9l1.2,6.9c0.1,0.4,0.1,0.6,0.1,0.7c0,0.3-0.1,0.4-0.2,0.5c-0.1,0.1-0.5,0.1-1.1,0.1c-0.7,0-1.1-0.1-1.4-0.2
		c-0.2-0.2-0.6-0.9-1.2-2.2c-1.3-2.7-2.4-4.1-3.3-4.1c-0.7,0-1,0.5-1,1.5c0,1.2,1.1,3.5,3.2,7c2.4,4,4,6.9,4.8,8.6
		c0.7,1.8,1.1,3.8,1.2,6c0,2.6-0.5,4.7-1.8,6.1c-1.2,1.4-2.6,2.2-4.2,2.2c-1,0-1.9-0.2-2.9-0.8c-0.4-0.2-0.6-0.3-0.8-0.3
		c-0.2,0-0.3,0.1-0.4,0.4c-0.2,0.5-0.7,0.8-1.6,0.8c-0.3,0-0.6,0-0.7-0.1s-0.2-0.4-0.3-0.8l-1.1-6.8c-0.2-0.9-0.2-1.3-0.2-1.4
		c0-0.4,0.4-0.6,1.1-0.6c1,0,1.6,0.1,1.7,0.4c0.2,0.3,0.4,0.8,0.8,1.8c1.3,3.3,2.5,4.9,3.7,4.9c0.5,0,0.8-0.2,1.1-0.5
		s0.4-0.7,0.4-1.2c0-0.9-0.3-1.9-1-3c-0.6-1.2-1.4-2.5-2.4-3.9c-2.2-3.4-3.8-6.2-4.7-8.2c-0.9-2.1-1.4-4.2-1.4-6.3
		c0-2.4,0.5-4.4,1.5-5.8c1-1.5,2.3-2.2,3.9-2.2C233.8,407.9,235.1,408.4,236.6,409.3z"/>
	<path id="XMLID_92_" fill="#FFFFFF" d="M243.8,416.2l-0.8,0.1c-0.2,0-0.4,0-0.4-0.1c-0.1,0-0.1-0.2-0.1-0.4l-0.1-1.5
		c0-0.3,0-0.5,0.1-0.5c0.1-0.1,0.2-0.2,0.5-0.2c1-0.2,1.9-0.8,2.9-1.8s1.5-2.1,1.6-3.1c0-0.4,0.1-0.6,0.2-0.7s0.3-0.2,0.6-0.2
		l1.3-0.1c0.4,0,0.5,0.2,0.6,0.7l0.3,4.7l1.3-0.1c0.5,0,0.7,0.2,0.8,0.6l0.1,1.5c0,0.4-0.2,0.7-0.7,0.7l-1.3,0.1l1.4,21.2
		c0,0.7,0.4,1.2,1.1,1.5c0.3,0.1,0.5,0.3,0.7,0.5s0.2,0.6,0.2,1.2c0,0.4,0,0.6,0,0.6s-0.2,0.1-0.5,0.1l-6.5,0.4
		c-1-0.8-1.6-2.1-1.7-3.9L243.8,416.2z"/>
	<path id="XMLID_94_" fill="#FFFFFF" d="M264.7,419.4l-0.6-3.9c-0.2-1.1-0.7-1.6-1.6-1.4c-1.2,0.2-1.7,1.1-1.4,2.7
		c0.1,0.9,0.1,1.6,0,2c-0.2,0.4-0.6,0.8-1.3,1.2c-0.7,0.4-1.5,0.6-2.3,0.8c-1.7,0.3-2.7-0.5-3-2.4c-0.3-1.7,0.3-3.3,1.6-4.6
		s3.2-2.1,5.6-2.5c1.6-0.2,3-0.2,4.4,0c1.3,0.2,2.4,0.8,3.4,1.7c0.9,0.9,1.5,2,1.6,3.2l2.7,18.5c0,0.1,0.3,0.3,0.7,0.5
		c0.3,0.2,0.5,0.4,0.5,0.8c0.1,0.5,0.1,0.9-0.1,1.2c-0.1,0.2-0.4,0.5-1,0.8c-0.5,0.3-1.3,0.5-2.1,0.6c-1.1,0.2-2,0.1-2.7-0.2
		c-0.8-0.3-1.4-1-2-2c-1,1.4-1.8,2.3-2.5,2.8c-0.7,0.4-1.4,0.7-2.2,0.8c-1.7,0.3-3.1-0.2-4.3-1.4c-1.1-1.2-1.9-3.3-2.4-6.4
		c-0.4-3.1-0.3-5.2,0.4-6.5c0.7-1.3,2.3-2.7,4.7-4C262.5,420.8,263.7,420,264.7,419.4z M265.1,422c-1.4,0.9-2.2,1.8-2.4,2.7
		c-0.2,0.9,0,2.8,0.4,5.8c0.3,2.2,0.6,3.5,1,4.1s0.8,0.8,1.4,0.7c1-0.2,1.4-1.1,1.2-2.8L265.1,422z"/>
	<path id="XMLID_97_" fill="#FFFFFF" d="M280.3,411.8l4.6,19.3c0.1,0.5,0.3,0.8,0.7,1.1s0.8,0.4,1.3,0.3c0.7-0.2,1.1-0.7,1.3-1.6
		s0.1-2-0.2-3.3l-0.2-0.6c-0.2-0.7-0.1-1.2,0.1-1.3c0.2-0.2,0.7-0.4,1.3-0.5c0.5-0.1,0.9-0.1,1.2,0c0.2,0.2,0.4,0.5,0.6,1.2
		c0.5,2.1,0.4,4-0.3,5.8c-0.7,1.8-2.1,2.9-4,3.4c-2.3,0.6-4.5-0.2-6.6-2.1c-2.1-2-3.6-5.1-4.6-9.4c-0.8-3.2-1-6-0.8-8.3
		c0.2-2.3,0.8-4.1,1.6-5.4c0.8-1.3,2.1-2.2,3.7-2.5c1.9-0.5,3.6-0.2,5,0.8c1.4,1,2.4,2.4,2.8,4.1c0.2,0.9,0.2,1.7,0,2.4
		s-0.7,1.1-1.5,1.3c-0.8,0.2-1.5,0-2-0.4s-0.9-1.2-1.2-2c-0.1-0.4-0.2-0.8-0.2-1.3c0-0.6-0.1-1.1-0.2-1.4c-0.1-0.3-0.3-0.6-0.6-0.8
		c-0.3-0.2-0.6-0.2-1-0.1c-0.3,0.1-0.6,0.3-0.7,0.6C280.3,411.1,280.3,411.5,280.3,411.8z"/>
	<path id="XMLID_99_" fill="#FFFFFF" d="M300.4,421.9l1.8,5.2c0.1,0.3,0.4,0.6,0.8,0.6c0.3,0.1,0.5,0.3,0.6,0.6l0.4,1
		c0.2,0.5,0,0.8-0.5,1l-7,2.4c-0.5,0.2-0.8-0.1-1-0.6l-0.3-0.9c-0.1-0.2,0-0.5,0.3-0.9c0.2-0.4,0.3-0.6,0.3-0.7c0-0.1,0-0.3-0.1-0.5
		l-7.9-23.2c-0.3-0.8-0.7-1.3-1.4-1.5c-0.2-0.1-0.3-0.2-0.4-0.3s-0.2-0.3-0.3-0.7c-0.3-0.8-0.4-1.3-0.4-1.5c0-0.1,0.2-0.3,0.5-0.4
		l6.2-2.1c0.3-0.1,0.5-0.1,0.7-0.1s0.2,0.3,0.4,0.7l5.8,16.8l0.8-9.4c0.1-0.6,0.1-1,0-1.2c-0.1-0.4-0.6-0.7-1.2-0.7
		c-0.3,0-0.5-0.1-0.7-0.2c-0.1-0.1-0.3-0.4-0.5-0.9c-0.2-0.6-0.3-1-0.2-1.2c0.1-0.2,0.3-0.3,0.6-0.4l5.4-1.8
		c0.3-0.1,0.6,0.2,0.8,0.9c0.2,0.6,0.3,1,0.2,1.2c0,0.2-0.2,0.5-0.5,0.9c-0.5,0.5-0.8,1-0.8,1.6l-0.4,3.3l9.6,14.5
		c0.3,0.4,0.7,0.7,1.2,0.9c0.3,0.1,0.6,0.3,0.7,0.7l0.4,1c0.2,0.5,0,0.8-0.5,1l-5.2,1.8c-0.7,0.2-1.2-0.1-1.7-0.8l-5.6-9.2
		L300.4,421.9z"/>
	<path id="XMLID_101_" fill="#FFFFFF" d="M332.1,397.4c1.1-0.6,2.3-0.8,3.6-0.4s2.2,1.1,2.8,2.2c0.6,1.1,0.8,2.3,0.4,3.6
		c-0.3,1.2-1.1,2.2-2.2,2.8c-1.1,0.6-2.3,0.8-3.6,0.4c-1.3-0.3-2.2-1.1-2.8-2.2c-0.6-1.1-0.8-2.3-0.4-3.6
		C330.3,399,331,398,332.1,397.4z"/>
	<path id="XMLID_103_" fill="#FFFFFF" d="M364.8,392.6l-16.1-18.9c-0.2-0.2-0.5-0.2-1,0c-0.3,0.1-0.6,0.2-0.9,0.1
		c-0.2-0.1-0.6-0.4-1-0.9c-0.3-0.4-0.5-0.7-0.4-0.9c0-0.2,0.3-0.6,0.9-1.1l7.5-6.4c2.1-1.8,4.7-2.3,7.8-1.5c3.1,0.8,6.6,3.5,10.4,8
		c3.5,4.2,5.5,7.9,5.9,11.1c0.4,3.2-0.5,5.8-2.8,7.7l-8.3,7c-0.2,0.2-0.4,0.3-0.6,0.2s-0.4-0.2-0.8-0.6c-0.4-0.4-0.6-0.7-0.7-0.9
		c-0.1-0.1,0-0.4,0.1-0.8C365.4,393.9,365.3,393.2,364.8,392.6z M353.7,367.8l18.4,21.7l0.8-0.7c0.6-0.5,0.8-1.1,0.7-1.8
		s-0.7-1.7-1.8-2.9l-13.5-16c-0.6-0.7-1.2-1.1-1.9-1.3s-1.4,0-2,0.5L353.7,367.8z"/>
	<path id="XMLID_106_" fill="#FFFFFF" d="M380.2,365.3l6.1,5.8c0.8,0.8,1.6,1.2,2.3,1.3c0.8,0.1,1.4-0.1,1.8-0.5
		c0.7-0.7,1-1.7,0.8-2.7c-0.2-1.1-0.8-2.1-1.9-3.2c-0.6-0.6-0.9-1-0.9-1.2c0-0.2,0.3-0.6,0.9-1.2c0.5-0.5,0.9-0.8,1.1-0.9
		c0.2,0,0.6,0.2,1,0.6c1.5,1.5,2.4,3.2,2.6,5.4s-0.4,4-2,5.6c-1.8,1.9-4.2,2.6-7.1,2.3s-6.1-2.1-9.5-5.4s-5.4-6.4-6-9.3
		s0-5.3,1.9-7.3c1.6-1.7,3.7-2.3,6.1-1.9c2.5,0.4,5.1,2,7.9,4.6l1.4,1.3L380.2,365.3z M380.3,361.6l-4.9-4.7c-0.9-0.9-1.7-1-2.3-0.3
		c-0.6,0.7-0.5,1.5,0.4,2.3l4.9,4.7L380.3,361.6z"/>
	<path id="XMLID_109_" fill="#FFFFFF" d="M395.7,350.8l-7.3-8.8c-0.2-0.2-0.3-0.3-0.5-0.5c-0.4-0.4-0.9-0.5-1.4-0.3
		c-0.3,0.1-0.6,0-1-0.2l-0.9-0.7c-0.2-0.2-0.3-0.4-0.1-0.7l2.5-3.1c0.2-0.2,0.3-0.4,0.5-0.4s0.3,0.1,0.5,0.3l0.8,0.6
		c0.2,0.2,0.3,0.3,0.4,0.3c0,0.1,0,0.3,0,0.6c0,0.5,0.2,1.1,0.8,1.9l14.3,16.9c0.8,0.9,1.2,1.5,1.3,1.6c0,0.1,0,0.3-0.2,0.5
		l-2.2,2.8c-0.1,0.1-0.7,0-1.7-0.5l-20.5-10.7c-0.6-0.3-1.1-0.4-1.5-0.3c-0.5,0.1-0.8,0.1-1-0.1c-0.7-0.6-1.1-1-1.2-1.1
		c0-0.1,0.1-0.4,0.3-0.7l4.5-5.6c0.2-0.3,0.5-0.5,0.7-0.5c0.2,0,0.6,0.2,1.1,0.6c0.3,0.2,0.5,0.4,0.5,0.5c0,0.1,0,0.3,0,0.7
		c-0.1,0.4,0,0.7,0.3,1c0.2,0.2,0.5,0.3,0.8,0.5L395.7,350.8z"/>
	<path id="XMLID_111_" fill="#FFFFFF" d="M403.2,336.8l7,4.6c0.9,0.6,1.8,0.9,2.5,0.9c0.8,0,1.3-0.3,1.7-0.9
		c0.6-0.9,0.7-1.8,0.3-2.8c-0.4-1-1.2-1.9-2.5-2.8c-0.7-0.5-1-0.8-1.1-1c-0.1-0.2,0.1-0.7,0.6-1.4c0.4-0.6,0.7-1,1-1
		c0.2-0.1,0.6,0,1.1,0.4c1.8,1.2,2.9,2.8,3.6,4.8c0.6,2,0.3,4-0.9,5.9c-1.4,2.2-3.6,3.3-6.6,3.5c-3,0.2-6.4-1-10.3-3.6
		c-3.9-2.6-6.5-5.3-7.6-8s-1-5.3,0.5-7.5c1.3-1.9,3.2-2.9,5.7-2.9c2.5,0,5.4,1,8.6,3.1l1.6,1.1L403.2,336.8z M402.6,333.1l-5.7-3.7
		c-1.1-0.7-1.9-0.7-2.4,0.1c-0.5,0.8-0.2,1.5,0.8,2.2l5.7,3.7L402.6,333.1z"/>
	<path id="XMLID_114_" fill="#FFFFFF" d="M394.4,319l-0.9-0.5c-0.4-0.2-0.4-0.6-0.2-1.1l3.1-5.5c0.2-0.3,0.3-0.5,0.4-0.6
		c0.1-0.1,0.3,0,0.7,0.2l25,14c0.5,0.3,1,0.3,1.3,0c0.2-0.2,0.5-0.2,0.8,0l1,0.6c0.4,0.2,0.4,0.6,0.1,1.1l-3.7,6.6
		c-0.2,0.4-0.5,0.5-0.9,0.2l-1-0.6c-0.4-0.2-0.6-0.6-0.6-1.1c0-0.3,0-0.5-0.1-0.6c-0.1-0.1-0.2-0.3-0.5-0.4l-22.2-12.4
		c-0.4-0.2-0.8-0.2-1.1,0C395.3,319.2,394.8,319.2,394.4,319z"/>
	<path id="XMLID_116_" fill="#FFFFFF" d="M405.9,303.5c1.1-2.3,3-3.8,5.8-4.4c2.8-0.6,6.3,0.1,10.4,2c4.4,2.1,7.4,4.4,9,7
		c1.5,2.6,1.8,5.1,0.7,7.5c-0.8,1.6-1.9,2.8-3.5,3.5c-1.6,0.7-3.4,1-5.5,0.9c-2-0.2-4.6-0.9-7.6-2.3c-4.3-2-7.2-4.2-8.7-6.8
		C405,308.5,404.8,306,405.9,303.5z M411.2,304.4c-1.5-0.7-2.5-0.6-2.9,0.3c-0.4,1,0.3,1.9,2.2,2.8l15.5,7.1c1.9,0.9,3,0.9,3.4,0
		c0.5-1-0.3-1.9-2.1-2.8L411.2,304.4z"/>
	<path id="XMLID_119_" fill="#FFFFFF" d="M414.8,287.9c-0.5-1-0.8-1.9-0.9-2.7s-0.1-1.6,0.2-2.4c0.7-2,2.2-3.1,4.6-3.3
		c2.4-0.2,5.8,0.5,10.4,2c2.9,1,5.3,2,7.1,2.9c1.8,1,3.1,2.2,4,3.6s1.1,2.8,0.6,4.2c-0.6,1.6-1.9,2.7-4.1,3.2l4.3,1.5
		c0.4,0.2,0.8,0,1.2-0.4c0.3-0.4,0.7-0.6,1.2-0.4l0.7,0.2c0.3,0.1,0.4,0.2,0.5,0.3c0,0.1,0,0.3-0.1,0.6l-2.6,7.5
		c-0.2,0.5-0.4,0.7-0.7,0.6l-0.7-0.2c-0.5-0.2-0.8-0.5-0.9-1c-0.1-0.3-0.2-0.4-0.5-0.5l-25.1-8.6c-0.5-0.2-0.9-0.1-1.3,0.1
		c-0.2,0.2-0.4,0.3-0.5,0.3c-0.1,0-0.3,0-0.6-0.1l-0.6-0.2c-0.3-0.1-0.5-0.2-0.6-0.3c0-0.1,0-0.3,0.1-0.6l2-5.9
		c0.1-0.4,0.3-0.6,0.4-0.6c0.1-0.1,0.4,0,0.7,0.1L414.8,287.9z M419.5,286.2c-0.8-0.3-1.5-0.3-2-0.1c-0.5,0.2-0.8,0.5-1,0.9
		c-0.1,0.3,0,0.7,0.2,1.1c0.2,0.5,0.5,0.8,1,0.9l16.3,5.6c0.3,0.1,0.8,0.1,1.3-0.2c0.5-0.2,0.9-0.6,1-1.1c0.3-0.8-0.2-1.4-1.4-1.8
		L419.5,286.2z"/>
	<path id="XMLID_122_" fill="#FFFFFF" d="M431.6,271.9l8.2,1.9c1.1,0.3,2,0.2,2.7,0c0.7-0.3,1.1-0.7,1.3-1.4c0.2-1,0-1.9-0.7-2.7
		c-0.7-0.8-1.8-1.4-3.3-1.8c-0.8-0.2-1.3-0.4-1.4-0.6c-0.1-0.2-0.1-0.7,0.1-1.5c0.2-0.7,0.3-1.2,0.5-1.3c0.2-0.2,0.6-0.2,1.2,0
		c2,0.5,3.7,1.6,5,3.3s1.7,3.7,1.1,5.9c-0.6,2.5-2.2,4.4-4.9,5.6s-6.3,1.3-10.9,0.2c-4.6-1.1-7.9-2.7-9.9-4.9
		c-2-2.2-2.7-4.6-2.1-7.2c0.5-2.3,2-3.8,4.3-4.7s5.4-0.9,9.1,0l1.9,0.4L431.6,271.9z M429.7,268.6l-6.6-1.6c-1.3-0.3-2,0-2.2,0.9
		c-0.2,0.9,0.3,1.5,1.6,1.8l6.6,1.6L429.7,268.6z"/>
	<path id="XMLID_125_" fill="#FFFFFF" d="M427,252.5c-0.3-0.2-0.8-0.5-1.6-0.8c-1.7-0.8-2.7-1.4-3.1-2c-0.4-0.6-0.5-1.1-0.4-1.7
		c0.1-0.8,0.6-1.4,1.4-1.7c0.8-0.3,1.8-0.4,3-0.2c2.5,0.4,3.6,1.3,3.4,2.7c-0.1,0.7-0.6,1.2-1.5,1.4c-0.5,0.2-0.8,0.4-0.8,0.6
		c-0.1,0.6,0.5,1,1.9,1.2l16.2,2.4c0.5,0.1,0.9-0.1,1.2-0.5c0.3-0.4,0.7-0.6,1.2-0.5l0.9,0.1c0.3,0,0.5,0.1,0.6,0.2
		c0.1,0.1,0.1,0.3,0,0.7l-1.1,7.6c-0.1,0.5-0.4,0.8-0.9,0.7l-1.1-0.2c-0.4-0.1-0.6-0.2-0.7-0.5c-0.2-0.5-0.5-0.8-1-0.8l-20.4-3
		c-0.5-0.1-0.8,0-1.1,0.3c-0.3,0.3-0.4,0.5-0.6,0.5s-0.5,0-1.1-0.1c-0.5-0.1-0.8-0.2-0.9-0.3s-0.1-0.4-0.1-0.7l0.8-5.5
		c0-0.3,0.1-0.4,0.3-0.5c0.2-0.1,0.5-0.1,1,0L427,252.5z"/>
	<path id="XMLID_127_" fill="#FFFFFF" d="M417.9,220.9l-0.1-4.4l38.9-1.2l0.1,4.4L417.9,220.9z"/>
	<path id="XMLID_129_" fill="#FFFFFF" d="M429.9,179.9l12.2-2.7c0.6-0.1,1-0.6,1-1.4c0-0.4,0.1-0.7,0.2-0.8c0.1-0.1,0.4-0.2,0.9-0.4
		c0.7-0.2,1.2-0.2,1.4-0.1c0.2,0.1,0.3,0.3,0.4,0.8l2,9.2c0.1,0.5,0.1,0.9-0.1,1.1c-0.2,0.2-0.6,0.4-1.2,0.5
		c-0.4,0.1-0.7,0.1-0.8,0.1c-0.1,0-0.3-0.2-0.6-0.6c-0.3-0.4-0.6-0.7-0.8-0.8c-0.2-0.1-0.4-0.1-0.7,0l-24.2,5.3
		c-0.3,0.1-0.6,0.2-0.8,0.4c-0.2,0.2-0.3,0.5-0.4,1c-0.1,0.4-0.4,0.6-0.9,0.7c-0.1,0-0.3,0.1-0.9,0.2c-0.6,0-0.9-0.2-1.1-0.8
		l-2.8-12.5c-0.1-0.4-0.1-0.6,0-0.8c0.1-0.2,0.4-0.4,0.8-0.5c0.1,0,0.2-0.1,0.3-0.1l4.2-1.9c0.3-0.1,0.5-0.2,0.7-0.2
		c0.4-0.1,0.7,0.2,0.9,0.8c0.2,0.9,0.1,1.4-0.1,1.7c-0.3,0.3-1,0.8-2.2,1.5c-0.7,0.5-1.2,0.8-1.4,1.2s-0.2,0.8-0.1,1.4
		c0,0.2,0.1,0.4,0.3,0.9l11.4-2.5l-0.2-1c-0.1-0.5-0.3-0.9-0.6-1c-0.3-0.2-0.8-0.2-1.4-0.2c-0.7,0-1.2,0-1.4-0.1
		c-0.2-0.1-0.4-0.5-0.6-1.3c-0.1-0.5-0.1-0.9-0.1-1c0.1-0.1,0.3-0.2,0.6-0.3l7.3-1.6c0.3-0.1,0.5-0.1,0.6,0c0.1,0.1,0.2,0.4,0.4,1
		c0.2,0.7,0.1,1.2-0.1,1.4c-0.2,0.2-0.7,0.5-1.6,0.8c-0.9,0.3-1.2,0.9-1,1.8L429.9,179.9z"/>
	<path id="XMLID_131_" fill="#FFFFFF" d="M420,173.5c0,0.2,0,0.3,0,0.4c0,0.4-0.1,0.6-0.2,0.8s-0.4,0.3-0.8,0.4
		c-0.2,0.1-0.4,0.1-0.6,0.2c-0.4,0.1-0.7,0.2-0.8,0.1c-0.2-0.1-0.3-0.3-0.4-0.7l-2-6.1c-0.1-0.3-0.1-0.5,0-0.6
		c0.1-0.1,0.3-0.2,0.6-0.3l19.2-6.2c1.7-0.5,2.4-1.3,2.1-2.2c-0.2-0.7-0.7-1.1-1.4-1.3l-18.1,5.8c-0.5,0.2-0.8,0.5-0.9,1
		c-0.1,0.3-0.2,0.4-0.3,0.5s-0.6,0.3-1.5,0.6c-0.4,0.1-0.6,0-0.8-0.5l-2.1-6.4c-0.1-0.3-0.1-0.5,0-0.5c0.1-0.1,0.3-0.2,0.6-0.3
		l22.4-7.2c0.4-0.1,0.7-0.4,0.7-0.8c0.1-0.5,0.4-0.8,1-1c0.8-0.3,1.2-0.4,1.4-0.3s0.2,0.2,0.4,0.6l1.9,5.9c0.1,0.4,0.1,0.7,0,0.8
		c-0.1,0.2-0.4,0.4-0.8,0.5l-0.5,0.2c-0.5,0.2-0.8,0.3-0.9,0.3c2.5,1.5,4,2.9,4.4,4.4c0.4,1.2,0.3,2.4-0.3,3.4c-0.6,1-2,1.9-4.4,2.7
		L420,173.5z"/>
	<path id="XMLID_133_" fill="#FFFFFF" d="M408,158.1l-0.9,0.4c-0.4,0.2-0.7,0-0.9-0.5l-2.4-5.9c-0.1-0.3-0.2-0.5-0.2-0.7
		c0-0.1,0.2-0.3,0.6-0.4l26.5-10.9c0.6-0.2,0.9-0.6,0.8-1c0-0.3,0.2-0.5,0.5-0.7l1.1-0.4c0.4-0.2,0.7,0,0.9,0.6l2.9,7
		c0.2,0.4,0,0.7-0.3,0.8l-1.1,0.4c-0.4,0.2-0.9,0.1-1.2-0.2c-0.2-0.2-0.4-0.3-0.5-0.3s-0.4,0-0.7,0.2l-23.5,9.7
		c-0.4,0.2-0.7,0.5-0.7,0.9C408.7,157.5,408.4,157.9,408,158.1z"/>
	<path id="XMLID_135_" fill="#FFFFFF" d="M404.1,148.8l-0.9,0.4c-0.4,0.2-0.7,0-1-0.5l-2.7-5.7c-0.1-0.3-0.2-0.5-0.2-0.6
		c0-0.1,0.2-0.3,0.6-0.4l25.9-12.3c0.6-0.3,0.8-0.6,0.8-1.1c0-0.3,0.1-0.5,0.4-0.7l1.1-0.5c0.4-0.2,0.7,0,1,0.6l3.2,6.8
		c0.2,0.4,0.1,0.7-0.3,0.8l-1.1,0.5c-0.4,0.2-0.8,0.2-1.2-0.1c-0.2-0.2-0.4-0.3-0.6-0.3c-0.1,0-0.3,0.1-0.6,0.2l-22.9,10.9
		c-0.4,0.2-0.6,0.5-0.6,0.9C404.8,148.2,404.6,148.5,404.1,148.8z"/>
	<path id="XMLID_137_" fill="#FFFFFF" d="M389.6,124c-0.1,0-0.5-0.1-1.2-0.1c-0.4,0-0.8-0.2-1-0.5c-0.1-0.1-0.2-0.4-0.5-1
		c0-0.2,0.2-0.4,0.6-0.7l5.3-4.6c0.3-0.2,0.5-0.4,0.5-0.4c0.2-0.1,0.4-0.2,0.5-0.1c0.1,0.1,0.4,0.4,0.7,0.9c0.4,0.6,0.5,1,0.5,1.3
		c0,0.3-0.5,1-1.2,2.2c-1.7,2.5-2.3,4.1-1.7,5c0.4,0.6,1,0.6,1.8,0.1c1-0.6,2.4-2.8,4.3-6.4c2.1-4.1,3.8-7,4.9-8.6s2.6-2.9,4.5-4.1
		c2.2-1.4,4.3-2,6.1-1.7c1.9,0.3,3.2,1.1,4,2.4c0.5,0.8,0.8,1.8,0.8,2.9c0,0.4,0.1,0.7,0.2,0.9c0.1,0.2,0.3,0.2,0.6,0.2
		c0.6-0.1,1.1,0.2,1.5,0.9c0.2,0.3,0.3,0.5,0.2,0.6c0,0.2-0.2,0.4-0.5,0.6l-5.2,4.5c-0.7,0.6-1,0.9-1.1,0.9c-0.3,0.2-0.7,0-1.1-0.6
		c-0.5-0.8-0.7-1.4-0.6-1.7c0.1-0.3,0.5-0.8,1.1-1.6c2.2-2.8,2.9-4.7,2.3-5.7c-0.2-0.4-0.6-0.6-1-0.7c-0.4-0.1-0.8,0-1.3,0.3
		c-0.7,0.5-1.4,1.3-2.1,2.4c-0.7,1.2-1.4,2.5-2.1,4c-1.8,3.7-3.3,6.5-4.6,8.3c-1.3,1.9-2.8,3.4-4.6,4.5c-2.1,1.3-4,1.9-5.8,1.8
		s-3.1-0.8-3.9-2.2C389.9,127.1,389.6,125.8,389.6,124z"/>
	<path id="XMLID_139_" fill="#FFFFFF" d="M391.7,114.5l0.5,0.6c0.1,0.2,0.2,0.3,0.2,0.4s-0.1,0.2-0.3,0.3l-1.2,0.9
		c-0.2,0.2-0.4,0.2-0.5,0.2c-0.1,0-0.3-0.1-0.5-0.3c-0.7-0.7-1.7-1.2-3.1-1.4c-1.4-0.2-2.5-0.1-3.5,0.3c-0.3,0.2-0.6,0.2-0.7,0.2
		c-0.1,0-0.3-0.2-0.5-0.4l-0.8-1.1c-0.2-0.3-0.1-0.6,0.3-0.9l3.8-2.8l-0.7-1c-0.3-0.4-0.2-0.7,0.1-1l1.2-0.9c0.4-0.3,0.7-0.2,1,0.2
		l0.8,1l17.2-12.5c0.6-0.4,0.8-1,0.7-1.7c-0.1-0.3,0-0.6,0.1-0.8c0.1-0.2,0.4-0.5,0.9-0.8c0.3-0.2,0.5-0.3,0.5-0.3
		c0.1,0,0.2,0.1,0.3,0.4l3.8,5.2c-0.1,1.3-0.9,2.5-2.3,3.5L391.7,114.5z"/>
	<path id="XMLID_141_" fill="#FFFFFF" d="M383.3,95.1l-3,2.6c-0.8,0.7-1,1.4-0.4,2.1c0.8,0.9,1.8,0.8,3.1-0.2c0.7-0.6,1.3-1,1.7-1.1
		c0.4-0.1,1,0,1.7,0.4c0.7,0.4,1.3,0.9,1.9,1.5c1.1,1.3,1,2.6-0.4,3.8c-1.3,1.1-2.9,1.5-4.7,1.1s-3.5-1.6-5.1-3.4
		c-1-1.2-1.8-2.4-2.3-3.7c-0.5-1.3-0.6-2.5-0.3-3.8c0.3-1.3,0.9-2.3,1.8-3.1l14.2-12.2c0.1-0.1,0.1-0.4,0.1-0.9
		c0-0.3,0.1-0.6,0.4-0.9c0.4-0.4,0.8-0.6,1-0.6s0.7,0.1,1.2,0.4c0.5,0.3,1.1,0.8,1.6,1.5c0.7,0.8,1.1,1.6,1.3,2.4
		c0.2,0.8-0.1,1.7-0.7,2.8c1.7,0.1,2.9,0.3,3.7,0.7s1.4,0.8,1.9,1.4c1.1,1.3,1.5,2.8,1.1,4.4c-0.4,1.6-1.8,3.4-4.1,5.4
		c-2.3,2-4.3,3.1-5.7,3.2c-1.5,0.1-3.5-0.5-5.9-1.8C385.7,96.2,384.4,95.5,383.3,95.1z M385.3,93.3c1.5,0.7,2.7,0.9,3.6,0.6
		c0.8-0.3,2.4-1.5,4.7-3.4c1.7-1.4,2.6-2.4,2.9-3s0.2-1.1-0.2-1.5c-0.7-0.8-1.7-0.6-3,0.5L385.3,93.3z"/>
	<path id="XMLID_144_" fill="#FFFFFF" d="M368.5,85.9l13.8-14.2c0.3-0.3,0.5-0.7,0.6-1.2c0.1-0.5-0.1-0.9-0.5-1.2
		c-0.5-0.5-1.2-0.5-2-0.2c-0.9,0.3-1.8,1-2.7,2l-0.4,0.4c-0.5,0.5-0.9,0.7-1.2,0.6c-0.3-0.1-0.7-0.4-1.1-0.8c-0.4-0.4-0.6-0.7-0.6-1
		s0.2-0.7,0.7-1.1c1.5-1.5,3.2-2.5,5-2.8c1.9-0.3,3.6,0.2,5,1.6c1.7,1.7,2.3,3.9,1.7,6.7c-0.6,2.8-2.4,5.8-5.5,8.9
		c-2.3,2.4-4.5,4.1-6.6,5.1c-2.1,1-3.9,1.5-5.5,1.5s-2.9-0.6-4.1-1.8c-1.4-1.4-2.1-2.9-2-4.7c0.1-1.8,0.7-3.2,2-4.5
		c0.6-0.6,1.3-1.1,2-1.2s1.3,0,1.9,0.5c0.6,0.6,0.8,1.2,0.7,1.9c-0.1,0.7-0.5,1.4-1.1,2.1c-0.3,0.3-0.6,0.6-1,0.9
		c-0.5,0.3-0.9,0.6-1.1,0.9c-0.2,0.3-0.4,0.6-0.4,0.9c0,0.4,0.1,0.7,0.4,0.9c0.2,0.2,0.5,0.3,0.9,0.3
		C368,86.3,368.3,86.2,368.5,85.9z"/>
	<path id="XMLID_146_" fill="#FFFFFF" d="M366.4,63.6l3.5-4.3c0.2-0.3,0.3-0.6,0.1-1c-0.1-0.3-0.1-0.6,0.2-0.9l0.7-0.8
		c0.3-0.4,0.7-0.4,1.1-0.1l5.8,4.7c0.4,0.3,0.4,0.7,0,1.2l-0.6,0.8c-0.1,0.2-0.5,0.3-1,0.2c-0.4,0-0.7,0-0.8,0.1
		c-0.1,0.1-0.2,0.2-0.4,0.4l-15.4,19.1c-0.5,0.7-0.7,1.3-0.6,2c0.1,0.2,0.1,0.4,0,0.5c-0.1,0.1-0.2,0.3-0.5,0.6
		c-0.6,0.7-0.9,1.1-1,1.2c-0.1,0.1-0.3,0-0.6-0.2l-5.1-4.1c-0.3-0.2-0.4-0.4-0.4-0.5c0-0.1,0.1-0.4,0.4-0.7L363,67.8l-8.3,4.4
		c-0.5,0.3-0.9,0.5-1,0.6c-0.3,0.3-0.3,0.8,0.1,1.4c0.2,0.3,0.2,0.5,0.2,0.7c0,0.2-0.2,0.5-0.5,0.9c-0.4,0.5-0.7,0.8-0.9,0.8
		c-0.2,0-0.4-0.1-0.7-0.3l-4.4-3.6c-0.2-0.2-0.1-0.6,0.3-1.1c0.4-0.5,0.7-0.8,0.9-0.9c0.2-0.1,0.6-0.1,1,0c0.7,0.2,1.3,0.1,1.8-0.1
		l3-1.5l7.2-15.9c0.2-0.5,0.3-1,0.1-1.5c-0.1-0.3,0-0.7,0.2-1l0.7-0.8c0.3-0.4,0.7-0.4,1.1-0.1l4.3,3.5c0.5,0.4,0.6,1.1,0.2,1.9
		l-4.8,9.6L366.4,63.6z"/>
	<path id="XMLID_148_" fill="#FFFFFF" d="M328.8,49.8c-1.1-0.6-1.9-1.5-2.3-2.8s-0.3-2.4,0.4-3.6c0.6-1.1,1.5-1.9,2.8-2.3
		s2.4-0.2,3.6,0.4c1.1,0.6,1.9,1.5,2.3,2.8c0.4,1.2,0.3,2.4-0.4,3.6c-0.6,1.1-1.6,1.9-2.8,2.3C331.1,50.5,329.9,50.4,328.8,49.8z"/>
	<path id="XMLID_150_" fill="#FFFFFF" d="M307.3,24.6l-7.5,23.7c0,0.3,0.1,0.5,0.5,0.8c0.3,0.2,0.5,0.4,0.5,0.7
		c0.1,0.2,0,0.7-0.2,1.4c-0.2,0.5-0.3,0.8-0.6,0.9s-0.7,0-1.4-0.2l-9.4-3c-2.7-0.8-4.5-2.8-5.5-5.8c-1-3-0.6-7.4,1.2-13.1
		c1.6-5.2,3.7-8.8,6.2-10.9c2.5-2.1,5.2-2.6,8-1.8l10.3,3.3c0.3,0.1,0.5,0.2,0.5,0.4c0.1,0.2,0,0.5-0.1,1c-0.2,0.6-0.3,0.9-0.4,1
		c-0.1,0.1-0.3,0.2-0.7,0.3C308.1,23.4,307.5,23.9,307.3,24.6z M292.2,47.2l8.6-27.1l-1-0.3c-0.7-0.2-1.4-0.1-1.9,0.4
		s-1,1.5-1.5,3.1l-6.3,20c-0.3,0.9-0.3,1.6,0,2.3c0.2,0.7,0.8,1.1,1.5,1.4L292.2,47.2z"/>
	<path id="XMLID_153_" fill="#FFFFFF" d="M276,26.1l1.7-8.2c0.2-1.1,0.2-2-0.1-2.7s-0.8-1.1-1.4-1.3c-1-0.2-1.9,0.1-2.7,0.8
		c-0.8,0.7-1.4,1.9-1.7,3.3c-0.2,0.8-0.4,1.3-0.5,1.4c-0.2,0.1-0.7,0.1-1.5-0.1c-0.7-0.1-1.2-0.3-1.3-0.5s-0.2-0.6-0.1-1.2
		c0.4-2.1,1.5-3.8,3.1-5.1s3.6-1.8,5.8-1.3c2.5,0.5,4.4,2.1,5.7,4.8c1.3,2.7,1.5,6.3,0.5,10.9c-0.9,4.6-2.5,8-4.6,10.1
		c-2.1,2.1-4.5,2.9-7.2,2.3c-2.3-0.5-3.9-1.9-4.9-4.2s-1.1-5.4-0.3-9.1l0.4-1.9L276,26.1z M272.8,28.1l-1.4,6.7
		c-0.3,1.3,0.1,2,1,2.2c0.9,0.2,1.5-0.4,1.8-1.6l1.4-6.7L272.8,28.1z"/>
	<path id="XMLID_156_" fill="#FFFFFF" d="M255.5,20.8l-3.5,10.9c-0.1,0.2-0.1,0.4-0.1,0.7c-0.1,0.6,0.1,1,0.5,1.4
		c0.3,0.2,0.4,0.5,0.3,0.9l-0.1,1.1c0,0.3-0.2,0.5-0.5,0.4l-3.9-0.4c-0.3,0-0.5-0.1-0.6-0.2c-0.1-0.1-0.1-0.3,0-0.6l0.1-1
		c0-0.3,0.1-0.4,0.1-0.5c0-0.1,0.2-0.2,0.5-0.4c0.5-0.3,0.8-0.8,1.1-1.7l6.7-21.1c0.4-1.2,0.6-1.8,0.7-1.9c0.1-0.1,0.3-0.1,0.6-0.1
		l3.5,0.4c0.2,0,0.3,0.6,0.4,1.7l2,23c0.1,0.7,0.2,1.1,0.5,1.4c0.3,0.4,0.5,0.7,0.5,0.9c-0.1,0.9-0.2,1.5-0.3,1.6
		c-0.1,0.1-0.4,0.1-0.8,0.1l-7.2-0.8c-0.4,0-0.6-0.2-0.8-0.3c-0.1-0.2-0.1-0.6-0.1-1.3c0-0.4,0.1-0.6,0.2-0.7s0.3-0.2,0.6-0.3
		c0.4-0.2,0.6-0.4,0.6-0.8c0-0.3,0-0.6,0-1L255.5,20.8z"/>
	<path id="XMLID_158_" fill="#FFFFFF" d="M239.6,21.9l0.2-8.4c0-1.1-0.2-2-0.6-2.6c-0.4-0.6-1-1-1.6-1c-1,0-1.9,0.4-2.5,1.3
		s-1,2.1-1.1,3.6c0,0.8-0.1,1.3-0.3,1.5c-0.1,0.2-0.6,0.2-1.5,0.2c-0.7,0-1.2-0.1-1.4-0.3c-0.2-0.2-0.3-0.5-0.3-1.1
		c0-2.1,0.8-4,2.2-5.6c1.4-1.6,3.2-2.4,5.5-2.3c2.6,0.1,4.8,1.3,6.5,3.7c1.8,2.4,2.6,5.9,2.5,10.6s-1,8.3-2.7,10.7
		c-1.7,2.4-3.9,3.6-6.6,3.6c-2.3,0-4.2-1.1-5.5-3.2c-1.4-2.1-2-5.1-1.9-8.9l0-1.9L239.6,21.9z M236.8,24.4l-0.1,6.8
		c0,1.3,0.4,1.9,1.3,2c0.9,0,1.4-0.6,1.4-1.9l0.1-6.8L236.8,24.4z"/>
	<path id="XMLID_161_" fill="#FFFFFF" d="M229.2,38.9l0.1,1c0,0.4-0.3,0.7-0.8,0.7l-6.3,0.3c-0.3,0-0.6,0-0.7,0
		c-0.1,0-0.2-0.3-0.2-0.7l-1.5-28.6c0-0.6-0.3-1-0.7-1.1c-0.3-0.1-0.4-0.3-0.5-0.7l-0.1-1.2c0-0.4,0.3-0.7,0.9-0.7l7.5-0.4
		c0.4,0,0.6,0.2,0.7,0.6l0.1,1.2c0,0.5-0.2,0.8-0.6,1.1c-0.3,0.2-0.4,0.3-0.5,0.4c-0.1,0.1-0.1,0.3-0.1,0.7l1.3,25.4
		c0,0.5,0.2,0.8,0.6,0.9C229,38,229.2,38.4,229.2,38.9z"/>
	<path id="XMLID_163_" fill="#FFFFFF" d="M210,37.3c-2.5,0.3-4.8-0.5-6.8-2.6c-2-2.1-3.3-5.3-3.9-9.8c-0.6-4.9-0.2-8.6,1.2-11.4
		c1.4-2.7,3.4-4.2,6-4.6c1.8-0.2,3.4,0.1,4.9,1.1c1.5,1,2.7,2.4,3.6,4.2c1,1.8,1.6,4.4,2.1,7.7c0.6,4.7,0.3,8.4-1.1,11
		C214.7,35.5,212.7,37,210,37.3z M207.9,32.4c0.2,1.7,0.8,2.5,1.8,2.3c1.1-0.1,1.5-1.2,1.2-3.3l-2.2-16.9c-0.3-2-0.9-3-1.8-2.9
		c-1.1,0.1-1.5,1.2-1.2,3.3L207.9,32.4z"/>
	<path id="XMLID_166_" fill="#FFFFFF" d="M192,38.2c-0.6,0.9-1.2,1.7-1.8,2.2c-0.6,0.5-1.3,0.9-2.2,1.1c-2,0.5-3.8-0.2-5.2-2.1
		c-1.5-1.9-2.7-5.2-3.8-9.9c-0.7-3-1.1-5.6-1.3-7.6s0.2-3.8,0.9-5.3c0.8-1.5,1.8-2.4,3.2-2.7c1.7-0.4,3.3,0.2,4.9,1.8l-1-4.5
		c-0.1-0.5-0.4-0.7-1-0.8c-0.5-0.1-0.9-0.3-1-0.8l-0.2-0.7c-0.1-0.3-0.1-0.5,0-0.5c0.1-0.1,0.2-0.1,0.5-0.2l7.7-1.8
		c0.5-0.1,0.8-0.1,0.9,0.2l0.2,0.7c0.1,0.5,0,0.9-0.4,1.3c-0.2,0.2-0.3,0.4-0.2,0.7l6.1,25.8c0.1,0.5,0.4,0.8,0.8,1
		c0.3,0.1,0.5,0.2,0.5,0.3c0.1,0.1,0.1,0.3,0.2,0.6l0.1,0.6c0.1,0.4,0.1,0.6,0,0.7c-0.1,0.1-0.2,0.2-0.6,0.2l-6.1,1.4
		c-0.4,0.1-0.6,0.1-0.7,0c-0.1-0.1-0.2-0.3-0.3-0.7L192,38.2z M188.1,35.1c0.2,0.8,0.5,1.4,0.9,1.7c0.4,0.3,0.8,0.4,1.2,0.4
		c0.3-0.1,0.6-0.3,0.8-0.7c0.3-0.4,0.3-0.9,0.2-1.3l-3.9-16.8c-0.1-0.4-0.4-0.7-0.8-1c-0.5-0.3-0.9-0.4-1.4-0.3
		c-0.8,0.2-1.1,0.9-0.8,2.2L188.1,35.1z"/>
	<path id="XMLID_169_" fill="#FFFFFF" d="M169.6,32.5l-2.7-7.9c-0.4-1-0.8-1.8-1.5-2.3c-0.6-0.5-1.2-0.6-1.9-0.4
		c-1,0.3-1.6,1-1.9,2.1c-0.3,1-0.2,2.3,0.2,3.7c0.3,0.8,0.3,1.3,0.3,1.5c-0.1,0.2-0.5,0.4-1.3,0.7c-0.7,0.2-1.2,0.3-1.4,0.2
		c-0.2-0.1-0.5-0.4-0.6-1c-0.7-2-0.6-4,0.1-6c0.8-2,2.2-3.4,4.3-4.1c2.4-0.8,4.9-0.4,7.4,1.2c2.5,1.6,4.5,4.7,6,9.1
		c1.5,4.5,1.9,8.1,1.1,11c-0.8,2.9-2.5,4.8-5,5.6c-2.2,0.8-4.3,0.4-6.3-1.1c-2-1.5-3.6-4.1-4.9-7.7l-0.6-1.8L169.6,32.5z
		 M167.8,35.8l2.2,6.4c0.4,1.2,1.1,1.7,1.9,1.4c0.9-0.3,1.1-1.1,0.7-2.3l-2.2-6.4L167.8,35.8z"/>
	<path id="XMLID_172_" fill="#FFFFFF" d="M155.6,46.7c0,0.4,0,1,0.1,1.8c0.2,1.8,0.2,3.1-0.1,3.7s-0.7,1-1.2,1.3
		c-0.8,0.3-1.5,0.2-2.2-0.3c-0.7-0.5-1.3-1.4-1.8-2.4c-1-2.3-0.9-3.8,0.4-4.3c0.7-0.3,1.3-0.1,2,0.5c0.4,0.3,0.7,0.5,0.9,0.4
		c0.6-0.2,0.6-1,0-2.2l-6.6-15c-0.2-0.5-0.6-0.7-1.1-0.8c-0.5,0-0.9-0.3-1.1-0.7l-0.4-0.8c-0.1-0.3-0.2-0.5-0.1-0.6
		c0-0.1,0.2-0.2,0.5-0.4l7.1-3.1c0.5-0.2,0.8-0.1,1,0.4l0.5,1c0.2,0.4,0.1,0.6,0,0.8c-0.3,0.4-0.4,0.8-0.2,1.3l8.3,18.9
		c0.2,0.4,0.5,0.7,0.9,0.7c0.4,0,0.7,0.1,0.8,0.2c0.1,0.1,0.3,0.4,0.5,0.9c0.2,0.5,0.3,0.8,0.2,0.9s-0.3,0.3-0.6,0.5l-5.1,2.2
		c-0.2,0.1-0.4,0.1-0.6,0c-0.1-0.1-0.3-0.4-0.5-0.9L155.6,46.7z"/>
	<path id="XMLID_174_" fill="#FFFFFF" d="M133.7,71.3l-3.7,2.5l-21.8-32.2l3.7-2.5L133.7,71.3z"/>
	<path id="XMLID_176_" fill="#FFFFFF" d="M92.7,82.9l-8.8-8.9c-0.5-0.5-1-0.5-1.8-0.1c-0.4,0.2-0.6,0.3-0.8,0.3
		c-0.2,0-0.4-0.2-0.8-0.6c-0.5-0.5-0.8-0.9-0.8-1.1c0-0.2,0.1-0.4,0.5-0.7l6.7-6.6c0.4-0.4,0.7-0.5,0.9-0.5c0.3,0,0.6,0.3,1.1,0.8
		c0.3,0.3,0.5,0.5,0.5,0.7c0,0.1,0,0.4-0.2,0.8c-0.2,0.5-0.3,0.9-0.3,1.1s0.1,0.4,0.4,0.6l17.4,17.6c0.3,0.3,0.5,0.4,0.7,0.4
		c0.2,0,0.6,0,1.1-0.2c0.3-0.1,0.7,0,1.1,0.4c0,0,0.2,0.3,0.6,0.7c0.3,0.5,0.3,0.9-0.1,1.3l-9.1,9c-0.3,0.3-0.5,0.4-0.7,0.4
		c-0.2,0-0.5-0.1-0.9-0.4c-0.1,0-0.2-0.1-0.3-0.2L95.3,95c-0.2-0.2-0.4-0.3-0.6-0.5c-0.3-0.3-0.2-0.7,0.2-1.2
		c0.6-0.6,1.1-0.9,1.5-0.8c0.4,0.1,1.2,0.4,2.4,1c0.8,0.4,1.3,0.5,1.7,0.5s0.8-0.2,1.2-0.6c0.1-0.1,0.3-0.3,0.6-0.7l-8.2-8.3
		l-0.7,0.7c-0.4,0.4-0.6,0.7-0.5,1.1c0,0.3,0.2,0.7,0.6,1.3c0.4,0.6,0.6,1,0.7,1.2c0.1,0.2-0.2,0.6-0.8,1.2
		c-0.4,0.4-0.7,0.6-0.8,0.6c-0.2,0-0.4-0.1-0.6-0.3l-5.2-5.3c-0.2-0.2-0.3-0.4-0.3-0.6c0-0.1,0.2-0.4,0.6-0.8
		c0.5-0.5,0.9-0.7,1.2-0.7c0.3,0,0.8,0.3,1.5,0.9c0.7,0.6,1.4,0.5,2-0.1L92.7,82.9z"/>
	<path id="XMLID_178_" fill="#FFFFFF" d="M92.5,94.8c0.2-0.1,0.3-0.1,0.4-0.2c0.3-0.2,0.6-0.2,0.8-0.2c0.2,0,0.4,0.2,0.8,0.5
		c0.2,0.2,0.4,0.3,0.5,0.4c0.3,0.3,0.5,0.5,0.5,0.7c0,0.2-0.1,0.4-0.3,0.7l-4.1,4.9c-0.2,0.2-0.4,0.4-0.5,0.3
		c-0.1,0-0.3-0.1-0.6-0.4l-15.5-13c-1.4-1.1-2.3-1.3-3-0.6c-0.5,0.6-0.6,1.2-0.4,1.9L85.6,102c0.4,0.3,0.8,0.4,1.3,0.2
		c0.3-0.1,0.5-0.1,0.6,0c0.2,0.1,0.6,0.4,1.3,1c0.3,0.3,0.3,0.6,0,0.9l-4.3,5.1c-0.2,0.2-0.3,0.3-0.4,0.3c-0.1,0-0.3-0.1-0.6-0.4
		L65.5,94c-0.3-0.3-0.7-0.4-1.1-0.2c-0.5,0.2-0.9,0.1-1.4-0.3c-0.6-0.5-1-0.8-1-1c0-0.1,0.1-0.3,0.3-0.6l4-4.8
		c0.3-0.3,0.5-0.5,0.7-0.5c0.2,0,0.5,0.1,0.9,0.4l0.4,0.3C68.7,87.8,69,88,69,88c-0.1-2.9,0.4-4.9,1.3-6.1c0.8-1,1.8-1.5,3-1.6
		c1.2-0.1,2.7,0.7,4.6,2.3L92.5,94.8z"/>
	<path id="XMLID_180_" fill="#FFFFFF" d="M85.9,113.2l0.8,0.6c0.4,0.3,0.4,0.6,0,1.1l-3.7,5.2c-0.2,0.3-0.4,0.4-0.5,0.5
		c-0.1,0.1-0.3,0-0.7-0.3l-23.3-16.6c-0.5-0.4-0.9-0.4-1.3-0.2c-0.3,0.2-0.5,0.2-0.8-0.1l-1-0.7c-0.3-0.2-0.3-0.6,0-1.1l4.4-6.1
		c0.2-0.3,0.5-0.4,0.9-0.1l1,0.7c0.4,0.3,0.6,0.7,0.5,1.1c0,0.3,0,0.5,0,0.6c0.1,0.1,0.2,0.3,0.5,0.5L83.5,113
		c0.4,0.3,0.8,0.3,1.1,0.1C85,112.8,85.5,112.9,85.9,113.2z"/>
	<path id="XMLID_182_" fill="#FFFFFF" d="M80,121.4l0.9,0.5c0.4,0.2,0.4,0.6,0.1,1.1l-3.4,5.4c-0.2,0.3-0.3,0.5-0.4,0.5
		c-0.1,0.1-0.3,0-0.7-0.2l-24.2-15.3c-0.5-0.3-1-0.4-1.3-0.1c-0.2,0.2-0.5,0.2-0.8,0l-1-0.6c-0.4-0.2-0.4-0.6,0-1.1l4-6.4
		c0.2-0.4,0.5-0.4,0.9-0.2l1,0.6c0.4,0.3,0.6,0.6,0.6,1.1c0,0.3,0,0.5,0,0.6c0.1,0.1,0.2,0.3,0.5,0.4l21.5,13.6
		c0.4,0.3,0.8,0.3,1.1,0C79.1,121.1,79.6,121.1,80,121.4z"/>
	<path id="XMLID_184_" fill="#FFFFFF" d="M66.7,146.8c0,0.1,0.2,0.4,0.5,1c0.2,0.4,0.2,0.7,0.1,1.1c0,0.1-0.3,0.4-0.6,1
		c-0.2,0.1-0.5,0-0.9-0.1l-6.7-2c-0.4-0.1-0.6-0.2-0.6-0.2c-0.2-0.1-0.4-0.3-0.4-0.4c0-0.2,0.1-0.5,0.4-1.1c0.3-0.6,0.6-1,0.8-1.1
		c0.2-0.1,1.1-0.1,2.5-0.1c3,0.1,4.7-0.3,5.1-1.2c0.3-0.6,0-1.1-0.9-1.5c-1.1-0.5-3.6-0.6-7.7-0.2c-4.6,0.4-7.9,0.5-9.9,0.4
		c-1.9-0.1-3.9-0.7-5.9-1.6c-2.4-1.1-3.9-2.6-4.7-4.3c-0.7-1.7-0.8-3.3-0.1-4.7c0.4-0.9,1.1-1.6,2-2.2c0.4-0.2,0.6-0.4,0.7-0.6
		c0.1-0.2,0-0.3-0.2-0.6c-0.4-0.4-0.4-1,0-1.8c0.1-0.3,0.3-0.5,0.4-0.5c0.1-0.1,0.4,0,0.8,0.1l6.6,2c0.8,0.3,1.3,0.4,1.3,0.4
		c0.4,0.2,0.4,0.6,0.1,1.2c-0.4,0.9-0.8,1.4-1.1,1.4c-0.3,0-1,0-1.9-0.1c-3.5-0.4-5.5,0-6.1,1.1c-0.2,0.4-0.2,0.8,0,1.2
		c0.2,0.4,0.5,0.7,0.9,0.9c0.8,0.4,1.8,0.5,3.2,0.5c1.3-0.1,2.9-0.2,4.5-0.4c4.1-0.4,7.2-0.6,9.5-0.5c2.3,0.1,4.4,0.6,6.3,1.5
		c2.2,1.1,3.7,2.4,4.6,4c0.8,1.6,0.9,3.1,0.3,4.5C69.2,144.9,68.2,145.9,66.7,146.8z"/>
	<path id="XMLID_186_" fill="#FFFFFF" d="M57.6,150.1l0.3-0.7c0.1-0.2,0.2-0.3,0.2-0.4c0.1,0,0.2,0,0.5,0.1l1.4,0.5
		c0.3,0.1,0.4,0.2,0.5,0.3c0.1,0.1,0,0.3,0,0.6c-0.2,1-0.1,2.1,0.4,3.4c0.5,1.3,1.2,2.2,2.2,2.8c0.3,0.2,0.5,0.4,0.6,0.5
		c0,0.1,0,0.3-0.1,0.6l-0.5,1.2c-0.1,0.3-0.4,0.4-0.9,0.2l-4.4-1.7l-0.5,1.2c-0.2,0.4-0.5,0.6-0.9,0.4l-1.4-0.5
		c-0.4-0.2-0.5-0.5-0.3-0.9l0.5-1.2l-19.7-7.9c-0.7-0.3-1.3-0.2-1.8,0.3c-0.3,0.2-0.5,0.4-0.7,0.4c-0.2,0-0.6-0.1-1.2-0.3
		c-0.3-0.1-0.5-0.2-0.5-0.3s0-0.2,0.1-0.5l2.4-6c1.2-0.6,2.6-0.6,4.2,0.1L57.6,150.1z"/>
	<path id="XMLID_188_" fill="#FFFFFF" d="M45.6,167.6l3.8,1.2c1,0.3,1.7,0.1,2-0.8c0.4-1.2-0.3-2-1.8-2.5c-0.9-0.3-1.5-0.6-1.8-0.9
		c-0.3-0.3-0.5-0.9-0.5-1.7c0-0.8,0.1-1.6,0.3-2.4c0.5-1.7,1.7-2.2,3.4-1.7c1.7,0.5,2.8,1.7,3.4,3.4c0.6,1.8,0.6,3.8-0.2,6.1
		c-0.5,1.5-1.1,2.8-1.9,3.9c-0.8,1.1-1.8,1.9-3,2.3c-1.2,0.4-2.4,0.5-3.6,0.1l-17.9-5.5c-0.1,0-0.4,0.1-0.8,0.4
		c-0.3,0.2-0.6,0.2-1,0.1c-0.5-0.2-0.9-0.3-1-0.6c-0.2-0.2-0.3-0.6-0.3-1.2c0-0.6,0.1-1.3,0.4-2.2c0.3-1,0.8-1.8,1.3-2.4
		c0.6-0.6,1.5-0.9,2.7-0.9c-0.8-1.5-1.3-2.7-1.4-3.5s0-1.6,0.2-2.3c0.5-1.7,1.6-2.7,3.1-3.2c1.6-0.5,3.8-0.3,6.8,0.6
		c2.9,0.9,4.9,2,5.7,3.2c0.9,1.2,1.4,3.2,1.6,6C45.3,165,45.5,166.4,45.6,167.6z M43.1,166.8c-0.2-1.7-0.7-2.8-1.4-3.3
		c-0.7-0.5-2.5-1.3-5.4-2.1c-2.1-0.6-3.5-0.9-4.1-0.9c-0.6,0.1-1,0.4-1.2,1c-0.3,1,0.4,1.8,2,2.3L43.1,166.8z"/>
	<path id="XMLID_191_" fill="#FFFFFF" d="M45.8,184.9l-19.4-4.1c-0.5-0.1-0.9-0.1-1.3,0.1c-0.4,0.2-0.7,0.5-0.8,1
		c-0.1,0.7,0.2,1.3,0.9,1.8s1.8,1,3.1,1.2l0.6,0.1c0.7,0.1,1.1,0.4,1.2,0.7c0.1,0.3,0.1,0.7-0.1,1.4c-0.1,0.5-0.3,0.9-0.5,1.1
		s-0.7,0.2-1.3,0c-2.1-0.4-3.8-1.4-5.1-2.8c-1.3-1.4-1.7-3.1-1.3-5.1c0.5-2.3,2.1-4,4.7-5c2.7-1,6.2-1,10.5-0.1
		c3.2,0.7,5.8,1.6,7.8,2.9c2,1.2,3.4,2.5,4.2,3.8s1.1,2.8,0.7,4.4c-0.4,1.9-1.4,3.3-2.9,4.2c-1.5,0.9-3.1,1.1-4.8,0.7
		c-0.9-0.2-1.6-0.5-2.1-1c-0.5-0.5-0.7-1.1-0.6-1.9c0.2-0.8,0.6-1.3,1.3-1.6s1.5-0.4,2.3-0.2c0.4,0.1,0.8,0.2,1.3,0.4
		c0.6,0.2,1,0.4,1.3,0.4c0.3,0.1,0.7,0,1-0.2c0.3-0.2,0.5-0.5,0.5-0.8c0.1-0.3,0-0.6-0.2-0.9C46.4,185.2,46.1,185,45.8,184.9z"/>
	<path id="XMLID_193_" fill="#FFFFFF" d="M28,198.7l-5.5-0.6c-0.4,0-0.7,0.1-0.9,0.4c-0.2,0.3-0.5,0.4-0.8,0.3l-1.1-0.1
		c-0.5-0.1-0.7-0.3-0.7-0.9l0.9-7.4c0.1-0.5,0.4-0.7,1-0.6l1,0.1c0.2,0,0.5,0.3,0.7,0.7c0.2,0.4,0.4,0.6,0.5,0.6
		c0.1,0,0.3,0.1,0.5,0.1l24.4,2.8c0.9,0.1,1.5-0.1,2-0.6c0.2-0.2,0.3-0.2,0.4-0.3c0.1,0,0.4,0,0.8,0.1c0.9,0.1,1.4,0.2,1.5,0.2
		c0.1,0,0.2,0.3,0.1,0.6l-0.7,6.5c0,0.3-0.1,0.5-0.2,0.6c-0.1,0.1-0.4,0.1-0.8,0l-17.7-2l8.1,4.7c0.5,0.3,0.9,0.5,1.1,0.5
		c0.4,0.1,0.8-0.2,1.2-0.8c0.1-0.3,0.3-0.4,0.5-0.5s0.5-0.1,1,0c0.6,0.1,1,0.2,1.1,0.3s0.2,0.4,0.1,0.7l-0.7,5.6
		c-0.1,0.3-0.5,0.4-1.1,0.3c-0.6-0.1-1-0.2-1.2-0.3c-0.2-0.1-0.4-0.4-0.5-0.8c-0.2-0.6-0.6-1.1-1.1-1.4l-2.8-1.8l-17.3,2.4
		c-0.5,0.1-1,0.3-1.3,0.7c-0.2,0.3-0.5,0.4-0.9,0.3l-1.1-0.1c-0.5-0.1-0.7-0.4-0.7-0.9l0.6-5.5c0.1-0.7,0.6-1.1,1.5-1.2l10.7-1.1
		L28,198.7z"/>
	<path id="XMLID_195_" fill="#FFFFFF" d="M36.4,237.9c0.1,1.3-0.3,2.4-1.2,3.4c-0.9,1-1.9,1.5-3.2,1.6c-1.3,0.1-2.4-0.3-3.4-1.2
		c-1-0.9-1.5-1.9-1.6-3.2c-0.1-1.3,0.3-2.4,1.2-3.4s1.9-1.5,3.2-1.6c1.3-0.1,2.4,0.3,3.4,1.2C35.8,235.5,36.4,236.6,36.4,237.9z"/>
	<path id="XMLID_197_" fill="#FFFFFF" d="M26.6,269.4l24-6.3c0.3-0.1,0.4-0.4,0.4-0.9c0-0.4,0.1-0.6,0.3-0.8s0.6-0.3,1.3-0.5
		c0.5-0.1,0.8-0.1,1,0c0.2,0.1,0.4,0.6,0.6,1.3l2.5,9.5c0.7,2.7,0,5.3-2,7.7c-2,2.4-6,4.4-11.8,5.9c-5.3,1.4-9.5,1.6-12.5,0.5
		s-5-3-5.7-5.8l-2.7-10.5c-0.1-0.3-0.1-0.5,0.1-0.7c0.1-0.1,0.4-0.3,0.9-0.4c0.6-0.1,0.9-0.2,1.1-0.2c0.2,0,0.4,0.2,0.6,0.4
		C25.1,269.4,25.8,269.6,26.6,269.4z M53.7,270.2l-27.5,7.2l0.3,1.1c0.2,0.7,0.6,1.2,1.3,1.4c0.7,0.2,1.8,0.1,3.4-0.3l20.3-5.3
		c0.9-0.2,1.6-0.6,2-1.2c0.4-0.6,0.6-1.2,0.4-2L53.7,270.2z"/>
	<path id="XMLID_200_" fill="#FFFFFF" d="M44.5,295.1l-7.9,3c-1,0.4-1.8,0.9-2.2,1.5c-0.4,0.6-0.5,1.3-0.3,1.9
		c0.4,1,1.1,1.6,2.1,1.9c1,0.3,2.3,0.2,3.7-0.3c0.8-0.3,1.3-0.4,1.5-0.3c0.2,0.1,0.5,0.5,0.8,1.3c0.3,0.7,0.4,1.2,0.3,1.4
		c-0.1,0.2-0.4,0.5-1,0.7c-2,0.7-4,0.8-6,0.1c-2-0.7-3.4-2.1-4.2-4.2c-0.9-2.4-0.6-4.9,1-7.4c1.6-2.5,4.5-4.6,9-6.3s8.1-2.1,11-1.5
		c2.9,0.7,4.8,2.3,5.8,4.8c0.8,2.2,0.5,4.3-0.9,6.3s-4,3.7-7.5,5.1l-1.8,0.7L44.5,295.1z M47.9,296.8l6.4-2.4c1.2-0.5,1.6-1.1,1.3-2
		c-0.3-0.9-1.1-1.1-2.3-0.6l-6.4,2.4L47.9,296.8z"/>
	<path id="XMLID_203_" fill="#FFFFFF" d="M50.9,315.3l11.1-2.8c0.2-0.1,0.4-0.1,0.6-0.2c0.5-0.3,0.8-0.6,0.9-1.2
		c0-0.3,0.2-0.6,0.6-0.8l1-0.5c0.3-0.1,0.5-0.1,0.6,0.2l1.7,3.5c0.1,0.3,0.2,0.5,0.2,0.6c0,0.1-0.2,0.2-0.5,0.4l-0.9,0.4
		c-0.2,0.1-0.4,0.2-0.5,0.2c-0.1,0-0.3-0.1-0.6-0.3c-0.5-0.3-1.1-0.3-2,0l-21.4,5.6c-1.2,0.3-1.9,0.5-2,0.5c-0.1,0-0.3-0.2-0.4-0.4
		l-1.5-3.2c-0.1-0.2,0.3-0.6,1.2-1.3l18.5-13.9c0.5-0.4,0.8-0.8,0.9-1.2c0.1-0.5,0.3-0.8,0.5-0.9c0.8-0.4,1.3-0.6,1.5-0.6
		c0.1,0,0.3,0.2,0.5,0.6l3.1,6.5c0.2,0.4,0.2,0.6,0.1,0.8c-0.1,0.2-0.4,0.4-1,0.7c-0.3,0.2-0.6,0.2-0.7,0.2s-0.3-0.1-0.6-0.3
		c-0.3-0.2-0.7-0.3-1-0.1c-0.2,0.1-0.5,0.3-0.8,0.5L50.9,315.3z"/>
	<path id="XMLID_205_" fill="#FFFFFF" d="M60.3,328.1l-7.2,4.3c-0.9,0.6-1.6,1.2-1.9,1.9s-0.3,1.3,0,1.9c0.5,0.9,1.3,1.4,2.4,1.5
		c1.1,0.1,2.3-0.3,3.6-1c0.7-0.4,1.2-0.6,1.4-0.6c0.2,0,0.5,0.4,1,1.1c0.4,0.6,0.6,1.1,0.5,1.3c0,0.2-0.3,0.5-0.8,0.8
		c-1.8,1.1-3.8,1.5-5.9,1.1c-2.1-0.3-3.7-1.5-4.9-3.4c-1.3-2.2-1.5-4.7-0.4-7.5c1.1-2.8,3.6-5.3,7.7-7.8c4-2.4,7.5-3.6,10.5-3.4
		c3,0.2,5.2,1.4,6.6,3.7c1.2,2,1.3,4.1,0.2,6.4c-1.1,2.3-3.2,4.4-6.5,6.4l-1.6,1L60.3,328.1z M64,329.2l5.8-3.5
		c1.1-0.7,1.4-1.4,0.9-2.2c-0.5-0.8-1.3-0.9-2.4-0.2l-5.8,3.5L64,329.2z"/>
	<path id="XMLID_208_" fill="#FFFFFF" d="M80.2,327.9l0.8-0.6c0.4-0.3,0.7-0.1,1,0.3l3.7,5.2c0.2,0.3,0.3,0.5,0.3,0.6
		c0,0.1-0.1,0.3-0.5,0.5l-23.4,16.5c-0.5,0.4-0.7,0.8-0.6,1.2c0.1,0.3,0,0.5-0.3,0.8l-1,0.7c-0.3,0.2-0.7,0.1-1.1-0.4l-4.3-6.1
		c-0.2-0.3-0.2-0.6,0.2-0.9l1-0.7c0.4-0.3,0.8-0.3,1.2-0.1c0.3,0.1,0.5,0.2,0.6,0.2c0.1,0,0.3-0.1,0.6-0.3l20.7-14.7
		c0.4-0.3,0.5-0.6,0.5-1C79.6,328.6,79.8,328.2,80.2,327.9z"/>
	<path id="XMLID_210_" fill="#FFFFFF" d="M89.2,345c1.6,2,2.1,4.4,1.5,7.2s-2.8,5.6-6.2,8.5c-3.8,3.1-7.2,4.8-10.2,5.1
		c-3,0.3-5.4-0.6-7.1-2.6c-1.2-1.4-1.7-3-1.7-4.7c0-1.8,0.6-3.5,1.6-5.3c1-1.8,2.8-3.7,5.4-5.8c3.7-3,6.9-4.7,9.9-5
		C85.1,342,87.5,342.9,89.2,345z M86.2,349.4c1.3-1.1,1.6-2,1-2.8c-0.7-0.8-1.8-0.6-3.4,0.8l-13.1,10.9c-1.6,1.3-2.1,2.4-1.5,3.1
		c0.7,0.8,1.8,0.6,3.4-0.7L86.2,349.4z"/>
	<path id="XMLID_213_" fill="#FFFFFF" d="M99.5,359.7c1.1,0,2,0.1,2.8,0.3c0.7,0.2,1.4,0.6,2.1,1.3c1.5,1.5,1.8,3.3,1,5.6
		c-0.8,2.2-2.9,5.1-6.3,8.5c-2.2,2.2-4.1,3.9-5.7,5.1s-3.3,1.9-5,2s-3-0.3-4-1.3c-1.2-1.2-1.6-2.9-1.1-5.1l-3.2,3.3
		c-0.3,0.3-0.4,0.7-0.1,1.2c0.2,0.5,0.2,0.9-0.2,1.2l-0.5,0.5c-0.2,0.2-0.3,0.3-0.4,0.3c-0.1,0-0.2-0.1-0.5-0.3l-5.6-5.5
		c-0.4-0.4-0.5-0.7-0.3-0.9l0.5-0.5c0.4-0.4,0.8-0.5,1.3-0.3c0.3,0.1,0.5,0,0.7-0.2L93.6,356c0.4-0.4,0.5-0.8,0.4-1.2
		c-0.1-0.3-0.1-0.5,0-0.6c0-0.1,0.2-0.3,0.4-0.5l0.4-0.5c0.3-0.3,0.4-0.4,0.5-0.4c0.1,0,0.3,0.1,0.5,0.4l4.5,4.4
		c0.3,0.3,0.4,0.5,0.4,0.6c0,0.1-0.1,0.3-0.4,0.6L99.5,359.7z M99,364.7c0.6-0.6,0.9-1.2,1-1.7s-0.1-0.9-0.4-1.2
		c-0.2-0.2-0.6-0.3-1.1-0.3c-0.5,0-0.9,0.2-1.2,0.5l-12.1,12.3c-0.3,0.3-0.4,0.7-0.4,1.2c0,0.6,0.2,1,0.5,1.4
		c0.6,0.6,1.3,0.4,2.3-0.5L99,364.7z"/>
	<path id="XMLID_216_" fill="#FFFFFF" d="M106.7,381.7l-5.3,6.5c-0.7,0.9-1.1,1.7-1.1,2.4c-0.1,0.8,0.2,1.4,0.7,1.8
		c0.8,0.7,1.7,0.8,2.8,0.5s2.1-1,3-2.2c0.5-0.6,0.9-1,1.1-1c0.2,0,0.7,0.2,1.3,0.7c0.6,0.5,0.9,0.8,1,1.1c0.1,0.2-0.1,0.6-0.5,1.1
		c-1.3,1.6-3,2.7-5.1,3.1c-2.1,0.4-4-0.1-5.8-1.5c-2-1.6-3-3.9-2.9-6.9c0.1-3,1.6-6.3,4.6-9.9c3-3.7,5.9-5.9,8.7-6.8
		c2.8-0.9,5.3-0.5,7.4,1.2c1.8,1.5,2.6,3.4,2.4,5.9c-0.2,2.5-1.5,5.2-3.9,8.2l-1.2,1.5L106.7,381.7z M110.4,381.5l4.3-5.3
		c0.8-1,0.9-1.8,0.1-2.4c-0.7-0.6-1.5-0.4-2.3,0.6l-4.3,5.3L110.4,381.5z"/>
	<path id="XMLID_219_" fill="#FFFFFF" d="M126.1,386c0.3-0.2,0.8-0.5,1.5-1.1c1.4-1.2,2.5-1.8,3.1-1.9c0.7-0.1,1.2,0,1.7,0.4
		c0.7,0.5,1,1.1,0.9,2c-0.1,0.9-0.5,1.8-1.1,2.8c-1.4,2.1-2.7,2.7-3.9,1.9c-0.6-0.4-0.8-1.1-0.7-2c0.1-0.5,0-0.9-0.2-1
		c-0.5-0.3-1.1,0-1.9,1.2l-9.2,13.6c-0.3,0.4-0.3,0.9-0.1,1.4c0.3,0.5,0.3,0.9,0,1.3l-0.5,0.8c-0.2,0.3-0.3,0.4-0.4,0.5
		s-0.3-0.1-0.6-0.3l-6.4-4.3c-0.4-0.3-0.5-0.7-0.2-1.1l0.6-0.9c0.2-0.3,0.5-0.5,0.7-0.4c0.5,0.1,0.9-0.1,1.2-0.5l11.6-17.1
		c0.3-0.4,0.3-0.8,0.2-1.1c-0.2-0.4-0.3-0.6-0.2-0.7s0.2-0.4,0.5-0.9c0.3-0.4,0.5-0.6,0.7-0.6c0.2,0,0.4,0.1,0.7,0.3l4.6,3.1
		c0.2,0.1,0.3,0.3,0.3,0.5s-0.2,0.5-0.5,0.9L126.1,386z"/>
	<path id="XMLID_221_" fill="#FFFFFF" d="M150.1,387.4l4,2l-17.5,34.8l-4-2L150.1,387.4z"/>
</g>
<g id="XMLID_55_">
</g>
<g id="XMLID_1_">
</g>
<g id="XMLID_224_">
</g>
<g id="XMLID_225_">
</g>
<g id="XMLID_226_">
</g>
<g id="XMLID_227_">
</g>
<g id="XMLID_228_">
</g>
</svg>
