<svg xmlns="http://www.w3.org/2000/svg" width="44.646" height="36.164" viewBox="0 0 44.646 36.164">
  <g id="SVGRepo_iconCarrier" transform="translate(53.066 -3.977) rotate(115)">
    <g id="Group_18" data-name="Group 18" transform="translate(15.625 0)">
      <g id="Group_9" data-name="Group 9" transform="translate(5.902 5.263)">
        <g id="Group_8" data-name="Group 8">
          <path id="Path_140" data-name="Path 140" d="M125.666,87.719a1.794,1.794,0,0,0-2.791-1.008l-1.515.737-1.443-3.636c-.869-2.19-3.028-2.352-4.123-1.194a3.292,3.292,0,0,0-.632,3.489l5.119,12.978a3.67,3.67,0,0,0-4.694.182l.028-.047c-1.132,1.291-.943,3.122.775,4.721l9.168,7.991,13.134-6.394.071-1.267a22.676,22.676,0,0,0-1.544-9.621l-.994-2.5q-.077-.195-.169-.38a2.673,2.673,0,0,0-3.57-1.344l-.987.475-1.115-2.81a2.112,2.112,0,0,0-2.9-1.24Z" transform="translate(-114.241 -81.174)" fill="#b6e119"/>
          <path id="Path_141" data-name="Path 141" d="M128.484,85.071l-.994-2.5c-.059-.148-.124-.3-.194-.437a3.548,3.548,0,0,0-1.916-1.78,3.153,3.153,0,0,0-2.5.116l-.383.185-.49-1.233h0l-.361-.909a2.983,2.983,0,0,0-1.587-1.677,2.573,2.573,0,0,0-2.181.062l-1.271.61a2.479,2.479,0,0,0-.854-.844,2.566,2.566,0,0,0-2.487.1l-.91.443-1.177-2.966a3.53,3.53,0,0,0-2.441-2.273,2.888,2.888,0,0,0-2.744.844,4.09,4.09,0,0,0-.782,4.312l4.46,11.307a4.761,4.761,0,0,0-1.166-.111,3.829,3.829,0,0,0-2.595,1.01.681.681,0,0,0-.115.1,3.5,3.5,0,0,0-.895,2.5,4.868,4.868,0,0,0,1.719,3.287l.017.015,9.168,7.991a.621.621,0,0,0,.409.157.606.606,0,0,0,.266-.062l13.134-6.394a.734.734,0,0,0,.394-.625l.071-1.267A23.577,23.577,0,0,0,128.484,85.071Zm-5.356.8a.662.662,0,0,0,.606.438.6.6,0,0,0,.266-.062.765.765,0,0,0,.339-.965l-1.308-3.294.378-.182a2.03,2.03,0,0,1,2.727,1.025c.052.1.1.213.144.323l.994,2.5a21.969,21.969,0,0,1,1.49,9.281l-.046.822-12.4,6.038-8.848-7.712a3.461,3.461,0,0,1-1.242-2.233,1.922,1.922,0,0,1,.431-1.3.7.7,0,0,0,.064-.064,3.077,3.077,0,0,1,3.8-.128l2.277,2.422a.617.617,0,0,0,.935-.021.789.789,0,0,0-.019-1.035l-2.216-2.357L106.426,76.53a2.5,2.5,0,0,1,.483-2.665,1.672,1.672,0,0,1,1.572-.468,2.164,2.164,0,0,1,1.489,1.427l3.838,9.669a.662.662,0,0,0,.606.438.6.6,0,0,0,.266-.062.765.765,0,0,0,.339-.965l-2.129-5.363.91-.443a1.454,1.454,0,0,1,1.347-.14,1.479,1.479,0,0,1,.573.772l2.264,5.7a.662.662,0,0,0,.606.438.6.6,0,0,0,.266-.062.765.765,0,0,0,.339-.965l-2-5.029,1.211-.581.008,0a1.376,1.376,0,0,1,1.169-.034,1.6,1.6,0,0,1,.852.9Z" transform="translate(-104.901 -71.891)"/>
          <g id="Group_6" data-name="Group 6" transform="translate(20.217 22.794)">
            <path id="Path_142" data-name="Path 142" d="M411.372,385.011a.662.662,0,0,1-.606-.438.765.765,0,0,1,.34-.965l.652-.317a.638.638,0,0,1,.871.376.764.764,0,0,1-.34.965l-.652.317A.6.6,0,0,1,411.372,385.011Z" transform="translate(-410.71 -383.23)"/>
          </g>
          <g id="Group_7" data-name="Group 7" transform="translate(11.274 24.088)">
            <path id="Path_143" data-name="Path 143" d="M276.093,405.754a.662.662,0,0,1-.606-.438.764.764,0,0,1,.34-.965l6.965-3.383a.638.638,0,0,1,.871.376.765.765,0,0,1-.34.965l-6.965,3.383A.6.6,0,0,1,276.093,405.754Z" transform="translate(-275.431 -400.907)"/>
          </g>
        </g>
      </g>
      <g id="Group_10" data-name="Group 10" transform="translate(6.897 0)">
        <path id="Path_144" data-name="Path 144" d="M121.072,3.894a.681.681,0,0,1-.647-.584L119.972.88a.734.734,0,0,1,.514-.865.666.666,0,0,1,.781.569l.453,2.429a.734.734,0,0,1-.514.865A.6.6,0,0,1,121.072,3.894Z" transform="translate(-119.958 0)"/>
      </g>
      <g id="Group_11" data-name="Group 11" transform="translate(0 2.004)">
        <path id="Path_145" data-name="Path 145" d="M16.742,29.146a.611.611,0,0,1-.347-.11l-.457-.313a.779.779,0,0,1-.214-1.008.625.625,0,0,1,.91-.237l.457.313A.779.779,0,0,1,17.3,28.8.649.649,0,0,1,16.742,29.146Z" transform="translate(-15.625 -27.368)"/>
      </g>
      <g id="Group_12" data-name="Group 12" transform="translate(2.666 3.945)">
        <path id="Path_146" data-name="Path 146" d="M58.019,56.381a.613.613,0,0,1-.363-.121l-1.41-1.027a.781.781,0,0,1-.189-1.014.623.623,0,0,1,.916-.209l1.41,1.027a.781.781,0,0,1,.189,1.014A.646.646,0,0,1,58.019,56.381Z" transform="translate(-55.948 -53.889)"/>
      </g>
      <g id="Group_13" data-name="Group 13" transform="translate(1.192 9.336)">
        <path id="Path_147" data-name="Path 147" d="M34.313,129.478a.682.682,0,0,1-.647-.584.734.734,0,0,1,.514-.865l2.193-.5a.666.666,0,0,1,.781.569.734.734,0,0,1-.514.865l-2.193.5A.607.607,0,0,1,34.313,129.478Z" transform="translate(-33.652 -127.512)"/>
      </g>
      <g id="Group_14" data-name="Group 14" transform="translate(4.101 13.569)">
        <path id="Path_148" data-name="Path 148" d="M78.325,188.872a.613.613,0,0,1-.363-.12.781.781,0,0,1-.189-1.014L79,185.665a.623.623,0,0,1,.916-.209.781.781,0,0,1,.189,1.014l-1.231,2.072A.646.646,0,0,1,78.325,188.872Z" transform="translate(-77.665 -185.335)"/>
      </g>
      <g id="Group_15" data-name="Group 15" transform="translate(13.587 6.486)">
        <path id="Path_149" data-name="Path 149" d="M221.807,90.387a.681.681,0,0,1-.647-.584.734.734,0,0,1,.514-.865l1.462-.334a.666.666,0,0,1,.781.569.734.734,0,0,1-.514.865l-1.462.334A.606.606,0,0,1,221.807,90.387Z" transform="translate(-221.146 -88.588)"/>
      </g>
      <g id="Group_16" data-name="Group 16" transform="translate(17.699 5.775)">
        <path id="Path_150" data-name="Path 150" d="M284.009,80.454a.681.681,0,0,1-.647-.584.734.734,0,0,1,.514-.865l.457-.1a.666.666,0,0,1,.781.569.734.734,0,0,1-.514.865l-.457.1A.606.606,0,0,1,284.009,80.454Z" transform="translate(-283.348 -78.885)"/>
      </g>
      <g id="Group_17" data-name="Group 17" transform="translate(11.29 1.122)">
        <path id="Path_151" data-name="Path 151" d="M187.061,18.861a.613.613,0,0,1-.363-.121.781.781,0,0,1-.189-1.014l1.231-2.072a.623.623,0,0,1,.916-.209.781.781,0,0,1,.189,1.014l-1.231,2.072A.646.646,0,0,1,187.061,18.861Z" transform="translate(-186.401 -15.324)"/>
      </g>
    </g>
  </g>
</svg>
