<svg xmlns="http://www.w3.org/2000/svg" width="564.819" height="130.06" viewBox="0 0 564.819 130.06">
  <g id="SVGRepo_iconCarrier" transform="matrix(0.407, 0.914, -0.914, 0.407, 53.872, -5.402)">
    <path id="Path_56" data-name="Path 56" d="M6.9,48.93S4.82,49,4.65,47.18s-.33-4.67,3.59-8,6.66-3.34,10.5-9.42,5.58-16.83,6.83-19.58S27.4,3.26,32.9,3s6.34,4.75,7.42,9.17,3.42,14.33,7.92,19.91S56.74,39.84,58.49,45s.58,6.42.16,6.5-4.41.33-4.41.33A7.34,7.34,0,0,1,54.38,54c-.19.31-4.37.87-7.06.81s-4.38-.25-4.38-.62-.18-1.75-.18-1.75l-1.82.12s.44,2.5-.06,3.25A3.78,3.78,0,0,1,38.63,57a6.7,6.7,0,0,1-.81.06s.5,2.81.19,3.31-4.07.69-7.88.63-5.62-.13-5.69-.75a31.671,31.671,0,0,1,.32-3.38s-3.07-.18-3.38-1a18.08,18.08,0,0,1-.06-4.06H19.13A2.64,2.64,0,0,1,19.07,53c-.19.37-4.69.62-8,.31s-4.38-1.25-4.38-1.56.21-2.82.21-2.82Z" fill="#1d1d1b"/>
    <path id="Path_57" data-name="Path 57" d="M7.94,47.3s-1.31-.12-1.25-.56.75-5.56,4.19-7.06,8.5-1.88,10.81-4.38,3.69-8.75,3.94-11.5,0-9.12,1.19-12.44,2-6.86,6.69-6.87c7.48,0,7.25,27.56,10.62,29.75a17,17,0,0,0,5.38,2.56,16.46,16.46,0,0,1,6.25,6.88c1.87,4.37,1.5,6.43,1.5,6.43l-2.94.25a5.54,5.54,0,0,0-5.56-4.87C43.69,45.36,43,51.36,43,51.36s-2.25.63-2.13.19-.31-14.87-1.06-17.62-2.38-3.57-3.06-3.69-1.13,1.44-1,1.62,1.93,0,2.31,5.82,1.31,16.87.62,17.37-4.81,1.06-9.06.81-5.56-.31-6.06-1.43.94-17.63,1.5-19.88,1.5-2.56,2.25-2.75A.91.91,0,0,0,28,30.61c-.13-.31-1.19-.37-2.19-.12s-2.69,1.69-3.19,7.31-.94,12.5-1.12,12.5-3.32-.25-3.32-.25.57-6-4.56-6.25-5.68,3.5-5.68,3.5Z" fill="#cbe7f5"/>
    <path id="Path_58" data-name="Path 58" d="M13.44,45.43a3,3,0,0,1,2.94,3.06c0,1.56.13,2.87-.25,3a17.3,17.3,0,0,1-4.44-.06c-2.18-.25-2.56,0-2.56-.88s-.37-5.37,4.31-5.12Z" fill="#e7413e"/>
    <path id="Path_59" data-name="Path 59" d="M48.69,47.18c3.06-.2,4,5,3.44,5.31a13.26,13.26,0,0,1-4.06.44c-2,.06-3,0-3.13-.94s-.06-4.56,3.75-4.81Z" fill="#e7413e"/>
    <path id="Path_60" data-name="Path 60" d="M24,23.68c.25,0,.31,3.62-1.07,7s-3.5,5.12-4.81,5.5a14.78,14.78,0,0,1-2.94.43s4.25-2.87,6.13-6.87S24,23.68,24,23.68Z" fill="#1f4863"/>
    <path id="Path_61" data-name="Path 61" d="M42.65,25a32,32,0,0,0,2.73,6.16c1.63,2.63,3.69,3.75,3.25,4S45.32,34.3,44,31.8A14,14,0,0,1,42.65,25Z" fill="#1f4863"/>
    <path id="Path_62" data-name="Path 62" d="M27.38,16.43c-.06-.31.38-10.5,5.5-10.63s5.25,11.38,4.75,11.56-2-.93-5.62-.62-4.44.69-4.63-.31Z" fill="#1d1d1b"/>
    <path id="Path_63" data-name="Path 63" d="M28.69,15.49c-.32-.19.63-8.75,4.38-8.38s3.75,8.25,3.19,8.38-2.07-.44-3.94-.38-3.19.63-3.63.38Z" fill="#1f4863"/>
    <g id="Group_3" data-name="Group 3">
      <path id="Path_64" data-name="Path 64" d="M36.51,20.36c.3-.25,2.25.82,2.18,1.38s.13.81-.18.75a9,9,0,0,1-2.57-1.31C35.82,20.86,36.13,20.68,36.51,20.36Z" fill="#1d1d1b"/>
      <path id="Path_65" data-name="Path 65" d="M35.63,23.55c.18-.18,2.94,1.44,3,1.88s.38,1-.06.93-3.44-1.62-3.5-2S35.44,23.74,35.63,23.55Z" fill="#1d1d1b"/>
      <path id="Path_66" data-name="Path 66" d="M34.88,26.11c.31.07,4.19,1.82,4.06,2.25s.25.75-.31.63-4.19-1.75-4.19-2.25A.65.65,0,0,1,34.88,26.11Z" fill="#1d1d1b"/>
      <path id="Path_67" data-name="Path 67" d="M29.32,34.08c.35-.26,1,.25,2.66.32s2.75,0,2.75,0,.12.62,0,.81a9.3,9.3,0,0,1-2.69.28,12,12,0,0,1-2.85-.44.94.94,0,0,1,.13-.97Z" fill="#1d1d1b"/>
      <path id="Path_68" data-name="Path 68" d="M29.35,39c.35-.27,1,.25,2.66.31s2.75,0,2.75,0,.12.63,0,.81a9,9,0,0,1-2.69.28,12.47,12.47,0,0,1-2.84-.43.91.91,0,0,1,.12-.97Z" fill="#1d1d1b"/>
      <path id="Path_69" data-name="Path 69" d="M29.26,44.65c.35-.27,1,.25,2.65.31s2.75,0,2.75,0,.13.62,0,.81a8.85,8.85,0,0,1-2.68.28,12,12,0,0,1-2.85-.44.92.92,0,0,1,.13-.96Z" fill="#1d1d1b"/>
      <path id="Path_70" data-name="Path 70" d="M49.82,38.65c.12.15,2.41,2.09,2.34,2.37s-.18.41-.28.34a31.15,31.15,0,0,1-2.47-2C49.35,39.21,49.82,38.65,49.82,38.65Z" fill="#1d1d1b"/>
      <path id="Path_71" data-name="Path 71" d="M47.35,39.33c.28,0,4.22,3.19,4.16,3.57s-.16.62-.32.62a31.954,31.954,0,0,1-4.4-3.59C46.82,39.65,47.35,39.33,47.35,39.33Z" fill="#1d1d1b"/>
      <path id="Path_72" data-name="Path 72" d="M46.29,41.93a12.19,12.19,0,0,1,2.9,2.12c-.12.16.29.38-.37.35a9.48,9.48,0,0,1-3-1.72c-.06-.19.31-.68.47-.75Z" fill="#1d1d1b"/>
    </g>
    <path id="Path_73" data-name="Path 73" d="M26.11,57.26c.07-.1,2.46.21,5.21.12a50.909,50.909,0,0,1,5.12-.2,8.22,8.22,0,0,1,.21,2.5,33,33,0,0,1-6,.29c-2.7-.09-4.54,0-4.75-.29a5.38,5.38,0,0,1,.21-2.42Z" fill="#e7413e"/>
  </g>
  <g id="SVGRepo_iconCarrier-2" data-name="SVGRepo_iconCarrier" transform="translate(507.029 69.949)">
    <path id="Path_93" data-name="Path 93" d="M56.12,25c-.41,0-1.25,1.83-2.54,4S44.5,42.52,42.21,45.43s-7.75,8.75-11,11-7.7,2.3-12.54.09-9-5.63-9.91-9.88.4-9.08,5.07-16.64S33,5.31,33.12,5,32,4,31.58,4.14c-1.5.59-15.79,19.92-19.21,25s-6,10-6.16,15.25,4.2,9.09,6.66,11.21,9.25,4.92,13.54,4.46,9.84-4.33,13.84-9.25S57.83,26.18,57.79,25.93A2.83,2.83,0,0,0,56.12,25ZM32.58,18.23C33,18.06,41.71,7,41.87,6.56s-1.29-1.25-1.58-1.17-8.88,11.29-9,12C31.16,17.77,32.16,18.39,32.58,18.23Zm7.67,2.62c.54,0,12.5-15.29,12.54-15.71s-1.08-1.25-1.46-1.25S39.16,19.15,39,19.77C38.87,20,39.71,20.85,40.25,20.85Zm5.58,4.63c.29-.05,10-12.09,10.08-12.34s-1.08-.83-1.41-.91S44.44,24,44.58,24.56C44.62,24.73,45.54,25.52,45.83,25.48Z" fill="#1d1d1b"/>
    <path id="Path_94" data-name="Path 94" d="M19.29,32.56c0-.42-1.5-1.71-1.79-1.75a.79.79,0,0,1-.79-.83c0-.67-.21-4.5,5-7.46s9.58-2.42,11.37-.84.5,2.09,2.71,2.8,5.38.58,7.25,4.08,2.54,6.46,1,9.71-3,3.08-3.83,4.87-2,5.21-3.42,5.67-4.12-.75-5-.83A21,21,0,0,0,28,48.1c-1.75.17-1.83,1-3.29.25s-2.46-3.46-4.29-3.79-4,0-4.92-2.54-1-6.54.08-7.17,3.67-1.58,3.71-2.29Z" fill="#1d1d1b"/>
    <path id="Path_95" data-name="Path 95" d="M11.87,40.6c.24-.34,1.63-.37,1.67,0s-.63,2.58-.21,3.62a7.74,7.74,0,0,0,2.46,3A14.3,14.3,0,0,1,18.5,50c.79,1,.83,1.79,2.79,2.46s2.92,1,4.25.87,3.21-.67,3.33-.54.67,1.08.46,1.21a7.88,7.88,0,0,1-4.54.5c-2.71-.38-4.83-.46-6.33-1.79s-2.21-3.84-4-4.88a5.19,5.19,0,0,1-2.8-3.33,7.69,7.69,0,0,1,.21-3.9Z" fill="#1d1d1b"/>
    <path id="Path_96" data-name="Path 96" d="M16.87,36c.49-.49,3.75-1.46,4.25-2.79A3,3,0,0,0,20,30.14c-.5-.33-1.09-.62-1-1.21a7.19,7.19,0,0,1,5.12-5.58c4.38-1.5,6-1.79,7.67-.12s1.75,2.66,4.17,3.41,3.91.38,5.2,2.42,2.17,5.25,1.5,7.42S41.21,39.56,40.54,40a6.82,6.82,0,0,0-1.79,1.58,4.64,4.64,0,0,0-.34.75,17.1,17.1,0,0,0-1.5-2.67c-.2,0-.79,0-.62.3s1.62,2.83,1.71,3.16a8.92,8.92,0,0,1-1.29,3.38c-.55.58-2.05.54-3.38.12a7.47,7.47,0,0,0-3.62-.46c-1.63.17-2.75,1-4,.25s-2-2.66-3.75-3.2-3.55-.38-4.5-1.92A8.46,8.46,0,0,1,16.87,36Z" fill="#e6e4da"/>
    <path id="Path_97" data-name="Path 97" d="M18.75,36.27a.48.48,0,0,1,.75.25,6.4,6.4,0,0,0,0,2.37c.33,1.13,1,1.63.79,1.92s-.79.58-1.08.29a5,5,0,0,1-1-2.46,4,4,0,0,1,.54-2.37Z" fill="#1d1d1b"/>
    <path id="Path_98" data-name="Path 98" d="M28.25,25.81a2.64,2.64,0,0,1,4,2.92c-.55,2.29-4.13,3.91-5.46,1.95s-.38-3.95,1.46-4.87Z" fill="#1d1d1b"/>
    <path id="Path_99" data-name="Path 99" d="M28.67,26.81a1.82,1.82,0,0,1,2.73,2c-.38,1.58-2.84,2.7-3.76,1.35a2.23,2.23,0,0,1,1.03-3.35Z" fill="#fff"/>
    <g id="Group_4" data-name="Group 4">
      <path id="Path_100" data-name="Path 100" d="M32.5,40.81c.22.1.41-.54.08-.88a4.49,4.49,0,0,0-3.79-.29c-1.5.67-2.83,3-1.75,4.29a4.15,4.15,0,0,0,3.37,1.5c.71,0,1.84-.54,1.5-.87s-2.87-.54-2.33-2S31.62,40.39,32.5,40.81Z" fill="#1d1d1b"/>
      <path id="Path_101" data-name="Path 101" d="M40.21,32.27c-.3-.21-2.88-1-3.63,1.12s-.83,3,.08,3.79a2.92,2.92,0,0,0,2.67.67c.33-.21.29-.83.08-.92s-1.79-.66-1.29-2a3.8,3.8,0,0,1,1.79-1.88,1.1,1.1,0,0,0,.3-.78Z" fill="#1d1d1b"/>
      <path id="Path_102" data-name="Path 102" d="M38.12,38.85c-.23-.23.59-.37.71-.21s.63,1,.38,1.34-.42.62-.59.41a14.069,14.069,0,0,1-.5-1.54Z" fill="#1d1d1b"/>
      <path id="Path_103" data-name="Path 103" d="M35.5,40.68A7.23,7.23,0,0,1,37,43.39c-.09.42,0,.88-.38.67A11.47,11.47,0,0,1,35,41.39C34.91,41.1,35.33,40.73,35.5,40.68Z" fill="#1d1d1b"/>
      <path id="Path_104" data-name="Path 104" d="M30.79,33.77c.24-.24.37-.5.62-.25s1.67,3.08,1.38,3.41-.29.67-.58.34a15,15,0,0,1-1.42-3.5Z" fill="#1d1d1b"/>
      <path id="Path_105" data-name="Path 105" d="M32.71,32.64c-.17-.32.29-.54.54-.41s1.5,3,1.21,3.2-.38.63-.63.3a32,32,0,0,1-1.12-3.09Z" fill="#1d1d1b"/>
      <path id="Path_106" data-name="Path 106" d="M34,30.48c.1-.25.62-.67.83-.46a8.56,8.56,0,0,1,1.08,2.66c-.08.34-.58.59-.58.59A19,19,0,0,1,34,30.48Z" fill="#1d1d1b"/>
      <path id="Path_107" data-name="Path 107" d="M35.83,28.52s.29-.46.54-.38a2.89,2.89,0,0,1,.88,1.59c-.09.29,0,.54-.38.41S35.91,28.64,35.83,28.52Z" fill="#1d1d1b"/>
    </g>
  </g>
</svg>
