<svg id="Group_1" data-name="Group 1" xmlns="http://www.w3.org/2000/svg" width="1366" height="773" viewBox="0 0 1366 773">
  <path id="Path_1" data-name="Path 1" d="M50,100l1-1H49l1,1.5Z" transform="translate(-39)" fill="#fff"/>
  <path id="Path_2" data-name="Path 2" d="M200,150l1-1h-2l1,1.5Z" transform="translate(108.38 60.387)" fill="#fff"/>
  <path id="Path_3" data-name="Path 3" d="M300,50l1-1h-2l1,1.5Z" transform="translate(200.493)" fill="#fff"/>
  <path id="Path_4" data-name="Path 4" d="M400,300l1-1h-2l1,1.5Z" transform="translate(292.606 121.179)" fill="#fff"/>
  <path id="Path_5" data-name="Path 5" d="M550,200l1-1h-2l1,1.5Z" transform="translate(430.775 80.651)" fill="#fff"/>
  <path id="Path_6" data-name="Path 6" d="M700,400l1-1h-2l1,1.5Z" transform="translate(615 161.708)" fill="#fff"/>
  <path id="Path_7" data-name="Path 7" d="M100,300l1-1H99l1,1.5Z" transform="translate(-39 121.179)" fill="#fff"/>
  <path id="Path_8" data-name="Path 8" d="M250,250l1-1h-2l1,1.5Z" transform="translate(154.437 100.915)" fill="#fff"/>
  <path id="Path_9" data-name="Path 9" d="M350,350l1-1h-2l1,1.5Z" transform="translate(246.549 141.444)" fill="#fff"/>
  <path id="Path_10" data-name="Path 10" d="M450,100l1-1h-2l1,1.5Z" transform="translate(338.662)" fill="#fff"/>
  <path id="Path_11" data-name="Path 11" d="M600,400l1-1h-2l1,1.5Z" transform="translate(476.831 161.708)" fill="#fff"/>
  <path id="Path_12" data-name="Path 12" d="M750,200l1-1h-2l1,1.5Z" transform="translate(615 80.651)" fill="#fff"/>
  <path id="Path_13" data-name="Path 13" d="M75,200l1-1H74l1,1.5Z" transform="translate(-39 80.651)" fill="#fff"/>
  <path id="Path_14" data-name="Path 14" d="M225,150l1-1h-2l1,1.5Z" transform="translate(131.408 60.387)" fill="#fff"/>
  <path id="Path_15" data-name="Path 15" d="M325,250l1-1h-2l1,1.5Z" transform="translate(223.521 100.915)" fill="#fff"/>
  <path id="Path_16" data-name="Path 16" d="M425,0l1,1h-2l1-.5Z" transform="translate(315.634)" fill="#fff"/>
  <path id="Path_17" data-name="Path 17" d="M575,300l1-1h-2l1,1.5Z" transform="translate(453.803 121.179)" fill="#fff"/>
  <path id="Path_18" data-name="Path 18" d="M725,100l1-1h-2l1,1.5Z" transform="translate(615)" fill="#fff"/>
  <path id="Path_19" data-name="Path 19" d="M125,250l1-1h-2l1,1.5Z" transform="translate(-39 100.915)" fill="#fff"/>
  <path id="Path_20" data-name="Path 20" d="M175,150l1-1h-2l1,1.5Z" transform="translate(-39 60.387)" fill="#fff"/>
  <path id="Path_21" data-name="Path 21" d="M225,300l1-1h-2l1,1.5Z" transform="translate(131.408 121.179)" fill="#fff"/>
  <path id="Path_22" data-name="Path 22" d="M275,400l1-1h-2l1,1.5Z" transform="translate(177.465 161.708)" fill="#fff"/>
  <path id="Path_23" data-name="Path 23" d="M325,100l1-1h-2l1,1.5Z" transform="translate(223.521)" fill="#fff"/>
  <path id="Path_24" data-name="Path 24" d="M375,200l1-1h-2l1,1.5Z" transform="translate(269.577 80.651)" fill="#fff"/>
  <path id="Path_25" data-name="Path 25" d="M40,420l1-1H39l1,1.5Z" transform="translate(-39 169.813)" fill="#fff"/>
  <path id="Path_26" data-name="Path 26" d="M80,320l1-1H79l1,1.5Z" transform="translate(-39 129.285)" fill="#fff"/>
  <path id="Path_27" data-name="Path 27" d="M120,460l1-1h-2l1,1.5Z" transform="translate(-39 222.5)" fill="#fff"/>
  <path id="Path_28" data-name="Path 28" d="M160,550l1-1h-2l1,1.5Z" transform="translate(-39 222.5)" fill="#fff"/>
  <path id="Path_29" data-name="Path 29" d="M200,350l1-1h-2l1,1.5Z" transform="translate(108.38 141.444)" fill="#fff"/>
  <path id="Path_30" data-name="Path 30" d="M240,520l1-1h-2l1,1.5Z" transform="translate(145.225 222.5)" fill="#fff"/>
  <path id="Path_31" data-name="Path 31" d="M475,250l1-1h-2l1,1.5Z" transform="translate(361.69 100.915)" fill="#fff"/>
  <path id="Path_32" data-name="Path 32" d="M525,150l1-1h-2l1,1.5Z" transform="translate(407.746 60.387)" fill="#fff"/>
  <path id="Path_33" data-name="Path 33" d="M575,300l1-1h-2l1,1.5Z" transform="translate(453.803 121.179)" fill="#fff"/>
  <path id="Path_34" data-name="Path 34" d="M625,400l1-1h-2l1,1.5Z" transform="translate(615 161.708)" fill="#fff"/>
  <path id="Path_35" data-name="Path 35" d="M675,100l1-1h-2l1,1.5Z" transform="translate(615)" fill="#fff"/>
  <path id="Path_36" data-name="Path 36" d="M725,200l1-1h-2l1,1.5Z" transform="translate(615 100.651)" fill="#fff"/>
</svg>
